<svg width="24" height="24" viewBox="0 0 24 24" xmlns="http://www.w3.org/2000/svg">
<path fill-rule="evenodd" clip-rule="evenodd" d="M20.8454 9.3031C20.899 9.45902 21.3272 9.78803 21.5845 9.98527L21.586 9.98645C22.2158 10.4712 23 11.0748 23 11.9965C23 12.9267 22.2045 13.5486 21.5645 14.0482L21.5514 14.0585C21.2983 14.2567 20.8881 14.5779 20.8345 14.7244C20.7846 14.8791 20.9221 15.3932 21.0049 15.7027L21.0054 15.7046C21.2172 16.4961 21.4572 17.3945 20.8981 18.1206C20.3437 18.8418 19.3792 18.9042 18.5276 18.9592L18.5225 18.9596C18.1807 18.9811 17.6088 19.0173 17.4643 19.118C17.3195 19.2189 17.1095 19.7079 16.9798 20.01L16.9734 20.025L16.9715 20.0294C16.651 20.7777 16.2889 21.6233 15.4015 21.9096C14.5012 22.2016 13.6525 21.6902 12.9716 21.2799L12.9659 21.2765C12.6586 21.0905 12.1932 20.8096 11.9995 20.8096C11.8034 20.8096 11.3382 21.0881 11.0246 21.2759L11.0149 21.2817L11.0037 21.2884C10.4375 21.626 9.81041 22 9.13123 22C8.9585 22 8.78121 21.9759 8.60212 21.9199C7.70974 21.647 7.34512 20.7932 7.02339 20.0397L7.02297 20.0388L7.0226 20.0379C6.89257 19.7337 6.67646 19.2282 6.53296 19.1292C6.39379 19.0332 5.8595 18.9979 5.5196 18.9754C5.50867 18.9747 5.49795 18.974 5.48744 18.9733L5.48547 18.9731C4.67396 18.9215 3.66601 18.8573 3.09279 18.1395C2.50533 17.4014 2.76305 16.4622 2.9702 15.7074L2.97098 15.7045C3.05644 15.397 3.19824 14.8819 3.14371 14.7235C3.08824 14.5632 2.67823 14.2402 2.40641 14.0266C1.78005 13.534 1 12.9198 1 11.9956C1 11.0662 1.79404 10.4455 2.43294 9.94608L2.43468 9.94472L2.43975 9.94077C2.69304 9.74311 3.11146 9.41658 3.16563 9.26858C3.21563 9.11549 3.07976 8.60927 2.99563 8.29585L2.99109 8.27892C2.77835 7.49424 2.53746 6.60535 3.07475 5.88442C3.6217 5.15104 4.59452 5.08862 5.45325 5.03353L5.45483 5.03343C5.79849 5.01189 6.37397 4.9757 6.51762 4.87494C6.66376 4.77321 6.87623 4.27697 7.00561 3.97481L7.00854 3.96797L7.01197 3.95997C7.33206 3.21429 7.69444 2.37007 8.58132 2.08426C9.4859 1.7931 10.3441 2.31679 11.0305 2.73972L11.0354 2.74274C11.3463 2.93396 11.8106 3.21949 11.9996 3.21949C12.1952 3.21949 12.6592 2.94252 12.9737 2.7548L12.986 2.74746L12.9866 2.74709C13.7001 2.31912 14.5109 1.83283 15.3979 2.1075C16.2898 2.37969 16.6552 3.23414 16.9762 3.9878C17.1061 4.29186 17.3234 4.79918 17.468 4.89823C17.6074 4.99414 18.1501 5.03008 18.4896 5.05256L18.5135 5.05415L18.5156 5.05428C19.3298 5.10596 20.3422 5.17022 20.9054 5.89741C21.4714 6.62986 21.2194 7.56016 21.0167 8.30837L21.0163 8.30998C20.9317 8.62007 20.7908 9.14115 20.8454 9.3031ZM19.1107 14.18C19.3271 13.5641 19.8772 13.1343 20.409 12.72L20.4169 12.7138C20.6668 12.5178 21.1152 12.1661 21.179 12C21.1135 11.844 20.6985 11.5236 20.4586 11.3384L20.4399 11.3239C19.9226 10.9268 19.3362 10.4763 19.1171 9.83464C18.9002 9.19832 19.0883 8.50106 19.2544 7.88512L19.2553 7.882C19.3407 7.57021 19.4817 7.04652 19.4262 6.89492C19.319 6.83345 18.7489 6.79651 18.4025 6.77407L18.3934 6.77348C17.6934 6.72955 16.9706 6.68392 16.4043 6.29632C15.8343 5.90795 15.558 5.26128 15.2907 4.63606L15.2906 4.63569L15.2882 4.63007C15.1588 4.32801 14.9452 3.82893 14.806 3.73389C14.7066 3.75444 14.2429 4.0326 13.9623 4.20092L13.9569 4.20417C13.3805 4.54955 12.725 4.94232 12.0004 4.94232C11.2722 4.94232 10.6177 4.54007 10.0413 4.1852L10.0355 4.18164C9.75572 4.00982 9.2937 3.72606 9.12668 3.72351C9.04306 3.80017 8.82392 4.3101 8.69484 4.61587C8.43029 5.23429 8.15662 5.87339 7.59205 6.2653C7.02203 6.66063 6.28653 6.70802 5.57652 6.7528C5.23831 6.77434 4.67284 6.81053 4.53375 6.90526C4.52302 7.00435 4.66177 7.51747 4.74765 7.83511L4.75195 7.85098L4.75359 7.85709C4.92947 8.5098 5.11129 9.18456 4.88923 9.81396C4.67284 10.4298 4.1228 10.8596 3.59097 11.2748C3.33462 11.4737 2.85732 11.8467 2.81642 12.0086C2.85544 12.141 3.31816 12.5058 3.56763 12.7025L3.56919 12.7037C4.07923 13.1051 4.65651 13.5608 4.8738 14.1955C5.08949 14.8292 4.89958 15.5226 4.7318 16.1353L4.73016 16.1413C4.64379 16.4514 4.50105 16.9725 4.55743 17.1249C4.66837 17.1964 5.2802 17.2352 5.6084 17.2559C6.3075 17.2998 7.02938 17.3454 7.59575 17.7322C8.16577 18.1206 8.44214 18.7675 8.70941 19.3937L8.71515 19.4071C8.84478 19.7099 9.05514 20.2013 9.19397 20.2955C9.28837 20.276 9.71175 20.0231 9.99444 19.8542C10.0112 19.8442 10.0274 19.8345 10.0431 19.8252L10.0481 19.8222C10.6251 19.4766 11.2771 19.0862 12.0004 19.0862C12.7228 19.0862 13.3692 19.4757 13.9398 19.8194L13.9451 19.8226L13.9676 19.8362C14.2468 20.0045 14.6895 20.2713 14.8505 20.2713C14.9406 20.1938 15.1588 19.683 15.2878 19.3781L15.288 19.3777C15.5525 18.7594 15.8262 18.1196 16.3906 17.7278C16.9598 17.3322 17.7237 17.2835 18.3984 17.2405L18.4016 17.2403C18.7425 17.2196 19.3125 17.1826 19.4507 17.0844C19.4696 16.976 19.3307 16.4554 19.2459 16.1375L19.2435 16.1283L19.243 16.1265C19.0695 15.4776 18.89 14.8064 19.1107 14.18ZM14.7851 8.85916C15.106 8.49481 15.6778 8.44486 16.0651 8.75148C16.4506 9.0564 16.5006 9.59906 16.1787 9.96422L11.4877 15.2787C11.3241 15.4639 11.0868 15.5758 10.8304 15.5862C10.8177 15.5879 10.804 15.5879 10.7913 15.5879C10.5504 15.5879 10.3185 15.4983 10.1485 15.3355L7.72114 13.0358C7.36566 12.699 7.36566 12.1546 7.72114 11.8179C8.07658 11.4811 8.65115 11.4811 9.00663 11.8179L10.7313 13.4509L14.7851 8.85916Z"/>
</svg>
