<svg width="100" height="100" viewBox="0 0 100 100" fill="none" xmlns="http://www.w3.org/2000/svg">
<path d="M87.087 36.4395H22.2666V57.8751H87.087V36.4395Z" fill="#C4C5CC"/>
<path fill-rule="evenodd" clip-rule="evenodd" d="M34.7904 7.89478H74.5579C82.9051 7.89478 89.7346 14.7243 89.7346 23.0714V71.5398C89.7346 79.887 82.9051 86.7165 74.5579 86.7165H34.7904C26.4433 86.7165 19.6138 79.887 19.6138 71.5398V59.1988V23.0714C19.6138 14.7243 26.4433 7.89478 34.7904 7.89478ZM22.2725 33.7864H87.0872V23.0657C87.0872 16.1792 81.4501 10.5421 74.5636 10.5421H34.7961C27.9096 10.5421 22.2725 16.1792 22.2725 23.0657V33.7864ZM87.0872 36.4395H22.2668V57.8751H87.0872V36.4395ZM87.0815 60.5224H22.2668V71.5341C22.2668 78.4206 27.9039 84.0577 34.7904 84.0577H74.5579C81.4444 84.0577 87.0815 78.4206 87.0815 71.5341V60.5224ZM33.3126 21.6622H76.0355C76.7658 21.6622 77.3592 22.2613 77.3592 22.9859C77.3592 23.7162 76.7601 24.3095 76.0355 24.3095H33.3126C32.5823 24.3095 31.989 23.7105 31.989 22.9859C31.989 22.2556 32.588 21.6622 33.3126 21.6622ZM64.1625 44.8722C63.649 44.3587 62.8046 44.3587 62.2911 44.8722H62.2854C61.7719 45.3857 61.7719 46.2301 62.2854 46.7436L67.2035 51.6618L67.2263 51.6846L67.2492 51.7074L67.272 51.7302L67.3005 51.753L67.329 51.7759L67.3576 51.7987L67.3861 51.8158L67.4146 51.8329L67.4432 51.85L67.4717 51.8672L67.5002 51.8843L67.5287 51.9014L67.5573 51.9185L67.5858 51.9299L67.6143 51.9413L67.6428 51.9527L67.6714 51.9641L67.6999 51.9756L67.7284 51.987L67.757 51.9984L67.7855 52.0098L67.814 52.0155L67.8425 52.0212L67.8711 52.0269L67.8996 52.0326L67.9338 52.0383L67.9681 52.044L68.0023 52.0497H68.0365H68.0708H68.105H68.1392H68.1735H68.2077H68.2419H68.2762L68.3104 52.044L68.3446 52.0383L68.3789 52.0326L68.4131 52.0269L68.4416 52.0212L68.4701 52.0155L68.4987 52.0098L68.5272 51.9984L68.5557 51.987L68.5843 51.9756L68.6128 51.9641L68.6413 51.9527L68.6698 51.9413L68.6984 51.9299L68.7269 51.9185L68.7554 51.9014L68.784 51.8843L68.8125 51.8672L68.841 51.85L68.8695 51.8329L68.8981 51.8158L68.9266 51.7987L68.9551 51.7759L68.9836 51.753L69.0122 51.7302L69.035 51.7074L69.0578 51.6846L69.0806 51.6618L76.9714 43.771C77.4849 43.2575 77.4849 42.4131 76.9714 41.8996C76.4579 41.3861 75.6134 41.3861 75.1 41.8996L68.1449 48.8546L64.1625 44.8722ZM33.3126 71.1802H76.0355C76.7658 71.1802 77.3592 71.7793 77.3592 72.5039C77.3592 73.2342 76.7601 73.8276 76.0355 73.8276H33.3126C32.5823 73.8276 31.989 73.2285 31.989 72.5039C31.989 71.7736 32.588 71.1802 33.3126 71.1802ZM53.3504 46.116H33.3126C32.588 46.116 31.989 46.7094 31.989 47.4397C31.989 48.1643 32.5823 48.7634 33.3126 48.7634H53.3504C54.075 48.7634 54.6741 48.17 54.6741 47.4397C54.6741 46.7151 54.0807 46.116 53.3504 46.116Z" fill="#242629"/>
<path d="M27.4702 92.1053C38.2815 92.1053 47.0458 83.341 47.0458 72.5297C47.0458 61.7184 38.2815 52.9541 27.4702 52.9541C16.6588 52.9541 7.89453 61.7184 7.89453 72.5297C7.89453 83.341 16.6588 92.1053 27.4702 92.1053Z" fill="#242629"/>
<path d="M27.4704 89.4523C36.8165 89.4523 44.393 81.8758 44.393 72.5297C44.393 63.1837 36.8165 55.6072 27.4704 55.6072C18.1243 55.6072 10.5479 63.1837 10.5479 72.5297C10.5479 81.8758 18.1243 89.4523 27.4704 89.4523Z" fill="#C4C5CC"/>
<path d="M26.7973 66.2593L23.5166 67.4403L24.2184 69.8937L26.4378 69.2889V78.7943H29.302V66.2593H26.7973Z" fill="#242629"/>
</svg>
