<svg width="100" height="100" viewBox="0 0 100 100" fill="none" xmlns="http://www.w3.org/2000/svg">
<path d="M95 45.5H91.7525L87.095 22.3894C86.7187 20.3156 85.6262 18.4397 84.008 17.0892C82.3899 15.7387 80.3489 14.9993 78.2413 15H21.7588C19.6511 14.9993 17.6101 15.7387 15.992 17.0892C14.3738 18.4397 13.2813 20.3156 12.905 22.3894L8.2475 45.5H5C4.60218 45.5 4.22064 45.658 3.93934 45.9393C3.65804 46.2206 3.5 46.6022 3.5 47V53C3.5 53.3978 3.65804 53.7794 3.93934 54.0607C4.22064 54.342 4.60218 54.5 5 54.5H8.2475L12.905 77.6106C13.2813 79.6844 14.3738 81.5602 15.992 82.9108C17.6101 84.2613 19.6511 85.0007 21.7588 85H78.2413C80.3489 85.0007 82.3899 84.2613 84.008 82.9108C85.6262 81.5602 86.7187 79.6844 87.095 77.6106L91.7525 54.5H95C95.3978 54.5 95.7794 54.342 96.0607 54.0607C96.342 53.7794 96.5 53.3978 96.5 53V47C96.5 46.6022 96.342 46.2206 96.0607 45.9393C95.7794 45.658 95.3978 45.5 95 45.5ZM15.8563 22.9275C16.1069 21.5448 16.8352 20.294 17.9139 19.3934C18.9927 18.4928 20.3535 17.9997 21.7588 18H78.2413C79.6465 17.9997 81.0073 18.4928 82.0861 19.3934C83.1648 20.294 83.8931 21.5448 84.1438 22.9275L88.7019 45.5H11.2981L15.8563 22.9275ZM84.1438 77.0725C83.8931 78.4552 83.1648 79.706 82.0861 80.6066C81.0073 81.5072 79.6465 82.0003 78.2413 82H21.7588C20.3535 82.0003 18.9927 81.5072 17.9139 80.6066C16.8352 79.706 16.1069 78.4552 15.8563 77.0725L11.2981 54.5H38.5737L41.1575 59.6712C41.2824 59.9203 41.4741 60.1297 41.7112 60.2761C41.9483 60.4224 42.2214 60.5 42.5 60.5H57.5C57.7786 60.5 58.0517 60.4224 58.2888 60.2761C58.5259 60.1297 58.7176 59.9203 58.8425 59.6712L61.4263 54.5H88.7019L84.1438 77.0725ZM41.9263 54.5H58.0737L56.5737 57.5H43.4263L41.9263 54.5ZM93.5 51.5H6.5V48.5H93.5V51.5Z" fill="#242629"/>
<path fill-rule="evenodd" clip-rule="evenodd" d="M82.0858 80.6066C83.1646 79.706 83.8928 78.4552 84.1435 77.0725L88.7016 54.5H61.426L58.8422 59.6712C58.7173 59.9203 58.5256 60.1297 58.2885 60.2761C58.0515 60.4224 57.7783 60.5 57.4997 60.5H42.4997C42.2211 60.5 41.948 60.4224 41.7109 60.2761C41.4738 60.1297 41.2821 59.9203 41.1572 59.6712L38.5735 54.5H11.2979L15.856 77.0725C16.1066 78.4552 16.8349 79.706 17.9137 80.6066C18.9924 81.5072 20.3532 82.0003 21.7585 82H78.241C79.6463 82.0003 81.007 81.5072 82.0858 80.6066ZM33.5 72.7496H66.5V69.7496H33.5V72.7496Z" fill="#C4C5CC"/>
<path d="M31.9995 66.75C31.6017 66.75 31.2202 66.908 30.9389 67.1893C30.6575 67.4706 30.4995 67.8522 30.4995 68.25V74.25C30.4995 74.6478 30.6575 75.0294 30.9389 75.3107C31.2202 75.592 31.6017 75.75 31.9995 75.75H67.9995C68.3973 75.75 68.7789 75.592 69.0602 75.3107C69.3415 75.0294 69.4995 74.6478 69.4995 74.25V68.25C69.4995 67.8522 69.3415 67.4706 69.0602 67.1893C68.7789 66.908 68.3973 66.75 67.9995 66.75H31.9995ZM66.4995 72.75H33.4995V69.75H66.4995V72.75Z" fill="#242629"/>
<path d="M59.75 28.625H40.25C39.8522 28.625 39.4706 28.783 39.1893 29.0643C38.908 29.3456 38.75 29.7272 38.75 30.125C38.75 30.5228 38.908 30.9044 39.1893 31.1857C39.4706 31.467 39.8522 31.625 40.25 31.625H59.75C60.1478 31.625 60.5294 31.467 60.8107 31.1857C61.092 30.9044 61.25 30.5228 61.25 30.125C61.25 29.7272 61.092 29.3456 60.8107 29.0643C60.5294 28.783 60.1478 28.625 59.75 28.625Z" fill="#242629"/>
</svg>
