<svg width="100" height="100" viewBox="0 0 100 100" fill="none" xmlns="http://www.w3.org/2000/svg">
<path d="M22.9165 91.6668V77.0835H77.0832V91.6668H22.9165Z" fill="#C4C5CC"/>
<path d="M93.75 38.4932C93.75 24.9486 82.7226 13.9212 69.1781 13.9212C68.8904 13.9212 68.6267 13.9452 68.339 13.9452C68.2192 13.9452 68.1233 13.9692 68.0034 13.9692H67.8356L67.7158 13.8493C63.0411 8.9589 56.7363 6.25 50 6.25C43.2637 6.25 36.9589 8.9589 32.2603 13.8493L32.1404 13.9692H31.9726C31.8527 13.9692 31.7569 13.9692 31.637 13.9452C31.3733 13.9212 31.0856 13.9212 30.7979 13.9212C17.2774 13.9212 6.25 24.9486 6.25 38.4932C6.25 48.4178 12.1952 57.3356 21.3767 61.1712L21.5925 61.2671V92.1918C21.5925 93.0548 22.2877 93.75 23.1507 93.75H76.8493C77.2569 93.75 77.6644 93.5822 77.9521 93.2945C78.2397 93.0069 78.4075 92.5993 78.4075 92.1918V61.2671L78.6233 61.1712C87.8048 57.3356 93.75 48.4178 93.75 38.4932ZM24.7089 90.6336V78.4388H75.2911V90.6336H24.7089ZM69.1781 59.9486C68.3151 59.9486 67.6199 60.6438 67.6199 61.5069C67.6199 62.3699 68.3151 63.0651 69.1781 63.0651C71.024 63.0651 72.9178 62.8253 74.8356 62.3699L75.2671 62.274V75.3224H24.7089V62.274L25.1404 62.3699C27.0582 62.8253 28.976 63.0651 30.8219 63.0651C31.6849 63.0651 32.3801 62.3699 32.3801 61.5069C32.3801 60.6438 31.6849 59.9486 30.8219 59.9486C18.9795 59.9486 9.36644 50.3356 9.36644 38.4932C9.36644 33.0993 11.3801 27.9452 15.0479 23.9658C18.6918 20.0103 23.6301 17.589 28.9281 17.1336L29.6473 17.0616L29.2637 17.6849C26.7466 21.6404 25.4281 26.1712 25.4281 30.8219C25.4281 44.3664 36.4555 55.3938 50 55.3938C50.863 55.3938 51.5582 54.6986 51.5582 53.8356C51.5582 52.9726 50.863 52.2774 50 52.2774C38.1575 52.2774 28.5445 42.6644 28.5445 30.8219C28.5445 18.9795 38.1575 9.36644 50 9.36644C61.8425 9.36644 71.4555 18.9795 71.4555 30.8219C71.4555 31.6849 72.1507 32.3801 73.0137 32.3801C73.8767 32.3801 74.5719 31.6849 74.5719 30.8219C74.5719 26.1712 73.2534 21.6404 70.7363 17.6849L70.3527 17.0616L71.0719 17.1336C76.3938 17.589 81.3322 20.0342 84.9521 23.9658C88.6199 27.9452 90.6336 33.0993 90.6336 38.4932C90.6336 50.3356 81.0206 59.9486 69.1781 59.9486Z" fill="#242629"/>
</svg>
