<svg width="48" height="48" viewBox="0 0 48 48" xmlns="http://www.w3.org/2000/svg">
<path fill-rule="evenodd" clip-rule="evenodd" d="M38.7438 21.76C39.0247 22.4513 39.2624 23.1698 39.4503 23.8952C40.1964 26.7749 40.1827 29.8147 39.4109 32.6866L39.0806 34.0161C38.1027 37.952 36.667 41.7581 34.8135 45.3286L34.465 46H13.5348L13.1863 45.3286C11.3328 41.7581 9.89719 37.952 8.91922 34.0162L8.58893 32.6867C7.81729 29.8147 7.80364 26.7748 8.5497 23.8952C8.73773 23.1697 8.97536 22.4512 9.25621 21.7599L12.022 14.95C12.8012 13.0314 13.214 6.60221 13.087 4.25766L12.9648 2H35.0353L34.913 4.25766C34.786 6.60221 35.1988 13.0314 35.9781 14.95L38.7438 21.76ZM15.5517 4.57812C15.613 7.2397 15.2401 13.5898 14.2764 15.9627L13.1492 18.738C19.8684 21.538 28.1317 21.538 34.8508 18.738L33.7236 15.9627C32.7599 13.5898 32.387 7.2397 32.4483 4.57812H15.5517ZM14.9962 43.4219H22.7742V35.8573C21.8753 33.8981 19.799 31.1518 15.009 28.7431C13.2371 27.8521 11.5891 27.2594 10.5096 26.9167C10.3572 28.6174 10.5046 30.3402 10.951 31.9966L10.9577 32.0223L11.2912 33.3644C12.1576 36.8516 13.4029 40.2314 14.9962 43.4219ZM11.5107 22.7726C11.3005 23.2902 11.119 23.8257 10.97 24.3674C13.7412 25.2141 20.5431 27.7423 24 32.9719C27.457 27.7423 34.259 25.2141 37.0301 24.3673C36.8812 23.8256 36.6997 23.2902 36.4894 22.7726L35.8141 21.1097C32.2066 22.6239 28.1501 23.4198 24 23.4198C19.85 23.4198 15.7934 22.624 12.186 21.1097L11.5107 22.7726ZM36.7089 33.3644L37.049 31.9967C37.4952 30.3411 37.6426 28.6193 37.4907 26.9196C34.6016 27.8414 27.6516 30.5491 25.2258 35.8569V43.422H33.0039C34.5972 40.2314 35.8424 36.8517 36.7089 33.3644ZM24.0002 13.1783C23.3232 13.1783 22.7744 13.7271 22.7744 14.404V14.5307C22.7744 15.2076 23.3232 15.7564 24.0002 15.7564C24.6771 15.7564 25.2259 15.2076 25.2259 14.5307V14.404C25.2259 13.7271 24.6771 13.1783 24.0002 13.1783Z"/>
</svg>
