<svg width="48" height="48" viewBox="0 0 48 48" xmlns="http://www.w3.org/2000/svg">
<path fill-rule="evenodd" clip-rule="evenodd" d="M39.469 46H26.5784C25.8665 46 25.2893 45.4228 25.2893 44.7109V38.7623C24.7686 38.8463 24.2964 38.8633 24.0003 38.8633H24.0002C23.7206 38.8633 23.2835 38.8479 22.7971 38.7754V44.7109C22.7971 45.4228 22.22 46 21.5081 46H8.55023C7.99541 46 7.50273 45.6449 7.32725 45.1185C5.59243 39.9137 5.34794 34.337 6.62016 28.9912C7.3176 26.0608 8.68711 23.3499 10.09 20.5729C11.3014 18.1752 12.5376 15.7281 13.3877 13.0477C14.2775 9.98179 13.9815 6.72132 12.5535 3.86553C12.3537 3.46601 12.375 2.99137 12.6099 2.61136C12.8449 2.23134 13.2598 2 13.7065 2H34.3127C34.7594 2 35.1744 2.23134 35.4093 2.61145C35.6442 2.99146 35.6655 3.46601 35.4657 3.86562C33.957 6.88271 33.7138 10.3067 34.7805 13.5068C35.6212 16.0291 36.7895 18.3341 37.936 20.5964C39.3332 23.353 40.6981 26.0462 41.3991 28.9915C42.6712 34.3371 42.4268 39.9137 40.6919 45.1185C40.5164 45.6449 40.0239 46 39.469 46ZM27.8674 43.4219H38.5232C39.5365 39.9933 39.851 36.4083 39.4596 32.8682C35.2171 32.4789 31.5005 33.9446 27.8674 37.4321V43.4219ZM15.8511 13.8084L15.8502 13.8113C14.938 16.6931 13.6471 19.2494 12.4015 21.7162C12.0241 22.4634 11.651 23.2025 11.2937 23.9398C11.7737 24.1376 12.3307 24.4311 12.9742 24.7703C15.3318 26.0127 18.8507 27.8672 24.0002 27.8672C29.154 27.8672 32.6788 26.0087 35.0391 24.7642L35.0392 24.7642L35.0392 24.7642C35.6835 24.4245 36.241 24.1306 36.7212 23.9326C36.3669 23.2037 35.9974 22.4745 35.624 21.7376C34.4485 19.4175 33.2345 17.0217 32.3346 14.322C31.2657 11.1149 31.2894 7.71991 32.3746 4.57718H15.6432C16.6618 7.53575 16.7457 10.7398 15.8588 13.783L15.8551 13.7953L15.8511 13.8084ZM8.55977 32.8668C8.16823 36.4073 8.48268 39.9929 9.49605 43.4219H20.219V37.5163C16.5642 33.9748 12.8289 32.481 8.55977 32.8668ZM22.3182 35.8968C22.5498 36.081 22.8065 36.2852 24.0002 36.2852C24.9568 36.2852 25.5452 36.0727 25.673 35.973C29.4848 32.1635 33.7412 29.9764 39.0396 30.2542C38.9926 30.032 38.9437 29.8099 38.891 29.5884C38.6245 28.4688 38.2423 27.3736 37.789 26.2812C37.3439 26.4626 36.8057 26.7453 36.1684 27.0799C33.7043 28.374 29.7599 30.4453 24.0002 30.4453C18.2361 30.4453 14.2878 28.3707 11.8335 27.0812C11.2009 26.7488 10.6676 26.4686 10.228 26.2895C9.77432 27.3839 9.39267 28.4773 9.12824 29.5883C9.07556 29.8095 9.02666 30.0314 8.97966 30.2534C14.168 29.9874 18.3493 32.0834 22.0931 35.743C22.1821 35.7885 22.2491 35.8417 22.3182 35.8968ZM25.2891 24C25.2891 24.7119 24.7119 25.2891 24 25.2891C23.2881 25.2891 22.7109 24.7119 22.7109 24C22.7109 23.2881 23.2881 22.7109 24 22.7109C24.7119 22.7109 25.2891 23.2881 25.2891 24ZM3.28906 12.3125H5.4192L5.04167 12.69C4.53825 13.1934 4.53825 14.0096 5.04167 14.513C5.54501 15.0163 6.36124 15.0164 6.86466 14.513L9.44279 11.9349C9.93959 11.4381 9.94956 10.6187 9.44279 10.1119L6.86466 7.53376C6.36133 7.03034 5.54509 7.03034 5.04167 7.53376C4.53825 8.03718 4.53825 8.85333 5.04167 9.35675L5.4192 9.73436H3.28906C2.57716 9.73436 2 10.3115 2 11.0234C2 11.7353 2.57716 12.3125 3.28906 12.3125ZM42.9584 7.53388C43.4618 8.0373 43.4618 8.85345 42.9584 9.35687L42.5808 9.73439H44.711C45.4229 9.73439 46 10.3115 46 11.0235C46 11.7354 45.4229 12.3125 44.711 12.3125H42.5808L42.9584 12.6901C43.4618 13.1935 43.4618 14.0097 42.9584 14.5131C42.4549 15.0165 41.6387 15.0165 41.1354 14.5131L38.5572 11.935C38.0614 11.4391 38.0488 10.6204 38.5572 10.112L41.1354 7.53388C41.6388 7.03045 42.455 7.03045 42.9584 7.53388Z"/>
</svg>
