<svg width="100" height="100" viewBox="0 0 100 100" fill="none" xmlns="http://www.w3.org/2000/svg">
<path fill-rule="evenodd" clip-rule="evenodd" d="M46.125 73.5414H43C38.625 73.5414 35.0833 69.9997 35.0833 65.6247V62.4997H38.2083C42.5833 62.4997 46.125 66.0414 46.125 70.4164V73.5414ZM52.5833 63.9581L50.5 66.0414L48.4167 63.9581C45.2917 60.8331 45.2917 55.8331 48.4167 52.7081L50.5 50.6247L52.5833 52.7081C55.7083 55.8331 55.7083 60.8331 52.5833 63.9581ZM65.9167 65.4164C65.9167 69.7914 62.375 73.3331 58 73.3331H54.875V70.2081C54.875 65.8331 58.4167 62.2914 62.7917 62.2914H65.9167V65.4164Z" fill="#C4C5CC"/>
<path fill-rule="evenodd" clip-rule="evenodd" d="M48.4167 8.95801C36.75 10.4163 28.8333 20.4163 25.9167 24.7913L25.5 25.4163H71.5417L71.125 24.7913C68.2083 20.6247 60.2917 10.4163 48.4167 8.95801Z" fill="#C4C5CC"/>
<path fill-rule="evenodd" clip-rule="evenodd" d="M62.7917 59.7917H67.1667C68 59.7917 68.4167 60.4167 68.2083 61.2501V65.6251C68.2083 71.4584 63.4167 76.2501 57.5833 76.2501H53.2083C52.5833 76.2501 51.9583 75.8334 51.9583 75.0001V70.6251V69.1667L52.1667 67.9167L51.125 68.9584C50.7083 69.3751 49.6667 69.3751 49.25 68.9584L48.2083 67.9167L48.4167 69.1667V70.4167V74.7917C48.4167 75.4167 48 76.0417 47.1667 76.0417H42.7917C36.9583 76.0417 32.1667 71.2501 32.1667 65.4167V61.0417C32.1667 60.4167 32.5833 59.7917 33.4167 59.7917H37.7917C39.4583 59.7917 41.125 60.2084 42.5833 61.0417L43.4167 61.4584L43.2083 60.6251C42.5833 57.0834 43.625 53.3334 46.125 50.8334L49.25 47.7084C49.6667 47.0834 50.7083 47.2917 51.125 47.7084L54.25 50.8334C56.9583 53.3334 58 57.0834 57.1667 60.6251L56.9583 61.4584L57.7917 61.0417C59.4583 60.2084 61.125 59.7917 62.7917 59.7917ZM46.125 73.5417H43C38.625 73.5417 35.0833 70.0001 35.0833 65.6251V62.5001H38.2083C42.5833 62.5001 46.125 66.0417 46.125 70.4167V73.5417ZM52.5833 63.9584L50.5 66.0417L48.4167 63.9584C45.2917 60.8334 45.2917 55.8334 48.4167 52.7084L50.5 50.6251L52.5833 52.7084C55.7083 55.8334 55.7083 60.8334 52.5833 63.9584ZM65.9167 65.4167C65.9167 69.7917 62.375 73.3334 58 73.3334H54.875V70.2084C54.875 65.8334 58.4167 62.2917 62.7917 62.2917H65.9167V65.4167Z" fill="#242629"/>
<path fill-rule="evenodd" clip-rule="evenodd" d="M86.5417 79.375L91.5417 84.375C92.7917 85.625 93.2083 87.2917 92.1667 88.75C91.5417 90.2083 89.875 91.0417 88.2083 90.8333L78.8333 89.5833L76.75 90C58 93.75 38.625 93.75 19.875 89.5833H19.6667L10.7083 90.8333C9.04167 91.0417 7.58333 90.2083 6.75 88.75C5.91667 87.2917 6.125 85.625 7.375 84.375L12.375 79.375V79.1667V78.75L16.125 39.5833H15.7083C13.2083 39.375 11.3333 37.7083 11.3333 35.8333V35.4167C11.3333 30.8333 16.125 26.4583 22.1667 25.625H22.375V25.4167C24.875 21.4583 33.625 8.125 48.4167 6.25H48.625H48.8333C63.1628 8.01665 71.9438 21.0653 74.4791 24.8329C74.6346 25.064 74.7666 25.2602 74.875 25.4167V25.625H75.0833C80.9167 26.6667 85.5 30.8333 85.5 35.4167V35.8333C85.5 37.5 84.25 38.9583 82.1667 39.375H81.75L86.5417 78.75V79.1667V79.375ZM48.4167 8.95833C36.75 10.4167 28.8333 20.4167 25.9167 24.7917L25.5 25.4167H71.5417L71.125 24.7917C68.2083 20.625 60.2917 10.4167 48.4167 8.95833ZM14.0417 36.0417C14.25 36.25 14.875 36.875 15.9167 36.875L28.8333 38.75C33 39.375 40.0833 39.7917 47.7917 39.7917H48.2083C55.7083 39.7917 62.5833 39.375 66.75 38.75L81.5417 36.6667C81.6147 36.5936 81.7391 36.5205 81.8787 36.4384C82.1372 36.2865 82.4481 36.1038 82.5833 35.8333V35.4167C82.5833 32.0833 78.2083 28.125 72.375 28.125H24.25C18.625 28.125 14.0417 32.0833 14.0417 35.4167V35.8333V36.0417ZM51.9584 14.1668C51.125 14.1668 50.2917 14.7918 50.2917 15.8334C50.2917 16.6668 50.9167 17.5001 51.9584 17.5001C52.7917 17.5001 53.625 16.8751 53.625 15.8334C53.625 14.7918 53 14.1668 51.9584 14.1668ZM58 18.1249C57.1666 18.1249 56.3333 18.7499 56.3333 19.7916C56.3333 20.6249 56.9583 21.4582 58 21.4582C59.0416 21.4582 59.6666 20.8332 59.6666 19.7916C59.4583 18.7499 58.8333 18.1249 58 18.1249ZM44.4584 19.7916C44.4584 18.7499 45.2917 18.1249 46.1251 18.1249C46.9584 18.1249 47.5834 18.7499 47.7917 19.7916C47.7917 20.8332 47.1667 21.4582 46.1251 21.4582C45.0834 21.4582 44.4584 20.6249 44.4584 19.7916ZM90.0833 87.7083C89.875 88.125 89.4583 88.3333 88.8333 88.3333L78.8333 86.875H78.625H78.4167L76.3333 87.5C67.375 89.375 58.2083 90.4167 49.25 90.4167C39.6667 90.4167 30.0833 89.375 20.5 87.2917C20.2917 87.2917 20.2917 87.2917 20.0833 87.0833H19.875L10.0833 88.5417C9.45833 88.5417 9.04167 88.3333 8.83333 87.9167C8.625 87.5 8.625 86.875 9.04167 86.4583L14.875 80.625V79.7917V79.1667L18.625 40L28.4167 41.4583C28.7292 41.4583 29.0417 41.5104 29.3542 41.5625C29.6667 41.6146 29.9792 41.6667 30.2917 41.6667C30.6042 41.6667 30.9687 41.7187 31.3333 41.7708C31.6979 41.8229 32.0625 41.875 32.375 41.875C36.75 42.2917 42.375 42.5 48.2083 42.5C53.5833 42.6389 67.275 42.375 79.0417 40.2083V40.625L83.8333 79.5833V80V80.8333L89.6667 86.6667C90.0833 86.6667 90.2917 87.0833 90.0833 87.7083Z" fill="#242629"/>
</svg>
