<svg width="100" height="100" viewBox="0 0 100 100" fill="none" xmlns="http://www.w3.org/2000/svg">
<path fill-rule="evenodd" clip-rule="evenodd" d="M53.4778 6.03149C77.7182 6.03149 97.3683 25.6815 97.3683 49.9219C97.3683 74.1623 77.7182 93.8123 53.4778 93.8123C29.2374 93.8123 9.5874 74.1623 9.5874 49.9219C9.5874 25.6815 29.2374 6.03149 53.4778 6.03149ZM66.7244 42.9551C67.433 40.2061 67.8056 37.1674 67.6196 34.1908C71.9243 38.063 74.631 43.6774 74.631 49.9219C74.631 51.6107 74.433 53.2533 74.059 54.8277C72.2025 55.4894 70.442 56.3694 68.921 57.325C64.6509 60.011 60.5322 64.3444 59.9936 69.5825C59.9773 69.743 59.9645 69.903 59.9552 70.0627C58.3157 70.5896 56.5888 70.922 54.802 71.0326C55.303 69.453 55.5936 67.7365 55.8897 65.9873C56.5416 62.1364 57.2203 58.1275 60.2295 55.0753C63.4154 51.8402 65.5979 47.3202 66.7244 42.9551ZM60.1291 72.736C58.0685 73.3359 55.8922 73.6643 53.6416 73.68C53.3407 74.182 52.995 74.6577 52.5941 75.102C50.0772 77.8936 46.3457 78.235 42.8219 77.8267C38.1611 77.2881 33.9263 75.5244 30.6173 72.145C23.6965 65.0834 23.1508 53.5053 24.3195 44.2647C26.5197 26.8746 34.2185 18.8837 52.221 19.0667H52.2175C56.8924 19.116 61.2434 20.6544 64.2004 24.414C65.5971 26.189 66.5154 28.2432 67.0538 30.4211C67.8007 30.9422 68.5163 31.5051 69.1971 32.1063C69.8343 29.9478 71.8314 28.3746 74.1945 28.3746C77.0741 28.3746 79.4045 30.7085 79.4045 33.5845C79.4045 33.6328 79.4038 33.6808 79.4025 33.7287C79.9535 33.6043 80.5268 33.5387 81.1154 33.5387C85.3925 33.5387 88.8599 37.0061 88.8599 41.2832C88.8599 45.5603 85.3925 49.0277 81.1154 49.0277C79.668 49.0277 78.3134 48.6307 77.1545 47.9396C77.2084 48.5932 77.236 49.2543 77.236 49.9219C77.236 51.3193 77.1153 52.6886 76.8838 54.0198C78.8705 53.5958 80.8834 53.4829 82.7626 53.84L84.7515 54.2167L84.8783 56.2373L84.8747 56.2338C85.1458 60.5883 83.3258 65.4427 81.0447 69.0862C77.176 75.2642 70.1742 80.6924 62.6444 77.3517L61.8559 77.0032L61.4334 76.2534C60.8037 75.1374 60.3623 73.958 60.1291 72.736ZM76.2043 56.8682C78.3729 56.2531 80.4865 56.0561 82.2733 56.3957C82.8048 64.9182 73.3459 79.2526 63.7005 74.9685C63.1156 73.9319 62.7666 72.8898 62.62 71.8567C69.1043 69.1506 74.1325 63.6543 76.2043 56.8682ZM62.7217 68.9513C67.3418 66.7029 71.0208 62.8223 73.0082 58.06C68.1379 60.3099 63.6664 64.3949 62.7217 68.9513ZM53.4778 8.63648C76.2785 8.63648 94.7633 27.1213 94.7633 49.9219C94.7633 72.7225 76.2785 91.2074 53.4778 91.2074C30.6772 91.2074 12.1924 72.7225 12.1924 49.9219C12.1924 27.1213 30.6772 8.63648 53.4778 8.63648ZM58.3709 53.2448C67.0623 44.4266 69.442 21.8477 52.1893 21.6717C34.9331 21.4957 28.8501 29.1804 26.8999 44.592C24.9532 60.0037 28.8888 73.5989 43.1176 75.2393C51.4707 76.2023 52.2778 71.4938 53.2783 65.6567C53.9821 61.5507 54.7817 56.8863 58.3709 53.2448ZM35.7254 48.721L45.7792 58.7748C46.2862 59.2817 46.2862 60.109 45.7792 60.6159C45.2723 61.1228 44.4451 61.1228 43.9381 60.6159L33.8843 50.5621C33.3774 50.0552 33.3774 49.2279 33.8843 48.721C34.3913 48.2141 35.2185 48.2141 35.7254 48.721ZM48.5497 29.1414L58.6035 39.1952C59.1104 39.7021 59.1104 40.5294 58.6035 41.0363C58.0966 41.5432 57.2693 41.5432 56.7624 41.0363L46.7086 30.9825C46.2017 30.4755 46.2017 29.6483 46.7086 29.1414C47.2155 28.6345 48.0428 28.6345 48.5497 29.1414ZM37.739 33.4396L47.7928 43.4934C48.2997 44.0003 48.2997 44.8276 47.7928 45.3345C47.2859 45.8414 46.4586 45.8414 45.9517 45.3345L35.8979 35.2807C35.391 34.7738 35.391 33.9465 35.8979 33.4396C36.4048 32.9327 37.2321 32.9327 37.739 33.4396ZM74.1945 30.9796C75.6343 30.9796 76.7995 32.1448 76.7995 33.5845C76.7995 35.0243 75.6343 36.1895 74.1945 36.1895C72.7547 36.1895 71.5895 35.0243 71.5895 33.5845C71.5895 32.1448 72.7547 30.9796 74.1945 30.9796ZM86.2549 41.2832C86.2549 38.4459 83.9527 36.1436 81.1154 36.1436C78.278 36.1436 75.9758 38.4459 75.9758 41.2832C75.9758 44.1205 78.278 46.4228 81.1154 46.4228C83.9527 46.4228 86.2549 44.1205 86.2549 41.2832Z" fill="#242629"/>
<path fill-rule="evenodd" clip-rule="evenodd" d="M76.7991 33.5876C76.7991 35.0263 75.6328 36.1926 74.1941 36.1926C72.7554 36.1926 71.5891 35.0263 71.5891 33.5876C71.5891 32.149 72.7554 30.9827 74.1941 30.9827C75.6328 30.9827 76.7991 32.149 76.7991 33.5876ZM81.115 46.4224C83.9535 46.4224 86.2545 44.1213 86.2545 41.2828C86.2545 38.4443 83.9535 36.1433 81.115 36.1433C78.2765 36.1433 75.9754 38.4443 75.9754 41.2828C75.9754 44.1213 78.2765 46.4224 81.115 46.4224ZM82.2769 56.3917C73.8494 54.79 58.1526 65.1255 63.7041 74.9645C73.3495 79.2487 82.8084 64.9142 82.2769 56.3917Z" fill="#C4C5CC"/>
<path d="M21.8765 94.0285C32.5053 94.0285 41.1217 85.4121 41.1217 74.7833C41.1217 64.1544 32.5053 55.5381 21.8765 55.5381C11.2477 55.5381 2.63135 64.1544 2.63135 74.7833C2.63135 85.4121 11.2477 94.0285 21.8765 94.0285Z" fill="#242629"/>
<path d="M21.8765 91.4235C31.0667 91.4235 38.5167 83.9734 38.5167 74.7833C38.5167 65.5931 31.0667 58.1431 21.8765 58.1431C12.6864 58.1431 5.23633 65.5931 5.23633 74.7833C5.23633 83.9734 12.6864 91.4235 21.8765 91.4235Z" fill="#C4C5CC"/>
<path d="M17.7472 81.0668H26.1254V78.3562H21.9891L24.0309 76.2969C25.1573 75.1704 25.9494 73.9031 25.9494 72.4246C25.9494 69.9428 23.9781 68.4995 21.7779 68.4995C20.0706 68.4995 18.4161 69.362 17.624 71.1925L20.0002 72.583C20.3346 71.8085 20.9507 71.2453 21.8131 71.2453C22.6404 71.2453 23.1332 71.7733 23.1332 72.5478C23.1332 73.2694 22.6052 73.9911 21.8835 74.7303L17.7472 79.025V81.0668Z" fill="#242629"/>
</svg>
