<svg width="100" height="100" viewBox="0 0 100 100" fill="none" xmlns="http://www.w3.org/2000/svg">
<path fill-rule="evenodd" clip-rule="evenodd" d="M49.9139 2.63184C76.0274 2.63184 97.1959 23.8003 97.1959 49.9138C97.1959 76.0274 76.0274 97.1959 49.9139 97.1959C23.8003 97.1959 2.63184 76.0274 2.63184 49.9138C2.63184 23.8003 23.8003 2.63184 49.9139 2.63184ZM64.1843 42.4088C64.9476 39.4474 65.3491 36.1739 65.1487 32.9673C69.7859 37.1388 72.7016 43.187 72.7016 49.9138C72.7016 51.733 72.4883 53.5023 72.0855 55.1983C70.0855 55.9111 68.1889 56.8591 66.5504 57.8886C61.9503 60.7822 57.5134 65.4504 56.9332 71.0933C56.9156 71.2663 56.9018 71.4389 56.8918 71.6109C55.1256 72.1786 53.2655 72.5366 51.3407 72.6558C51.8803 70.9542 52.1934 69.105 52.5124 67.2208C53.2146 63.0722 53.9457 58.7536 57.1876 55.4656C60.6196 51.9805 62.9708 47.1112 64.1843 42.4088ZM57.0792 74.4908C54.8595 75.1371 52.5151 75.4909 50.0906 75.5078C49.7665 76.0487 49.394 76.5611 48.9622 77.0398C46.2507 80.0471 42.2309 80.4149 38.4348 79.975C33.4138 79.3948 28.8517 77.4949 25.287 73.8543C17.8314 66.247 17.2436 53.7742 18.5026 43.8195C20.8728 25.0857 29.1665 16.4773 48.5602 16.6745H48.5564C53.5925 16.7275 58.2798 18.3848 61.4653 22.4349C62.9699 24.3471 63.9592 26.5601 64.5392 28.9063C65.3437 29.4676 66.1145 30.074 66.8479 30.7216C67.5342 28.3962 69.6857 26.7012 72.2315 26.7012C75.3336 26.7012 77.8441 29.2155 77.8441 32.3138C77.8441 32.3658 77.8434 32.4176 77.842 32.4693C78.4355 32.3353 79.0531 32.2645 79.6871 32.2645C84.2947 32.2645 88.0301 35.9999 88.0301 40.6075C88.0301 45.2151 84.2947 48.9505 79.6871 48.9505C78.1279 48.9505 76.6686 48.5228 75.4201 47.7782C75.4782 48.4824 75.5079 49.1946 75.5079 49.9138C75.5079 51.4191 75.3779 52.894 75.1286 54.328C77.2687 53.8713 79.4372 53.7496 81.4616 54.1343L83.6042 54.5401L83.7407 56.7168L83.7369 56.713C84.0289 61.4041 82.0683 66.6336 79.6109 70.5586C75.4432 77.2141 67.9004 83.0617 59.7888 79.4629L58.9393 79.0874L58.4842 78.2797C57.8058 77.0776 57.3304 75.8071 57.0792 74.4908ZM74.3966 57.3965C76.7327 56.7339 79.0096 56.5217 80.9344 56.8875C81.5071 66.0686 71.3172 81.5107 60.9264 76.8955C60.2964 75.7789 59.9204 74.6564 59.7626 73.5436C66.748 70.6283 72.1648 64.7072 74.3966 57.3965ZM59.872 70.4137C64.8492 67.9916 68.8127 63.8109 70.9536 58.6803C65.7067 61.1041 60.8895 65.505 59.872 70.4137ZM49.9139 5.43811C74.4764 5.43811 94.3896 25.3513 94.3896 49.9138C94.3896 74.4764 74.4764 94.3896 49.9139 94.3896C25.3513 94.3896 5.43812 74.4764 5.43812 49.9138C5.43812 25.3513 25.3513 5.43811 49.9139 5.43811ZM55.1853 53.4936C64.5484 43.994 67.112 19.6703 48.526 19.4807C29.9363 19.2911 23.3833 27.5696 21.2824 44.1722C19.1853 60.7748 23.425 75.4205 38.7534 77.1877C47.7519 78.2251 48.6213 73.1527 49.6992 66.8646C50.4574 62.4413 51.3187 57.4165 55.1853 53.4936ZM30.7897 48.6205L41.6204 59.4512C42.1665 59.9973 42.1665 60.8885 41.6204 61.4345C41.0743 61.9806 40.1831 61.9806 39.637 61.4345L28.8063 50.6038C28.2602 50.0577 28.2602 49.1665 28.8063 48.6205C29.3524 48.0744 30.2436 48.0744 30.7897 48.6205ZM44.6049 27.5279L55.4356 38.3586C55.9817 38.9047 55.9817 39.7959 55.4356 40.3419C54.8895 40.888 53.9984 40.888 53.4523 40.3419L42.6216 29.5112C42.0755 28.9651 42.0755 28.0739 42.6216 27.5279C43.1676 26.9818 44.0588 26.9818 44.6049 27.5279ZM32.9589 32.1582L43.7896 42.9889C44.3357 43.535 44.3357 44.4262 43.7896 44.9723C43.2435 45.5184 42.3523 45.5184 41.8062 44.9723L30.9755 34.1416C30.4294 33.5955 30.4294 32.7043 30.9755 32.1582C31.5216 31.6121 32.4128 31.6121 32.9589 32.1582ZM72.2315 29.5075C73.7826 29.5075 75.0378 30.7627 75.0378 32.3138C75.0378 33.8648 73.7826 35.12 72.2315 35.12C70.6805 35.12 69.4253 33.8648 69.4253 32.3138C69.4253 30.7627 70.6805 29.5075 72.2315 29.5075ZM85.2239 40.6075C85.2239 37.551 82.7437 35.0708 79.6871 35.0708C76.6306 35.0708 74.1504 37.551 74.1504 40.6075C74.1504 43.6641 76.6306 46.1442 79.6871 46.1442C82.7437 46.1442 85.2239 43.6641 85.2239 40.6075Z" fill="#242629"/>
<path fill-rule="evenodd" clip-rule="evenodd" d="M75.0372 32.318C75.0372 33.8679 73.7808 35.1243 72.231 35.1243C70.6811 35.1243 69.4247 33.8679 69.4247 32.318C69.4247 30.7681 70.6811 29.5117 72.231 29.5117C73.7808 29.5117 75.0372 30.7681 75.0372 32.318ZM79.6871 46.1444C82.745 46.1444 85.2238 43.6656 85.2238 40.6077C85.2238 37.5499 82.745 35.071 79.6871 35.071C76.6293 35.071 74.1504 37.5499 74.1504 40.6077C74.1504 43.6656 76.6293 46.1444 79.6871 46.1444ZM80.9386 56.8846C71.8599 55.1591 54.9501 66.2932 60.9305 76.8926C71.3214 81.5078 81.5112 66.0657 80.9386 56.8846Z" fill="#C4C5CC"/>
</svg>
