<svg width="100" height="100" viewBox="0 0 100 100" fill="none" xmlns="http://www.w3.org/2000/svg">
<path fill-rule="evenodd" clip-rule="evenodd" d="M25.7349 30.1793C33.5816 23.7176 40.2934 17.4253 46.2473 10.9443L48.9522 8L53.6964 14.2249C58.0086 19.8827 61.2666 25.6824 63.4175 31.4959L63.822 32.5892L64.9429 32.2464C69.95 30.7154 74.7611 29.0358 79.2757 27.241L83.0014 25.7598L84.5437 33.415C88.0512 50.8269 85.1506 66.0312 76.6224 76.3628C72.5327 81.3169 67.1678 85.1679 60.6492 87.7979C53.7685 90.5739 45.545 92 36.1844 92H26.1128L16.5329 72.3273C13.0335 65.141 12.1122 57.2425 13.8654 49.4708C15.5659 41.933 19.7835 35.0801 25.7349 30.1793ZM51.5696 15.8235L48.7637 12.142L47.7607 13.2253C41.8467 19.6126 35.194 25.8311 27.4374 32.2185C21.9333 36.751 18.04 43.0819 16.4681 50.0499C14.8488 57.2281 15.7025 64.538 18.9341 71.1742L25.6156 84.8949V69.6541C25.6156 61.6713 28.2485 54.1626 33.2341 47.9239C38.0694 41.8734 44.8707 37.5274 52.3767 35.6886C54.9632 35.055 57.5058 34.3888 59.968 33.7007L61.2639 33.3385L60.7914 32.0866C58.7205 26.5993 55.6225 21.1412 51.5696 15.8235ZM78.1117 32.8142L79.5039 30.0278L76.5701 31.1171C72.3498 32.684 67.9139 34.1534 63.3285 35.4965L63.3264 35.4972L63.2623 35.5157L63.2595 35.5165L62.0675 35.8646L60.9181 36.187C58.3581 36.9052 55.7103 37.6003 53.0157 38.2605C46.0735 39.9611 39.7932 43.9773 35.3234 49.5706C30.7187 55.3324 28.2829 62.2824 28.2829 69.6539V88.2205L30.243 86.8193C34.11 84.0549 40.4032 79.2549 47.4007 72.7194C54.1095 66.4536 60.1504 59.8357 65.3544 53.0472C70.4176 46.442 74.6914 39.6593 78.1117 32.8142ZM82.2276 35.5075L81.5805 31.9116L79.9076 35.1649C76.5099 41.7729 72.3337 48.3223 67.4308 54.7115C62.1309 61.618 55.9768 68.3549 49.1382 74.7331C43.3911 80.0933 38.1745 84.2626 34.3186 87.1402L31.356 89.3512H36.1844C45.119 89.3512 53.021 88.0164 59.6453 85.3439C65.7077 82.8982 70.7354 79.3161 74.5594 74.6836C82.4417 65.1346 85.0549 51.2193 82.2276 35.5075Z" fill="#242629"/>
<path fill-rule="evenodd" clip-rule="evenodd" d="M78.5866 32.825L80 30L77.0215 31.1044C72.737 32.693 68.2337 34.1829 63.5786 35.5446L63.5764 35.5452L63.5113 35.5641L63.5085 35.5649L62.2983 35.9177L61.1315 36.2447C58.5325 36.9729 55.8445 37.6776 53.109 38.3469C46.0611 40.0711 39.6853 44.143 35.1476 49.8139C30.4729 55.6557 28 62.702 28 70.1758V89L29.9899 87.5793C33.9157 84.7766 40.3046 79.91 47.4085 73.2838C54.2194 66.9312 60.3521 60.2214 65.6352 53.3387C70.7755 46.6419 75.1143 39.7651 78.5866 32.825Z" fill="#C4C5CC"/>
</svg>
