<svg width="24" height="24" viewBox="0 0 24 24" xmlns="http://www.w3.org/2000/svg">
<path d="M1 5C1 4.44775 1.54722 4 2.22222 4H21.7778C22.4528 4 23 4.44775 23 5C23 5.55225 22.4528 6 21.7778 6H2.22222C1.54722 6 1 5.55225 1 5Z"/>
<path d="M1 12C1 11.4478 1.54722 11 2.22222 11H21.7778C22.4528 11 23 11.4478 23 12C23 12.5522 22.4528 13 21.7778 13H2.22222C1.54722 13 1 12.5522 1 12Z"/>
<path d="M2.22222 18C1.54722 18 1 18.4478 1 19C1 19.5522 1.54722 20 2.22222 20H21.7778C22.4528 20 23 19.5522 23 19C23 18.4478 22.4528 18 21.7778 18H2.22222Z"/>
</svg>
