<svg width="100" height="100" viewBox="0 0 100 100" fill="none" xmlns="http://www.w3.org/2000/svg">
<path fill-rule="evenodd" clip-rule="evenodd" d="M50 0C77.6147 0 100 22.3853 100 50C100 77.6147 77.6147 100 50 100C22.3853 100 0 77.6147 0 50C0 22.3853 22.3853 0 50 0ZM50 2.9676C75.9745 2.9676 97.0324 24.0255 97.0324 50C97.0324 75.9745 75.9745 97.0324 50 97.0324C24.0255 97.0324 2.9676 75.9745 2.9676 50C2.9676 24.0255 24.0255 2.9676 50 2.9676Z" fill="#242629"/>
<path d="M27.0244 39.6706C27.0244 42.9102 28.2666 45.9609 30.5201 48.2536C30.8521 48.5924 31.2884 48.7618 31.7247 48.7618C32.1603 48.7618 32.5965 48.5917 32.9286 48.2536C33.5949 47.576 33.5949 46.4793 32.9286 45.8017C31.3191 44.1631 30.432 41.9844 30.432 39.6706C30.432 37.356 31.3191 35.1773 32.9286 33.5387C35.1829 31.246 36.4243 28.1953 36.4243 24.9541C36.4243 21.7137 35.1829 18.6638 32.9286 16.3711C32.263 15.6927 31.1865 15.6927 30.5201 16.3711C29.8538 17.0487 29.8538 18.1447 30.5201 18.823C32.1304 20.4616 33.0175 22.6403 33.0175 24.9541C33.0175 27.2687 32.1304 29.4474 30.5201 31.086C28.2643 33.3787 27.0244 36.4294 27.0244 39.6706Z" fill="#242629"/>
<path d="M39.5083 39.6706C39.5083 42.9102 40.7497 45.9609 43.0032 48.2536C43.336 48.5924 43.7716 48.7618 44.2078 48.7618C44.6441 48.7618 45.0797 48.5917 45.4124 48.2536C46.0788 47.576 46.0788 46.4793 45.4124 45.8017C43.8022 44.1631 42.9151 41.9844 42.9151 39.6706C42.9151 37.356 43.8022 35.1773 45.4124 33.5387C47.666 31.246 48.9082 28.1953 48.9082 24.9541C48.9082 21.7137 47.666 18.6638 45.4124 16.3711C44.7461 15.6927 43.6696 15.6927 43.004 16.3711C42.3377 17.0487 42.3377 18.1447 43.004 18.823C44.6135 20.4616 45.5006 22.6403 45.5006 24.9541C45.5006 27.2687 44.6135 29.4474 43.004 31.086C40.7497 33.3787 39.5083 36.4294 39.5083 39.6706Z" fill="#242629"/>
<path d="M66.5686 19.6878C66.2886 19.287 65.6013 19.287 65.3232 19.6878C64.9654 20.2062 56.5459 32.4001 56.5459 37.2334C56.5459 42.2932 60.7647 46.4118 65.9456 46.4118C71.1274 46.4118 75.3456 42.2929 75.3456 37.2334C75.3462 32.4001 66.9261 20.2048 66.5686 19.6878Z" fill="#C4C5CC"/>
<path d="M73.9456 37.2333V37.2334C73.9456 41.4884 70.3859 45.0118 65.9456 45.0118C61.5061 45.0118 57.9459 41.4886 57.9459 37.2334C57.9459 36.3366 58.3632 34.8983 59.1512 33.0833C59.9162 31.3213 60.9507 29.3793 62.0123 27.5433C63.5653 24.8577 65.1438 22.4545 65.946 21.2613C66.7479 22.4539 68.3265 24.8571 69.8794 27.5428C70.9411 29.3789 71.9756 31.321 72.7405 33.0831C73.5285 34.8982 73.9457 36.3365 73.9456 37.2333Z" stroke="#242629" stroke-width="2.8"/>
<path fill-rule="evenodd" clip-rule="evenodd" d="M83.202 58.8749H99.1615C98.9515 60.0083 98.7032 61.1282 98.4181 62.2333H81.4463L80.0537 64.5279C80.0506 64.5347 80.0468 64.5415 80.0437 64.5483C79.8568 64.8573 79.7015 65.1875 79.5715 65.532L79.5662 65.5467L79.5615 65.5604L79.5565 65.575L79.5515 65.5887H97.4251C97.0442 66.7267 96.6234 67.8465 96.1645 68.9463H79.107C78.9248 74.5275 74.2793 79.0177 68.5803 79.0177H27.8951C22.0815 79.0177 17.3506 74.3477 17.3506 68.6086V67.8319C17.3506 66.6669 17.0307 65.5237 16.4248 64.5234L13.6379 59.9372C13.0912 59.0359 13.0781 57.9078 13.6056 56.9936C14.1316 56.084 15.119 55.5181 16.1833 55.5181H80.2959C81.3602 55.5181 82.3476 56.0832 82.8744 56.9936C83.2096 57.5724 83.3011 58.235 83.202 58.8749ZM68.5834 75.6601H27.8966C23.7767 75.6601 21.6506 72.303 21.1026 70.6244C20.938 70.0872 20.8319 69.5281 20.8034 68.9456H35.9142C36.857 68.9456 37.6229 68.1953 37.6229 67.2675C37.6229 66.339 36.857 65.5887 35.9142 65.5887H20.4858C20.2513 64.6133 19.886 63.6719 19.3593 62.8038L16.9731 58.8742H79.5069L77.1207 62.8038C76.9123 63.1483 76.7293 63.5087 76.5655 63.8782C76.4808 64.0676 76.4117 64.2634 76.3426 64.459L76.311 64.5483C76.2941 64.5964 76.2764 64.6438 76.2587 64.6911C76.2259 64.7792 76.1932 64.8669 76.1656 64.9578C76.0711 65.2578 75.9995 65.563 75.9365 65.8705L75.9229 65.933C75.9132 65.977 75.9036 66.0207 75.8957 66.0654C75.8319 66.4009 75.7896 66.7386 75.7635 67.0809C75.7627 67.0926 75.761 67.1039 75.7592 67.1153C75.7575 67.1266 75.7558 67.1379 75.755 67.1497L75.6781 68.9441C75.4943 72.6742 72.3968 75.6601 68.5834 75.6601Z" fill="#242629"/>
<path fill-rule="evenodd" clip-rule="evenodd" d="M68.583 75.6599H27.8962C23.7763 75.6599 21.6502 72.3028 21.1022 70.6242C20.9376 70.087 20.8315 69.5279 20.803 68.9454H35.9138C36.8566 68.9454 37.6225 68.1952 37.6225 67.2674C37.6225 66.3388 36.8566 65.5885 35.9138 65.5885H20.4854C20.2509 64.6131 19.8856 63.6717 19.3588 62.8036L16.9727 58.874H79.5065L77.1203 62.8036C76.9119 63.1481 76.7289 63.5085 76.5651 63.878C76.4804 64.0675 76.4112 64.2632 76.3422 64.4588L76.3106 64.5482C76.2936 64.5962 76.276 64.6436 76.2583 64.6909C76.2255 64.779 76.1927 64.8667 76.1652 64.9577C76.0706 65.2576 75.9991 65.5628 75.9361 65.8704L75.9225 65.9328C75.9128 65.9769 75.9032 66.0205 75.8953 66.0653C75.8315 66.4007 75.7892 66.7385 75.7631 67.0807C75.7623 67.0924 75.7606 67.1038 75.7588 67.1151C75.7571 67.1264 75.7554 67.1378 75.7546 67.1495L75.6777 68.9439C75.4939 72.674 72.3964 75.6599 68.583 75.6599Z" fill="#C4C5CC"/>
<rect x="13.4438" y="84.4053" width="99.1392" height="3.04027" transform="rotate(-45 13.4438 84.4053)" fill="#242629"/>
</svg>
