<svg width="58" height="48" viewBox="0 0 58 48" xmlns="http://www.w3.org/2000/svg">
<path fill-rule="evenodd" clip-rule="evenodd" d="M49.649 42.8404L49.6424 42.8689C49.2683 44.4363 48.4629 45.9705 46.8682 46.6617C45.2928 47.3446 43.6333 46.9038 42.2606 46.1728C42.1893 46.1348 42.1203 46.0925 42.0541 46.0462L30.9503 38.277L26.1566 42.6547C26.1458 42.6649 26.1349 42.6753 26.1238 42.6859C25.8212 42.9739 25.3532 43.4194 24.7423 43.7565C24.0365 44.1458 23.2404 44.3472 22.298 44.3472C21.7418 44.3472 21.2107 44.1156 20.8323 43.708C20.4539 43.3005 20.2622 42.7537 20.3035 42.1991L21.1955 30.1922C21.2349 29.6618 21.484 29.1689 21.8877 28.8225L32.4916 19.7245L17.2246 28.8521C16.7441 29.1394 16.1652 29.2122 15.6286 29.0527L3.38234 25.4132C2.55732 25.1687 1.74939 24.8006 1.12167 24.2398C0.466307 23.6544 -0.0933945 22.7452 0.0124353 21.5992C0.11122 20.5295 0.751309 19.7331 1.38178 19.2051C2.02928 18.6629 2.86532 18.2285 3.80898 17.878L3.81822 17.8746L51.7234 0.350843L51.7396 0.344995C53.2887 -0.206578 55.1905 -0.185113 56.5851 1.09756C57.9899 2.38956 58.2425 4.37198 57.7977 6.35177C57.7976 6.35235 57.7974 6.35294 57.7973 6.35352L49.649 42.8404ZM55.846 5.91472C56.5693 2.69841 54.6285 1.43935 52.4105 2.22912L4.5053 19.7529C1.23849 20.9662 1.28671 22.706 3.95079 23.4957L16.1983 27.1355L44.6473 10.1268C44.937 9.94342 45.2211 9.82173 45.4783 9.75223C45.4809 9.75152 45.4835 9.75082 45.4861 9.75012C46.4119 9.50323 46.984 9.93441 46.2023 10.5961L23.19 30.3404L22.298 42.3472C23.2928 42.3472 23.8492 42.0281 24.3598 41.5896C24.505 41.4649 24.6465 41.3306 24.7933 41.1912L30.7844 35.72L43.2007 44.4075C45.479 45.6208 47.0823 44.9798 47.6971 42.4045L55.846 5.91472Z"/>
</svg>
