<svg width="24" height="24" viewBox="0 0 24 24" xmlns="http://www.w3.org/2000/svg">
<path d="M19.1538 2H4.84615C3.23077 2 2 3.23077 2 4.84615V19.1538C2 20.7692 3.23077 22 4.84615 22H19.1538C20.7692 22 22 20.7692 22 19.1538V4.84615C22 3.23077 20.7692 2 19.1538 2ZM12 18C15.3077 18 18 15.3846 18 12.2308C18 11.6923 17.9231 11.0769 17.7692 10.6154H19.4615V18.7692C19.4615 19.1538 19.1538 19.5385 18.6923 19.5385H5.30769C4.92308 19.5385 4.53846 19.2308 4.53846 18.7692V10.5385H6.3077C6.15385 11.0769 6.07693 11.6154 6.07693 12.1538C6 15.3846 8.69231 18 12 18ZM12 15.6923C9.84615 15.6923 8.15385 14 8.15385 11.9231C8.15385 9.84616 9.84615 8.15385 12 8.15385C14.1538 8.15385 15.8462 9.84616 15.8462 11.9231C15.8462 14.0769 14.1538 15.6923 12 15.6923ZM19.3846 7.46154C19.3846 7.92308 19 8.30769 18.5385 8.30769H16.3846C15.9231 8.30769 15.5385 7.92308 15.5385 7.46154V5.38462C15.5385 4.92308 15.9231 4.53846 16.3846 4.53846H18.5385C19 4.53846 19.3846 4.92308 19.3846 5.38462V7.46154Z"/>
</svg>
