<svg xmlns="http://www.w3.org/2000/svg" xmlns:xlink="http://www.w3.org/1999/xlink" width="512" height="12633" viewBox="0 0 512 12633"><svg viewBox="0 0 492 492" width="492" height="492" id="arrow-conner-left" y="0"><path d="M464.344 207.418l.768.168H135.888l103.496-103.724c5.068-5.064 7.848-11.924 7.848-19.124 0-7.2-2.78-14.012-7.848-19.088L223.28 49.538c-5.064-5.064-11.812-7.864-19.008-7.864-7.2 0-13.952 2.78-19.016 7.844L7.844 226.914C2.76 231.998-.02 238.77 0 245.974c-.02 7.244 2.76 14.02 7.844 19.096l177.412 177.412c5.064 5.06 11.812 7.844 19.016 7.844 7.196 0 13.944-2.788 19.008-7.844l16.104-16.112c5.068-5.056 7.848-11.808 7.848-19.008 0-7.196-2.78-13.592-7.848-18.652L134.72 284.406h329.992c14.828 0 27.288-12.78 27.288-27.6v-22.788c0-14.82-12.828-26.6-27.656-26.6z"></path></svg><svg viewBox="0 0 492.004 492.004" width="492.004" height="492.004" id="arrow-conner-right" y="492"><path d="M484.14 226.886L306.46 49.202c-5.072-5.072-11.832-7.856-19.04-7.856-7.216 0-13.972 2.788-19.044 7.856l-16.132 16.136c-5.068 5.064-7.86 11.828-7.86 19.04 0 7.208 2.792 14.2 7.86 19.264L355.9 207.526H26.58C11.732 207.526 0 219.15 0 234.002v22.812c0 14.852 11.732 27.648 26.58 27.648h330.496L252.248 388.926c-5.068 5.072-7.86 11.652-7.86 18.864 0 7.204 2.792 13.88 7.86 18.948l16.132 16.084c5.072 5.072 11.828 7.836 19.044 7.836 7.208 0 13.968-2.8 19.04-7.872l177.68-177.68c5.084-5.088 7.88-11.88 7.86-19.1.016-7.244-2.776-14.04-7.864-19.12z"></path></svg><svg width="24" height="24" viewBox="0 0 24 24" id="arrow-down" y="985"><path d="M5.692 8.29A.99.99 0 1 0 4.29 9.695l7.01 7.015a.99.99 0 0 0 1.4 0l7.01-7.015a.993.993 0 0 0-1.402-1.403L12 14.605 5.692 8.29z"></path></svg><svg width="24" height="24" viewBox="0 0 24 24" id="arrow-left" y="1009"><path d="M15.71 5.692a.99.99 0 1 0-1.404-1.402L7.291 11.3a.99.99 0 0 0 0 1.4l7.015 7.01a.993.993 0 0 0 1.403-1.402L9.395 12l6.314-6.308z"></path></svg><svg width="24" height="24" viewBox="0 0 24 24" id="arrow-right" y="1033"><path d="M8.29 18.308a.99.99 0 1 0 1.404 1.402l7.015-7.01a.99.99 0 0 0 0-1.4L9.694 4.29A.993.993 0 0 0 8.29 5.692L14.605 12 8.29 18.308z"></path></svg><svg width="24" height="24" viewBox="0 0 24 24" id="arrow-up" y="1057"><path d="M5.692 15.71a.99.99 0 1 1-1.402-1.404l7.01-7.015a.99.99 0 0 1 1.4 0l7.01 7.015a.993.993 0 0 1-1.402 1.403L12 9.395 5.692 15.71z"></path></svg><svg viewBox="0 0 477.867 477.867" width="477.867" height="477.867" id="calendar" y="1081"><path d="M426.667 51.2h-51.2V17.067C375.467 7.641 367.826 0 358.4 0s-17.067 7.641-17.067 17.067V51.2h-204.8V17.067C136.533 7.641 128.892 0 119.467 0S102.4 7.641 102.4 17.067V51.2H51.2C22.923 51.2 0 74.123 0 102.4v324.267c0 28.277 22.923 51.2 51.2 51.2h375.467c28.277 0 51.2-22.923 51.2-51.2V102.4c0-28.277-22.923-51.2-51.2-51.2zm17.066 375.467c0 9.426-7.641 17.067-17.067 17.067H51.2c-9.426 0-17.067-7.641-17.067-17.067V204.8h409.6v221.867zm0-256h-409.6V102.4c0-9.426 7.641-17.067 17.067-17.067h51.2v34.133c0 9.426 7.641 17.067 17.067 17.067s17.067-7.641 17.067-17.067V85.333h204.8v34.133c0 9.426 7.641 17.067 17.067 17.067s17.067-7.641 17.067-17.067V85.333h51.2c9.426 0 17.067 7.641 17.067 17.067v68.267z"></path><path d="M136.533 238.933H102.4c-9.426 0-17.067 7.641-17.067 17.067s7.641 17.067 17.067 17.067h34.133c9.426 0 17.067-7.641 17.067-17.067s-7.641-17.067-17.067-17.067zm119.467 0h-34.133c-9.426 0-17.067 7.641-17.067 17.067s7.641 17.067 17.067 17.067H256c9.426 0 17.067-7.641 17.067-17.067s-7.641-17.067-17.067-17.067zm119.467 0h-34.133c-9.426 0-17.067 7.641-17.067 17.067s7.641 17.067 17.067 17.067h34.133c9.426 0 17.067-7.641 17.067-17.067-.001-9.426-7.642-17.067-17.067-17.067zM136.533 307.2H102.4c-9.426 0-17.067 7.641-17.067 17.067s7.641 17.067 17.067 17.067h34.133c9.426 0 17.067-7.641 17.067-17.067s-7.641-17.067-17.067-17.067zm119.467 0h-34.133c-9.426 0-17.067 7.641-17.067 17.067s7.641 17.067 17.067 17.067H256c9.426 0 17.067-7.641 17.067-17.067S265.426 307.2 256 307.2zm119.467 0h-34.133c-9.426 0-17.067 7.641-17.067 17.067s7.641 17.067 17.067 17.067h34.133c9.426 0 17.067-7.641 17.067-17.067-.001-9.426-7.642-17.067-17.067-17.067zm-238.934 68.267H102.4c-9.426 0-17.067 7.641-17.067 17.067S92.974 409.6 102.4 409.6h34.133c9.426 0 17.067-7.641 17.067-17.067s-7.641-17.066-17.067-17.066zm119.467 0h-34.133c-9.426 0-17.067 7.641-17.067 17.067s7.641 17.067 17.067 17.067H256c9.426 0 17.067-7.641 17.067-17.067s-7.641-17.067-17.067-17.067zm119.467 0h-34.133c-9.426 0-17.067 7.641-17.067 17.067s7.641 17.067 17.067 17.067h34.133c9.426 0 17.067-7.641 17.067-17.067s-7.642-17.067-17.067-17.067z"></path></svg><svg viewBox="0 0 512 512" width="512" height="512" id="cancel" y="1559"><path d="M437.016 74.984c-99.979-99.979-262.075-99.979-362.033.002-99.978 99.978-99.978 262.073.004 362.031 99.954 99.978 262.05 99.978 362.029-.002 99.979-99.956 99.979-262.051 0-362.031zm-30.168 331.86c-83.318 83.318-218.396 83.318-301.691.004-83.318-83.299-83.318-218.377-.002-301.693 83.297-83.317 218.375-83.317 301.691 0s83.316 218.394.002 301.689z"></path><path d="M361.592 150.408c-8.331-8.331-21.839-8.331-30.17 0l-75.425 75.425-75.425-75.425c-8.331-8.331-21.839-8.331-30.17 0s-8.331 21.839 0 30.17l75.425 75.425L150.43 331.4c-8.331 8.331-8.331 21.839 0 30.17 8.331 8.331 21.839 8.331 30.17 0l75.397-75.397 75.419 75.419c8.331 8.331 21.839 8.331 30.17 0 8.331-8.331 8.331-21.839 0-30.17l-75.419-75.419 75.425-75.425c8.331-8.331 8.331-21.838 0-30.17z"></path></svg><svg width="33" height="23" viewBox="0 0 33 23" id="card" y="2071"><defs><path id="a" d="M468 1286.6v2.3h-30v-2.3c0-.85.67-1.54 1.5-1.54h27c.83 0 1.5.69 1.5 1.54zm-30 5.38h30v11.54c0 .85-.67 1.54-1.5 1.54h-27c-.83 0-1.5-.69-1.5-1.54zm10.12 8.46c0-.84-.67-1.53-1.5-1.53-.82 0-1.5.69-1.5 1.53 0-.84-.67-1.53-1.5-1.53-.82 0-1.5.69-1.5 1.53 0 .85.68 1.54 1.5 1.54.83 0 1.5-.69 1.5-1.54 0 .85.68 1.54 1.5 1.54.83 0 1.5-.69 1.5-1.54z"></path></defs><use xlink:href="#a" transform="translate(-436 -1284)"></use></svg><svg viewBox="0 0 512 512" width="512" height="512" id="cart" y="2094"><path d="M485.7 198.5c-10.7-13.4-25.3-20.8-41.1-20.8h-36.1C405.1 85.1 338 11 256 11S106.9 85.1 103.5 177.7H67.4c-15.8 0-30.4 7.4-41.1 20.8-13.5 16.8-18.4 40.2-13.3 62.7L56.3 452c6.5 28.8 28.9 49 54.4 49h290.5c25.5 0 47.9-20.1 54.4-49L499 261.2c5.1-22.5.2-45.9-13.3-62.7zM256 51.8c59.6 0 108.4 55.8 111.6 125.9H144.4c3.2-70 52-125.9 111.6-125.9zm203.2 200.3L415.9 443c-2.2 9.8-8.5 17.2-14.6 17.2H110.7c-6.1 0-12.4-7.4-14.6-17.2L52.8 252.1c-2.3-10.1-3.7-33.6 14.6-33.6h377.2c19.7 0 16.9 23.5 14.6 33.6z"></path><path d="M154.7 259.1c-11.3 0-20.4 9.1-20.4 20.4V407c0 11.3 9.1 20.4 20.4 20.4 11.3 0 20.4-9.1 20.4-20.4V279.5c.1-11.2-9.1-20.4-20.4-20.4zm98.9 0c-11.3 0-20.4 9.1-20.4 20.4V407c0 11.3 9.1 20.4 20.4 20.4 11.3 0 20.4-9.1 20.4-20.4V279.5c0-11.2-9.2-20.4-20.4-20.4zm98.8 0c-11.3 0-20.4 9.1-20.4 20.4V407c0 11.3 9.1 20.4 20.4 20.4 11.3 0 20.4-9.1 20.4-20.4V279.5c0-11.2-9.1-20.4-20.4-20.4z"></path></svg><svg width="24" height="24" viewBox="0 0 24 24" id="cat-daily" y="2606"><path d="M22.355 6.001h-5.827v-1.32C16.528 3.203 15.36 2 13.925 2h-3.85C8.64 2 7.472 3.203 7.472 4.681v1.32H1.645A.655.655 0 0 0 1 6.665V18.73C1 20.533 2.424 22 4.174 22h15.652C21.576 22 23 20.533 23 18.73V6.664A.655.655 0 0 0 22.355 6zm-8.893 8.666c0 .831-.656 1.507-1.462 1.507-.806 0-1.462-.676-1.462-1.507v-1.506h2.924v1.506zm.645-2.835H9.893a.655.655 0 0 0-.645.664v1.207C5.5 12.865 2.691 10.36 2.33 7.329h19.342c-.362 3.03-3.171 5.536-6.92 6.374v-1.206a.655.655 0 0 0-.644-.665zm-5.346-7.15c0-.747.59-1.354 1.314-1.354h3.85c.724 0 1.314.607 1.314 1.353v1.32H8.76v-1.32zm12.95 14.047c0 1.072-.846 1.943-1.885 1.943H4.174c-1.04 0-1.885-.872-1.885-1.943v-7.975a9.2 9.2 0 0 0 2.002 2.1c1.404 1.086 3.119 1.84 4.985 2.212.189 1.375 1.338 2.436 2.724 2.436 1.386 0 2.535-1.061 2.724-2.436 1.866-.372 3.58-1.126 4.985-2.211a9.2 9.2 0 0 0 2.002-2.101v7.975z"></path></svg><svg width="24" height="24" viewBox="0 0 24 24" id="chat" y="2630"><path d="M20.957 8.578H18.6V4.513C18.6 3.127 17.553 2 16.267 2H3.334C2.047 2 1 3.127 1 4.513v7.607c0 1.385 1.047 2.512 2.334 2.512h1.699v2.63c0 .32.179.609.453.73a.685.685 0 0 0 .281.061c.191 0 .38-.08.52-.232l2.045-2.202v1.383c0 1.213.917 2.2 2.044 2.2h5.686l2.384 2.566a.708.708 0 0 0 .52.232c.095 0 .19-.02.28-.06a.793.793 0 0 0 .454-.73V19.2h1.257C22.083 19.2 23 18.214 23 17v-6.223c0-1.213-.917-2.2-2.043-2.2zm-15.19 4.473H3.334c-.477 0-.865-.418-.865-.931V4.513c0-.514.388-.932.865-.932h12.932c.477 0 .866.418.866.932v7.607c0 .513-.389.931-.866.931H8.945a.71.71 0 0 0-.52.232l-1.923 2.07v-1.511c0-.437-.33-.79-.735-.79zm15.764 3.95c0 .342-.258.62-.574.62h-1.991c-.406 0-.735.353-.735.79v.89l-1.346-1.45a.709.709 0 0 0-.519-.23h-5.99c-.317 0-.575-.278-.575-.62v-2.369h6.465c1.287 0 2.335-1.127 2.335-2.512v-1.96h2.356c.316 0 .574.277.574.618v6.224z"></path></svg><svg width="100" height="100" viewBox="0 0 100 100" fill="none" id="check-step--color" y="2654"><path d="M87.087 36.44h-64.82v21.435h64.82V36.44z" fill="#C4C5CC"></path><path fill-rule="evenodd" clip-rule="evenodd" d="M34.79 7.895h39.768c8.347 0 15.177 6.83 15.177 15.176V71.54c0 8.347-6.83 15.176-15.177 15.176H34.79c-8.347 0-15.176-6.829-15.176-15.176V23.07c0-8.347 6.83-15.176 15.176-15.176zM22.273 33.786h64.814v-10.72c0-6.887-5.637-12.524-12.523-12.524H34.796c-6.886 0-12.523 5.637-12.523 12.524v10.72zm64.814 2.654h-64.82v21.435h64.82V36.44zm-.005 24.082H22.267v11.012c0 6.887 5.637 12.524 12.523 12.524h39.768c6.886 0 12.523-5.637 12.523-12.524V60.522zm-53.77-38.86h42.724c.73 0 1.323.6 1.323 1.324 0 .73-.599 1.323-1.323 1.323H33.313c-.73 0-1.324-.599-1.324-1.323 0-.73.599-1.324 1.324-1.324zm30.85 23.21a1.33 1.33 0 0 0-1.87 0h-.007a1.33 1.33 0 0 0 0 1.872l4.919 4.918.022.023.023.022.023.023.028.023.029.023.029.023.028.017.029.017.028.017.029.017.028.017.029.017.028.017.029.012.028.011.029.012.028.011.029.012.028.011.029.011.028.012.029.006.029.005.028.006.029.006.034.005.034.006.034.006h.274l.034-.006.035-.006.034-.005.034-.006.029-.006.028-.005.029-.006.028-.012.029-.011.028-.011.029-.012.028-.011.029-.012.028-.011.029-.011.028-.018.029-.017.028-.017.029-.017.029-.017.028-.017.029-.017.028-.023.029-.023.028-.023.023-.023.023-.022.023-.023 7.89-7.891a1.33 1.33 0 0 0 0-1.871 1.33 1.33 0 0 0-1.871 0l-6.955 6.955-3.983-3.983zM33.312 71.18h42.724c.73 0 1.323.6 1.323 1.324 0 .73-.599 1.324-1.323 1.324H33.313c-.73 0-1.324-.6-1.324-1.324 0-.73.599-1.324 1.324-1.324zM53.35 46.116H33.313c-.725 0-1.324.593-1.324 1.324 0 .724.593 1.323 1.324 1.323H53.35c.725 0 1.324-.593 1.324-1.323 0-.725-.593-1.324-1.324-1.324z" fill="#242629"></path><path d="M27.47 92.105c10.812 0 19.576-8.764 19.576-19.575 0-10.812-8.764-19.576-19.576-19.576-10.811 0-19.575 8.764-19.575 19.576 0 10.811 8.764 19.575 19.575 19.575z" fill="#242629"></path><path d="M27.47 89.452c9.346 0 16.923-7.576 16.923-16.922S36.816 55.607 27.47 55.607c-9.346 0-16.922 7.577-16.922 16.923 0 9.346 7.576 16.922 16.922 16.922z" fill="#C4C5CC"></path><path d="M26.797 66.26l-3.28 1.18.701 2.454 2.22-.605v9.505h2.864V66.26h-2.505z" fill="#242629"></path></svg><svg width="24" height="24" viewBox="0 0 24 24" id="check-wave" y="2754"><path fill-rule="evenodd" clip-rule="evenodd" d="M20.845 9.303c.054.156.482.485.74.682l.001.001c.63.485 1.414 1.089 1.414 2.01 0 .93-.796 1.553-1.436 2.052l-.013.01c-.253.199-.663.52-.716.666-.05.155.087.67.17.979v.002c.212.791.452 1.69-.107 2.416-.554.72-1.519.783-2.37.838h-.005c-.342.022-.914.058-1.059.159-.144.1-.354.59-.484.892l-.007.015-.002.004c-.32.749-.682 1.594-1.57 1.88-.9.293-1.748-.219-2.43-.63l-.005-.003c-.307-.186-.773-.466-.966-.466-.197 0-.662.278-.975.466l-.01.006-.011.006c-.566.338-1.194.712-1.873.712-.172 0-.35-.024-.529-.08-.892-.273-1.257-1.127-1.579-1.88v-.002c-.13-.304-.347-.81-.49-.909-.14-.096-.674-.131-1.013-.154l-.033-.002h-.002c-.811-.051-1.819-.116-2.392-.833-.588-.739-.33-1.678-.123-2.433l.001-.003c.085-.307.227-.822.173-.98-.056-.16-.466-.484-.738-.697C1.78 13.534 1 12.92 1 11.996c0-.93.794-1.55 1.433-2.05l.002-.001.005-.004c.253-.198.671-.524.726-.672.05-.154-.086-.66-.17-.973l-.005-.017c-.213-.785-.454-1.674.084-2.395.547-.733 1.52-.795 2.378-.85h.002c.343-.022.919-.058 1.063-.16.146-.1.358-.597.488-.9l.003-.006.003-.008c.32-.746.682-1.59 1.57-1.876.904-.29 1.762.233 2.448.656l.005.003c.311.191.776.476.965.476.195 0 .66-.276.974-.464l.012-.008c.714-.428 1.525-.914 2.412-.64.892.273 1.257 1.127 1.578 1.88.13.305.347.812.492.911.14.096.682.132 1.022.155l.024.001h.002c.814.052 1.826.116 2.39.843.565.733.313 1.663.11 2.411v.002c-.084.31-.225.831-.17.993zm-1.734 4.877c.216-.616.766-1.046 1.298-1.46l.008-.006c.25-.196.698-.548.762-.714-.066-.156-.48-.476-.72-.662l-.02-.014c-.516-.397-1.103-.848-1.322-1.49-.217-.636-.029-1.333.137-1.949l.001-.003c.086-.312.227-.835.171-.987-.107-.062-.677-.098-1.023-.12l-.01-.002c-.7-.043-1.422-.09-1.989-.477-.57-.388-.846-1.035-1.113-1.66l-.003-.006c-.13-.302-.343-.801-.482-.896-.1.02-.563.299-.844.467l-.005.003c-.577.346-1.232.738-1.957.738-.728 0-1.382-.402-1.959-.757l-.005-.003c-.28-.172-.742-.456-.91-.458-.083.076-.302.586-.431.892-.265.618-.538 1.257-1.103 1.65-.57.395-1.305.442-2.015.487-.339.021-.904.058-1.043.152-.011.1.128.612.214.93l.004.016.002.006c.175.653.357 1.328.135 1.957-.216.616-.766 1.046-1.298 1.46-.256.2-.734.573-.775.735.04.132.502.497.752.694h.001c.51.402 1.088.858 1.305 1.492.215.634.026 1.328-.142 1.94l-.002.006c-.086.31-.229.832-.173.984.111.071.723.11 1.051.13.7.045 1.421.09 1.988.477.57.389.846 1.035 1.113 1.662l.006.013c.13.303.34.794.479.889.094-.02.518-.273.8-.442l.05-.029.004-.003c.577-.345 1.23-.736 1.952-.736.723 0 1.37.39 1.94.733l.005.004.023.013c.279.169.722.435.883.435.09-.077.308-.588.437-.893.264-.619.538-1.258 1.103-1.65.569-.396 1.333-.445 2.007-.488h.004c.34-.02.91-.057 1.049-.156.019-.108-.12-.629-.205-.947l-.002-.009-.001-.002c-.173-.648-.353-1.32-.132-1.946zm-4.326-5.32a.942.942 0 0 1 1.28-.109.83.83 0 0 1 .114 1.213l-4.691 5.315a.925.925 0 0 1-.658.307c-.012.002-.026.002-.039.002a.93.93 0 0 1-.643-.252l-2.427-2.3a.829.829 0 0 1 0-1.218.944.944 0 0 1 1.286 0l1.724 1.633 4.054-4.592z"></path></svg><svg width="24" height="24" viewBox="0 0 24 24" id="checked" y="2778"><path d="M8.95 17.607a1 1 0 0 0 1.414 0l9.9-9.9a1 1 0 1 0-1.415-1.414l-9.192 9.192-4.95-4.95a1 1 0 0 0-1.414 1.415l5.657 5.657z"></path></svg><svg height="512" viewBox="0 0 512 512" width="512" id="clip" y="2802"><path d="M226 512c-49.626 0-90-40.374-90-90V120C136 53.832 189.832 0 256 0s120 53.832 120 120v302h-30V120c0-49.626-40.374-90-90-90s-90 40.374-90 90v302c0 33.084 26.916 60 60 60s60-26.916 60-60V180c0-16.542-13.458-30-30-30s-30 13.458-30 30v242h-30V180c0-33.084 26.916-60 60-60s60 26.916 60 60v242c0 49.626-40.374 90-90 90z"></path></svg><svg viewBox="0 0 512 512" width="512" height="512" id="clock" y="3314"><path d="M256 0C114.845 0 0 114.839 0 256s114.845 256 256 256c141.161 0 256-114.839 256-256S397.155 0 256 0zm0 474.628C135.45 474.628 37.372 376.55 37.372 256S135.45 37.372 256 37.372s218.628 98.077 218.628 218.622c0 120.556-98.078 218.634-218.628 218.634z"></path><path d="M343.202 256h-80.973V143.883c0-10.321-8.365-18.686-18.686-18.686s-18.686 8.365-18.686 18.686v130.803c0 10.321 8.365 18.686 18.686 18.686h99.659c10.321 0 18.686-8.365 18.686-18.686S353.523 256 343.202 256z"></path></svg><svg width="24" height="24" viewBox="0 0 24 24" id="close" y="3826"><path d="M19.685 5.836a1.076 1.076 0 1 0-1.521-1.52L12 10.478 5.836 4.315a1.076 1.076 0 1 0-1.52 1.521L10.478 12l-6.164 6.164a1.076 1.076 0 0 0 1.521 1.52L12 13.522l6.164 6.164a1.076 1.076 0 1 0 1.52-1.521L13.522 12l6.164-6.164z"></path></svg><svg width="100" height="100" viewBox="0 0 100 100" fill="none" id="container--color" y="3850"><path d="M95 45.5h-3.248l-4.657-23.11A8.995 8.995 0 0 0 78.241 15H21.76a8.995 8.995 0 0 0-8.854 7.39L8.248 45.5H5A1.5 1.5 0 0 0 3.5 47v6A1.5 1.5 0 0 0 5 54.5h3.248l4.657 23.11A8.996 8.996 0 0 0 21.759 85H78.24a8.995 8.995 0 0 0 8.854-7.39l4.657-23.11H95a1.5 1.5 0 0 0 1.5-1.5v-6a1.5 1.5 0 0 0-1.5-1.5zM15.856 22.927A5.997 5.997 0 0 1 21.76 18h56.48a5.998 5.998 0 0 1 5.903 4.927L88.702 45.5H11.298l4.558-22.573zm68.288 54.146A5.998 5.998 0 0 1 78.24 82H21.76a5.998 5.998 0 0 1-5.903-4.927L11.298 54.5h27.276l2.584 5.171a1.502 1.502 0 0 0 1.342.829h15a1.502 1.502 0 0 0 1.343-.829l2.583-5.171h27.276l-4.558 22.573zM41.926 54.5h16.148l-1.5 3H43.426l-1.5-3zm51.574-3h-87v-3h87v3z" fill="#242629"></path><path fill-rule="evenodd" clip-rule="evenodd" d="M82.086 80.607a5.997 5.997 0 0 0 2.058-3.534L88.702 54.5H61.426l-2.584 5.171a1.502 1.502 0 0 1-1.342.829h-15a1.502 1.502 0 0 1-1.343-.829L38.574 54.5H11.298l4.558 22.573A5.997 5.997 0 0 0 21.759 82H78.24a5.997 5.997 0 0 0 3.845-1.393zM33.5 72.75h33v-3h-33v3z" fill="#C4C5CC"></path><path d="M32 66.75a1.5 1.5 0 0 0-1.5 1.5v6a1.5 1.5 0 0 0 1.5 1.5h36a1.5 1.5 0 0 0 1.5-1.5v-6a1.5 1.5 0 0 0-1.5-1.5H32zm34.5 6h-33v-3h33v3zm-6.75-44.125h-19.5a1.5 1.5 0 1 0 0 3h19.5a1.5 1.5 0 1 0 0-3z" fill="#242629"></path></svg><svg width="100" height="100" viewBox="0 0 100 100" fill="none" id="cooking--color" y="3950"><path d="M22.916 91.667V77.083h54.167v14.584H22.917z" fill="#C4C5CC"></path><path d="M93.75 38.493c0-13.544-11.027-24.572-24.572-24.572-.288 0-.551.024-.839.024-.12 0-.216.024-.336.024h-.167l-.12-.12C63.04 8.96 56.736 6.25 50 6.25c-6.736 0-13.041 2.709-17.74 7.6l-.12.12h-.167c-.12 0-.216 0-.336-.025-.264-.024-.551-.024-.84-.024-13.52 0-24.547 11.028-24.547 24.572a24.55 24.55 0 0 0 15.127 22.678l.216.096v30.925c0 .863.695 1.558 1.558 1.558h53.698a1.58 1.58 0 0 0 1.103-.456c.288-.287.456-.695.456-1.102V61.267l.215-.096A24.55 24.55 0 0 0 93.75 38.493zm-69.041 52.14V78.44H75.29v12.195H24.71zm44.47-30.684c-.864 0-1.56.695-1.56 1.558 0 .863.696 1.558 1.56 1.558 1.845 0 3.739-.24 5.657-.695l.431-.096v13.048H24.71V62.274l.431.096c1.918.455 3.836.695 5.682.695.863 0 1.558-.695 1.558-1.558 0-.863-.695-1.558-1.558-1.558-11.842 0-21.456-9.613-21.456-21.456a21.37 21.37 0 0 1 5.682-14.527 21.336 21.336 0 0 1 13.88-6.832l.72-.072-.384.623a24.4 24.4 0 0 0-3.836 13.137c0 13.544 11.027 24.572 24.572 24.572.863 0 1.558-.695 1.558-1.558 0-.863-.695-1.559-1.558-1.559-11.843 0-21.456-9.613-21.456-21.455C28.544 18.98 38.157 9.366 50 9.366s21.456 9.614 21.456 21.456c0 .863.695 1.558 1.558 1.558.863 0 1.558-.695 1.558-1.558a24.4 24.4 0 0 0-3.836-13.137l-.383-.623.719.072c5.322.455 10.26 2.9 13.88 6.832a21.37 21.37 0 0 1 5.682 14.527c0 11.843-9.613 21.456-21.456 21.456z" fill="#242629"></path></svg><svg width="21" height="24" viewBox="0 0 21 24" id="copy" y="4050"><path d="M13.204 24H3.898C1.748 24 0 22.318 0 20.25V7.547c0-2.068 1.749-3.75 3.898-3.75h9.306c2.15 0 3.898 1.682 3.898 3.75V20.25c0 2.068-1.748 3.75-3.898 3.75zM3.898 5.672c-1.075 0-1.949.841-1.949 1.875V20.25c0 1.034.874 1.875 1.949 1.875h9.306c1.075 0 1.95-.841 1.95-1.875V7.547c0-1.034-.875-1.875-1.95-1.875H3.898zM21 17.906V3.75C21 1.682 19.252 0 17.102 0H6.285c-.538 0-.974.42-.974.938 0 .517.436.937.974.937h10.817c1.075 0 1.949.841 1.949 1.875v14.156c0 .518.436.938.975.938.538 0 .974-.42.974-.938z"></path></svg><svg width="18" height="21" viewBox="0 0 18 21" id="delete" y="4074"><g data-name="Сгруппировать 4488"><path data-name="Контур 11090" d="M16 7H2a1 1 0 0 0-1 1v9a4 4 0 0 0 4 4h8a4 4 0 0 0 4-4V8a1 1 0 0 0-1-1zm-1 10a2 2 0 0 1-2 2H5a2 2 0 0 1-2-2V9h12z"></path><path data-name="Контур 11094" d="M17 3h-4v-.714A2.288 2.288 0 0 0 10.714 0H7.286A2.288 2.288 0 0 0 5 2.286V3H1a1 1 0 0 0 0 2h16a1 1 0 0 0 0-2zM7 3v-.714A.29.29 0 0 1 7.286 2h3.428a.29.29 0 0 1 .286.286V3z"></path></g></svg><svg viewBox="0 0 512 512" width="512" height="512" id="diskette" y="4095"><path d="M438.284 0H60C26.916 0 0 26.916 0 60v392c0 33.084 26.916 60 60 60h392c33.084 0 60-26.916 60-60V73.716L438.284 0zM120 40h230v118H120V40zm272 432H120V314h272v158zm80-20c0 11.028-8.972 20-20 20h-20V274H80v198H60c-11.028 0-20-8.972-20-20V60c0-11.028 8.972-20 20-20h20v158h310V40h31.716L472 90.284V452z"></path><path d="M274 59h40v79h-40z"></path></svg><svg height="512" viewBox="0 0 512 512" width="512" id="download" y="4607"><path d="M239.029 384.97a24 24 0 0 0 33.942 0l90.509-90.509a24 24 0 0 0 0-33.941 24 24 0 0 0-33.941 0L280 310.059V48a24 24 0 0 0-48 0v262.059l-49.539-49.539a24 24 0 0 0-33.941 0 24 24 0 0 0 0 33.941z"></path><path d="M464 232a24 24 0 0 0-24 24v184H72V256a24 24 0 0 0-48 0v192a40 40 0 0 0 40 40h384a40 40 0 0 0 40-40V256a24 24 0 0 0-24-24z"></path></svg><svg width="24" height="24" viewBox="0 0 24 24" id="edit" y="5119"><path fill-rule="evenodd" clip-rule="evenodd" d="M19.177 2a3.95 3.95 0 0 1 2.682 1.1 3.706 3.706 0 0 1 .001 5.348l-6.897 6.681a5.414 5.414 0 0 1-3.782 1.515H8.896c-.564 0-1.02-.441-1.02-.988v-2.213c0-1.382.555-2.682 1.563-3.662l6.906-6.69A3.932 3.932 0 0 1 19.177 2zm-7.996 12.668c.883 0 1.715-.333 2.34-.937l4.552-4.409-2.638-2.555-4.553 4.41a3.142 3.142 0 0 0-.966 2.266v1.225h1.265zm8.335-6.743l.9-.873a1.77 1.77 0 0 0 0-2.555 1.91 1.91 0 0 0-2.637 0l-.901.873 2.638 2.555zm-2.214 8.007c0-.547.456-.988 1.02-.988.564 0 1.02.441 1.02.988v3.104c0 1.635-1.373 2.964-3.06 2.964H5.06C3.373 22 2 20.67 2 19.036V6.19c0-1.635 1.373-2.965 3.06-2.965h5.927c.565 0 1.02.442 1.02.988 0 .547-.455.989-1.02.989H5.06c-.563 0-1.02.442-1.02.988v12.846c0 .545.457.988 1.02.988h11.222c.563 0 1.02-.443 1.02-.988v-3.104z"></path></svg><svg width="24" height="24" viewBox="0 0 24 24" id="exit" y="5143"><path fill-rule="evenodd" clip-rule="evenodd" d="M15.333 14.5a.833.833 0 0 1 1.667 0v5c0 .46-.373.833-.834.833H12v.833c0 .526-.481.92-.997.817L2.67 20.317A.833.833 0 0 1 2 19.5V2.865a.892.892 0 0 1 .009-.149l.001-.009a.85.85 0 0 1 .011-.06l.002-.006a.798.798 0 0 1 .81-.64h13.334a.832.832 0 0 1 .833.832v5a.833.833 0 0 1-1.667 0V3.667H8.511l2.895.868c.353.106.594.43.594.798v13.333h3.333V14.5zM3.667 18.817l6.666 1.333V5.954l-6.666-2v14.863zm18.158-7.143l-.015.02a.827.827 0 0 1-.055.06v.001l-2.5 2.5a.833.833 0 0 1-1.179-1.178l1.077-1.078H14.5a.833.833 0 1 1 0-1.666h4.654l-1.077-1.078a.833.833 0 0 1 1.178-1.178l2.5 2.5.056.06.015.02a.366.366 0 0 0 .014.02.529.529 0 0 1 .02.027l.016.026.005.01.006.01.014.023a.497.497 0 0 1 .018.038l.017.036.01.027.004.01c0 .004.002.007.003.01l.01.03.008.028.002.01.003.01a.53.53 0 0 1 .007.031l.007.044.005.037a.837.837 0 0 1 0 .164l-.003.024-.002.013-.002.01a.533.533 0 0 1-.005.034l-.007.03-.003.011-.002.01a.458.458 0 0 1-.008.028l-.01.03-.003.01-.014.037a.57.57 0 0 1-.021.046.484.484 0 0 1-.014.028l-.014.024-.006.01a1.104 1.104 0 0 0-.005.009l-.017.027-.019.026-.007.01-.007.01z"></path></svg><svg width="48" height="48" viewBox="0 0 48 48" id="figure" y="5167"><path fill-rule="evenodd" clip-rule="evenodd" d="M38.744 21.76a17.257 17.257 0 0 1 .667 10.927l-.33 1.33a51.566 51.566 0 0 1-4.268 11.312l-.348.671h-20.93l-.349-.671A51.57 51.57 0 0 1 8.92 34.016l-.33-1.33a17.26 17.26 0 0 1-.04-8.79c.189-.726.426-1.445.707-2.136l2.766-6.81c.78-1.919 1.192-8.348 1.065-10.692L12.965 2h22.07l-.122 2.258c-.127 2.344.286 8.773 1.065 10.692l2.766 6.81zM15.552 4.578c.061 2.662-.312 9.012-1.276 11.385l-1.127 2.775c6.72 2.8 14.983 2.8 21.702 0l-1.127-2.775c-.964-2.373-1.337-8.723-1.276-11.385H15.552zm-.556 38.844h7.778v-7.565c-.899-1.959-2.975-4.705-7.765-7.114a31.247 31.247 0 0 0-4.5-1.826 14.57 14.57 0 0 0 .442 5.08l.007.025.333 1.342a48.95 48.95 0 0 0 3.705 10.058zm-3.485-20.65a14.4 14.4 0 0 0-.541 1.595c2.771.847 9.573 3.375 13.03 8.605 3.457-5.23 10.259-7.758 13.03-8.605a14.357 14.357 0 0 0-.54-1.594l-.676-1.663C32.207 22.624 28.15 23.42 24 23.42s-8.207-.796-11.814-2.31l-.675 1.663zm25.198 10.592l.34-1.367a14.55 14.55 0 0 0 .442-5.077c-2.89.921-9.84 3.63-12.265 8.937v7.565h7.778a48.957 48.957 0 0 0 3.705-10.058zM24 13.178c-.677 0-1.226.55-1.226 1.226v.127a1.226 1.226 0 0 0 2.452 0v-.127c0-.677-.549-1.226-1.226-1.226z"></path></svg><svg width="24" height="24" viewBox="0 0 24 24" id="filter" y="5215"><path fill-rule="evenodd" clip-rule="evenodd" d="M21.167 4.174h-2.22C18.587 2.92 17.484 2 16.168 2c-1.317 0-2.42.92-2.781 2.174H2.833c-.46 0-.833.39-.833.87s.373.869.833.869h10.553c.362 1.253 1.464 2.174 2.78 2.174 1.317 0 2.42-.92 2.782-2.174h2.219c.46 0 .833-.39.833-.87s-.372-.87-.833-.87zm-5 2.174c-.69 0-1.25-.585-1.25-1.305 0-.719.56-1.304 1.25-1.304.689 0 1.25.585 1.25 1.304 0 .72-.561 1.305-1.25 1.305zm5 11.739h-2.22c-.36-1.253-1.464-2.174-2.78-2.174-1.317 0-2.42.92-2.781 2.174H2.833c-.46 0-.833.39-.833.87s.373.87.833.87h10.553c.36 1.252 1.464 2.173 2.78 2.173 1.317 0 2.42-.92 2.782-2.174h2.219c.46 0 .833-.39.833-.87s-.372-.87-.833-.87zm-5 2.174c-.69 0-1.25-.585-1.25-1.305 0-.719.56-1.304 1.25-1.304.689 0 1.25.585 1.25 1.304 0 .72-.561 1.305-1.25 1.305zm-5.553-9.13h10.553c.46 0 .833.389.833.869s-.372.87-.833.87H10.614c-.362 1.253-1.464 2.173-2.78 2.173-1.317 0-2.42-.92-2.781-2.173h-2.22c-.46 0-.833-.39-.833-.87s.373-.87.833-.87h2.22c.361-1.253 1.464-2.174 2.78-2.174 1.317 0 2.42.921 2.781 2.174zM6.584 12c0 .719.56 1.304 1.25 1.304.689 0 1.25-.585 1.25-1.304 0-.72-.561-1.304-1.25-1.304-.69 0-1.25.585-1.25 1.304z"></path></svg><svg width="48" height="48" viewBox="0 0 48 48" id="fit" y="5239"><path fill-rule="evenodd" clip-rule="evenodd" d="M39.469 46h-12.89a1.29 1.29 0 0 1-1.29-1.29v-5.948a8.339 8.339 0 0 1-2.492.013v5.936A1.29 1.29 0 0 1 21.508 46H8.55a1.29 1.29 0 0 1-1.223-.882 29.42 29.42 0 0 1-.707-16.127c.698-2.93 2.067-5.641 3.47-8.418 1.211-2.398 2.448-4.845 3.298-7.525.89-3.066.594-6.327-.835-9.182A1.289 1.289 0 0 1 13.707 2h20.607a1.29 1.29 0 0 1 1.153 1.866 12.545 12.545 0 0 0-.685 9.64c.84 2.523 2.008 4.828 3.155 7.09 1.397 2.757 2.762 5.45 3.463 8.395a29.419 29.419 0 0 1-.707 16.127A1.29 1.29 0 0 1 39.47 46zm-11.602-2.578h10.656a26.82 26.82 0 0 0 .937-10.554c-4.243-.39-7.96 1.077-11.593 4.564v5.99zM15.851 13.808v.003c-.913 2.882-2.204 5.438-3.45 7.905-.377.747-.75 1.486-1.107 2.224.48.198 1.037.491 1.68.83 2.358 1.243 5.877 3.097 11.026 3.097 5.154 0 8.679-1.858 11.04-3.103.644-.34 1.201-.633 1.681-.831-.354-.73-.724-1.459-1.097-2.195-1.175-2.32-2.39-4.716-3.29-7.416a15.097 15.097 0 0 1 .04-9.745h-16.73a15.18 15.18 0 0 1 .215 9.206l-.004.012-.004.013zM8.56 32.867a26.823 26.823 0 0 0 .936 10.555H20.22v-5.906c-3.655-3.541-7.39-5.035-11.66-4.65zm13.758 3.03c.232.184.488.388 1.682.388.957 0 1.545-.212 1.673-.312 3.812-3.81 8.068-5.997 13.367-5.719a27.141 27.141 0 0 0-.149-.666c-.267-1.12-.649-2.214-1.102-3.307-.445.182-.983.464-1.62.799-2.465 1.294-6.41 3.365-12.169 3.365-5.764 0-9.712-2.074-12.166-3.364-.633-.332-1.166-.612-1.606-.791-.454 1.094-.835 2.187-1.1 3.298a30.35 30.35 0 0 0-.148.665c5.188-.266 9.37 1.83 13.113 5.49.09.045.156.099.225.154zM25.29 24a1.29 1.29 0 1 1-2.578 0 1.29 1.29 0 0 1 2.578 0zm-22-11.688h2.13l-.377.378a1.289 1.289 0 1 0 1.823 1.823l2.578-2.578a1.292 1.292 0 0 0 0-1.823L6.865 7.534a1.289 1.289 0 1 0-1.823 1.823l.377.377H3.29a1.29 1.29 0 0 0 0 2.579zm39.67-4.778a1.29 1.29 0 0 1 0 1.823l-.378.377h2.13a1.289 1.289 0 0 1 0 2.579h-2.13l.377.377a1.29 1.29 0 0 1-1.823 1.823l-2.578-2.578a1.291 1.291 0 0 1 0-1.823l2.578-2.578a1.289 1.289 0 0 1 1.823 0z"></path></svg><svg width="100" height="100" viewBox="0 0 100 100" fill="none" id="flour--color" y="5287"><path fill-rule="evenodd" clip-rule="evenodd" d="M46.125 73.541H43a7.913 7.913 0 0 1-7.917-7.916V62.5h3.125a7.913 7.913 0 0 1 7.917 7.916v3.125zm6.458-9.583L50.5 66.041l-2.083-2.083a7.922 7.922 0 0 1 0-11.25l2.083-2.083 2.083 2.083a7.922 7.922 0 0 1 0 11.25zm13.334 1.458A7.913 7.913 0 0 1 58 73.333h-3.125v-3.125a7.913 7.913 0 0 1 7.917-7.917h3.125v3.125zm-17.5-56.458c-11.667 1.458-19.584 11.458-22.5 15.833l-.417.625h46.042l-.417-.625c-2.917-4.166-10.833-14.375-22.708-15.833z" fill="#C4C5CC"></path><path fill-rule="evenodd" clip-rule="evenodd" d="M62.792 59.792h4.375c.833 0 1.25.625 1.041 1.458v4.375c0 5.833-4.791 10.625-10.625 10.625h-4.375c-.625 0-1.25-.417-1.25-1.25v-5.833l.209-1.25-1.042 1.041c-.417.417-1.458.417-1.875 0l-1.042-1.041.209 1.25v5.625c0 .625-.417 1.25-1.25 1.25h-4.375c-5.834 0-10.625-4.792-10.625-10.625v-4.375c0-.625.416-1.25 1.25-1.25h4.375a9.67 9.67 0 0 1 4.791 1.25l.834.416-.209-.833c-.625-3.542.417-7.292 2.917-9.792l3.125-3.125c.417-.625 1.458-.416 1.875 0l3.125 3.125c2.708 2.5 3.75 6.25 2.917 9.792l-.209.833.834-.416c1.666-.834 3.333-1.25 5-1.25zm-16.667 13.75H43a7.913 7.913 0 0 1-7.917-7.917V62.5h3.125a7.913 7.913 0 0 1 7.917 7.917v3.125zm6.458-9.584L50.5 66.042l-2.083-2.084a7.922 7.922 0 0 1 0-11.25l2.083-2.083 2.083 2.083a7.922 7.922 0 0 1 0 11.25zm13.334 1.459A7.913 7.913 0 0 1 58 73.333h-3.125v-3.125a7.913 7.913 0 0 1 7.917-7.916h3.125v3.125z" fill="#242629"></path><path fill-rule="evenodd" clip-rule="evenodd" d="M86.542 79.375l5 5c1.25 1.25 1.666 2.917.625 4.375-.625 1.458-2.292 2.292-3.959 2.083l-9.375-1.25L76.75 90c-18.75 3.75-38.125 3.75-56.875-.417h-.208l-8.959 1.25c-1.666.209-3.125-.625-3.958-2.083-.833-1.458-.625-3.125.625-4.375l5-5v-.625l3.75-39.167h-.417c-2.5-.208-4.375-1.875-4.375-3.75v-.416c0-4.584 4.792-8.959 10.834-9.792h.208v-.208c2.5-3.959 11.25-17.292 26.042-19.167h.416c14.33 1.767 23.11 14.815 25.646 18.583.156.231.288.427.396.584v.208h.208c5.834 1.042 10.417 5.208 10.417 9.792v.416c0 1.667-1.25 3.125-3.333 3.542h-.417l4.792 39.375v.625zM48.417 8.958c-11.667 1.459-19.584 11.459-22.5 15.834l-.417.625h46.042l-.417-.625c-2.917-4.167-10.833-14.375-22.708-15.834zM14.042 36.042c.208.208.833.833 1.875.833l12.916 1.875c4.167.625 11.25 1.042 18.959 1.042h.416c7.5 0 14.375-.417 18.542-1.042l14.792-2.083c.073-.073.197-.147.337-.229.258-.152.57-.334.704-.605v-.416c0-3.334-4.375-7.292-10.208-7.292H24.25c-5.625 0-10.208 3.958-10.208 7.292v.625zm37.916-21.875c-.833 0-1.666.625-1.666 1.666 0 .834.625 1.667 1.666 1.667.834 0 1.667-.625 1.667-1.667 0-1.041-.625-1.666-1.667-1.666zM58 18.125c-.833 0-1.667.625-1.667 1.667 0 .833.625 1.666 1.667 1.666s1.667-.625 1.667-1.666c-.209-1.042-.834-1.667-1.667-1.667zm-13.542 1.667c0-1.042.834-1.667 1.667-1.667.833 0 1.458.625 1.667 1.667 0 1.041-.625 1.666-1.667 1.666s-1.667-.833-1.667-1.666zm45.625 67.916c-.208.417-.625.625-1.25.625l-10-1.458h-.416l-2.084.625c-8.958 1.875-18.125 2.917-27.083 2.917-9.583 0-19.167-1.042-28.75-3.125-.208 0-.208 0-.417-.209h-.208l-9.792 1.459c-.625 0-1.041-.209-1.25-.625-.208-.417-.208-1.042.209-1.459l5.833-5.833v-1.458L18.625 40l9.792 1.458c.312 0 .625.052.937.105.313.052.625.104.938.104.312 0 .677.052 1.041.104.365.052.73.104 1.042.104 4.375.417 10 .625 15.833.625 5.375.139 19.067-.125 30.834-2.292v.417l4.791 38.958v1.25l5.834 5.834c.416 0 .625.416.416 1.041z" fill="#242629"></path></svg><svg width="100" height="100" viewBox="0 0 100 100" fill="none" id="food--color" y="5387"><path fill-rule="evenodd" clip-rule="evenodd" d="M49.914 2.632c26.113 0 47.282 21.168 47.282 47.282 0 26.113-21.169 47.282-47.282 47.282-26.114 0-47.282-21.169-47.282-47.282C2.632 23.8 23.8 2.632 49.914 2.632zm14.27 39.777c.764-2.962 1.165-6.235.965-9.442 4.637 4.172 7.553 10.22 7.553 16.947 0 1.819-.214 3.588-.617 5.284-2 .713-3.896 1.661-5.535 2.69-4.6 2.894-9.037 7.562-9.617 13.205a11.99 11.99 0 0 0-.041.518 22.71 22.71 0 0 1-5.551 1.045c.54-1.702.852-3.551 1.171-5.435.703-4.149 1.434-8.467 4.676-11.755 3.432-3.486 5.783-8.355 6.996-13.057zM57.08 74.49c-2.22.646-4.564 1-6.988 1.017a9.786 9.786 0 0 1-1.129 1.532c-2.711 3.007-6.731 3.375-10.527 2.935-5.021-.58-9.583-2.48-13.148-6.12-7.456-7.608-8.043-20.08-6.784-30.036 2.37-18.733 10.663-27.342 30.057-27.145h-.004c5.037.053 9.724 1.71 12.91 5.76 1.504 1.913 2.493 4.126 3.073 6.472a25.74 25.74 0 0 1 2.309 1.816 5.615 5.615 0 0 1 10.994 1.747 8.343 8.343 0 1 1-2.422 15.309 25.968 25.968 0 0 1-.291 6.55c2.14-.457 4.308-.578 6.333-.194l2.142.406.137 2.177-.004-.004c.292 4.691-1.669 9.92-4.126 13.846-4.168 6.655-11.71 12.503-19.822 8.904l-.85-.376-.455-.807a12.446 12.446 0 0 1-1.405-3.79zm17.318-17.094c2.336-.663 4.613-.875 6.537-.51.573 9.182-9.617 24.624-20.008 20.008-.63-1.116-1.006-2.239-1.163-3.351 6.985-2.916 12.402-8.837 14.634-16.147zM59.872 70.413A22.875 22.875 0 0 0 70.954 58.68c-5.247 2.424-10.064 6.825-11.082 11.734zM49.914 5.438c24.562 0 44.476 19.913 44.476 44.476 0 24.562-19.914 44.476-44.476 44.476-24.563 0-44.476-19.914-44.476-44.476 0-24.563 19.913-44.476 44.476-44.476zm5.271 48.056c9.363-9.5 11.927-33.824-6.659-34.013-18.59-.19-25.143 8.089-27.244 24.691-2.097 16.603 2.143 31.249 17.471 33.016 8.999 1.037 9.868-4.035 10.946-10.323.758-4.424 1.62-9.448 5.486-13.371zM30.79 48.62l10.83 10.83a1.405 1.405 0 0 1 0 1.983 1.405 1.405 0 0 1-1.983 0l-10.83-10.83a1.405 1.405 0 0 1 0-1.983 1.405 1.405 0 0 1 1.983 0zm13.815-21.093l10.83 10.83a1.405 1.405 0 0 1 0 1.984 1.405 1.405 0 0 1-1.983 0l-10.83-10.83a1.405 1.405 0 0 1 0-1.984 1.405 1.405 0 0 1 1.983 0zm-11.646 4.63l10.83 10.83a1.405 1.405 0 0 1 0 1.984 1.405 1.405 0 0 1-1.983 0l-10.83-10.83a1.405 1.405 0 0 1 0-1.984 1.405 1.405 0 0 1 1.983 0zm39.272-2.65a2.805 2.805 0 0 1 2.807 2.806 2.805 2.805 0 0 1-2.806 2.806 2.805 2.805 0 0 1-2.807-2.806 2.805 2.805 0 0 1 2.806-2.806zm12.993 11.1a5.538 5.538 0 0 0-5.537-5.537 5.538 5.538 0 0 0-5.537 5.537 5.538 5.538 0 0 0 5.537 5.536 5.538 5.538 0 0 0 5.537-5.536z" fill="#242629"></path><path fill-rule="evenodd" clip-rule="evenodd" d="M75.037 32.318a2.806 2.806 0 1 1-5.612 0 2.806 2.806 0 0 1 5.612 0zm4.65 13.826a5.537 5.537 0 1 0 0-11.073 5.537 5.537 0 0 0 0 11.073zm1.252 10.74c-9.08-1.725-25.989 9.41-20.008 20.009 10.39 4.615 20.58-10.827 20.008-20.008z" fill="#C4C5CC"></path></svg><svg width="100" height="100" viewBox="0 0 100 100" fill="none" id="food-step--color" y="5487"><path fill-rule="evenodd" clip-rule="evenodd" d="M53.478 6.031c24.24 0 43.89 19.65 43.89 43.89 0 24.241-19.65 43.891-43.89 43.891-24.24 0-43.89-19.65-43.89-43.89 0-24.24 19.65-43.89 43.89-43.89zm13.246 36.924c.709-2.749 1.082-5.788.896-8.764a21.1 21.1 0 0 1 7.011 15.73c0 1.69-.198 3.332-.572 4.907a26.532 26.532 0 0 0-5.138 2.497c-4.27 2.686-8.389 7.02-8.927 12.257-.017.161-.03.321-.039.48-1.64.528-3.366.86-5.153.97.501-1.579.792-3.295 1.088-5.045.652-3.85 1.33-7.86 4.34-10.912 3.185-3.235 5.368-7.755 6.494-12.12zM60.13 72.736c-2.06.6-4.237.928-6.487.944a9.073 9.073 0 0 1-1.048 1.422c-2.517 2.792-6.248 3.133-9.772 2.725-4.66-.539-8.896-2.303-12.205-5.682-6.92-7.062-7.466-18.64-6.297-27.88 2.2-17.39 9.898-25.381 27.901-25.198h-.003c4.674.049 9.025 1.587 11.982 5.347 1.397 1.775 2.315 3.83 2.854 6.007a23.886 23.886 0 0 1 2.143 1.685 5.212 5.212 0 0 1 10.206 1.623 7.745 7.745 0 1 1-2.248 14.21 24.115 24.115 0 0 1-.271 6.08c1.987-.423 4-.536 5.879-.179l1.988.377.127 2.02-.003-.003c.27 4.354-1.55 9.209-3.83 12.852-3.869 6.178-10.87 11.606-18.4 8.266l-.79-.349-.422-.75a11.556 11.556 0 0 1-1.304-3.517zm16.075-15.868c2.169-.615 4.283-.812 6.07-.472.53 8.522-8.928 22.857-18.574 18.573a8.828 8.828 0 0 1-1.08-3.112 23.824 23.824 0 0 0 13.584-14.989zM62.722 68.951A21.234 21.234 0 0 0 73.008 58.06c-4.87 2.25-9.342 6.335-10.286 10.891zM53.478 8.636c22.8 0 41.285 18.485 41.285 41.286 0 22.8-18.485 41.285-41.285 41.285-22.8 0-41.286-18.484-41.286-41.285 0-22.8 18.485-41.286 41.286-41.286zm4.893 44.609c8.691-8.818 11.071-31.397-6.182-31.573-17.256-.176-23.339 7.508-25.29 22.92-1.946 15.412 1.99 29.007 16.219 30.647 8.353.963 9.16-3.745 10.16-9.582.704-4.106 1.504-8.77 5.093-12.412zM35.725 48.72L45.78 58.775a1.304 1.304 0 0 1 0 1.84 1.305 1.305 0 0 1-1.84 0L33.883 50.563a1.305 1.305 0 0 1 0-1.841 1.305 1.305 0 0 1 1.841 0zM48.55 29.14l10.053 10.054a1.305 1.305 0 0 1 0 1.841 1.305 1.305 0 0 1-1.84 0L46.708 30.983a1.305 1.305 0 0 1 0-1.842 1.305 1.305 0 0 1 1.84 0zm-10.811 4.3l10.054 10.053a1.305 1.305 0 0 1 0 1.841 1.305 1.305 0 0 1-1.841 0L35.898 35.281a1.305 1.305 0 0 1 0-1.841 1.305 1.305 0 0 1 1.841 0zm36.456-2.46a2.604 2.604 0 0 1 2.605 2.604 2.604 2.604 0 0 1-2.605 2.605 2.604 2.604 0 0 1-2.605-2.605 2.604 2.604 0 0 1 2.605-2.604zm12.06 10.303a5.141 5.141 0 0 0-5.14-5.14 5.141 5.141 0 0 0-5.14 5.14 5.141 5.141 0 0 0 5.14 5.14 5.141 5.141 0 0 0 5.14-5.14z" fill="#242629"></path><path fill-rule="evenodd" clip-rule="evenodd" d="M76.8 33.588a2.605 2.605 0 1 1-5.21 0 2.605 2.605 0 0 1 5.21 0zm4.315 12.834a5.14 5.14 0 1 0 0-10.279 5.14 5.14 0 0 0 0 10.28zm1.162 9.97c-8.428-1.602-24.124 8.733-18.573 18.572 9.646 4.285 19.104-10.05 18.573-18.572z" fill="#C4C5CC"></path><path d="M21.877 94.028c10.628 0 19.245-8.616 19.245-19.245 0-10.629-8.617-19.245-19.245-19.245-10.63 0-19.246 8.616-19.246 19.245 0 10.63 8.617 19.245 19.245 19.245z" fill="#242629"></path><path d="M21.877 91.424c9.19 0 16.64-7.45 16.64-16.64 0-9.19-7.45-16.64-16.64-16.64-9.19 0-16.64 7.45-16.64 16.64 0 9.19 7.45 16.64 16.64 16.64z" fill="#C4C5CC"></path><path d="M17.747 81.067h8.378v-2.71H21.99l2.042-2.06c1.126-1.127 1.918-2.394 1.918-3.872 0-2.482-1.97-3.925-4.171-3.925-1.707 0-3.362.862-4.154 2.692L20 72.584c.335-.775.95-1.338 1.813-1.338.827 0 1.32.528 1.32 1.303 0 .721-.528 1.443-1.25 2.182l-4.136 4.295v2.042z" fill="#242629"></path></svg><svg viewBox="0 0 477.846 477.846" width="477.846" height="477.846" id="home" y="5587"><path d="M472.847 226.846l-34.116-34.116L250.998 4.997c-6.664-6.663-17.468-6.663-24.132 0L39.132 192.73 4.999 226.864c-6.548 6.78-6.361 17.584.419 24.132 6.614 6.388 17.099 6.388 23.713 0l4.983-5.018v214.801c0 9.426 7.641 17.067 17.067 17.067h375.467c9.426 0 17.067-7.641 17.067-17.067V245.978l5 5.001c6.78 6.548 17.584 6.36 24.132-.419 6.388-6.614 6.388-17.1 0-23.714zM290.115 443.713h-102.4V307.179h102.4v136.534zm119.466 0h-85.333v-153.6c0-9.426-7.641-17.067-17.067-17.067H170.648c-9.426 0-17.067 7.641-17.067 17.067v153.6H68.248V211.845L238.914 41.178l170.667 170.667v231.868z"></path></svg><svg viewBox="0 0 330 330" width="330" height="330" id="info" y="6065"><path d="M165 0C74.019 0 0 74.02 0 165.001 0 255.982 74.019 330 165 330s165-74.018 165-164.999S255.981 0 165 0zm0 300c-74.44 0-135-60.56-135-134.999S90.56 30 165 30s135 60.562 135 135.001C300 239.44 239.439 300 165 300z"></path><path d="M164.998 70c-11.026 0-19.996 8.976-19.996 20.009 0 11.023 8.97 19.991 19.996 19.991 11.026 0 19.996-8.968 19.996-19.991 0-11.033-8.97-20.009-19.996-20.009zm.002 70c-8.284 0-15 6.716-15 15v90c0 8.284 6.716 15 15 15 8.284 0 15-6.716 15-15v-90c0-8.284-6.716-15-15-15z"></path></svg><svg width="24" height="24" viewBox="0 0 24 24" id="like" y="6395"><path d="M22.985 8.35a2.505 2.505 0 0 0-.02-.174C22.659 4.73 20.102 2 16.784 2c-1.923 0-3.68.9-4.83 2.359C10.829 2.89 9.139 2 7.227 2 3.92 2 1.369 4.71 1.04 8.196c-.006.04-.012.09-.018.148-.056.563-.01 1.31.207 2.219.461 1.931 1.54 3.69 3.06 5.054l7.08 6.157c.344.3.86.301 1.207.003l7.131-6.147c1.681-1.73 2.68-3.288 3.077-5.081.198-.901.245-1.642.2-2.199zm-1.992 1.812c-.311 1.41-1.14 2.702-2.55 4.157l-6.466 5.57-6.468-5.624c-1.24-1.113-2.122-2.552-2.496-4.119-.17-.711-.204-1.257-.163-1.663l.013-.091c.235-2.625 2.066-4.58 4.364-4.58 1.71 0 3.166 1.033 3.873 2.69.315.739 1.373.739 1.689 0 .693-1.624 2.251-2.69 3.994-2.69 2.297 0 4.128 1.955 4.364 4.58.006.053.008.068.01.1.03.383-.004.947-.164 1.67z"></path></svg><svg width="100" height="100" viewBox="0 0 100 100" fill="none" id="lists--color" y="6419"><path fill-rule="evenodd" clip-rule="evenodd" d="M25.735 30.18c7.847-6.462 14.558-12.755 20.512-19.236L48.952 8l4.744 6.225c4.313 5.658 7.57 11.457 9.721 17.27l.405 1.094 1.12-.343a186.747 186.747 0 0 0 14.334-5.005L83 25.76l1.543 7.655c3.507 17.412.607 32.616-7.922 42.948-4.09 4.954-9.454 8.805-15.973 11.435C53.77 90.574 45.545 92 36.184 92H26.113l-9.58-19.673c-3.5-7.186-4.42-15.084-2.668-22.856a35.124 35.124 0 0 1 11.87-19.292zM51.57 15.822l-2.806-3.681-1.003 1.083c-5.914 6.388-12.567 12.606-20.324 18.993A32.453 32.453 0 0 0 16.468 50.05c-1.62 7.178-.765 14.488 2.466 21.124l6.682 13.72v-15.24c0-7.983 2.633-15.491 7.618-21.73 4.835-6.05 11.637-10.397 19.143-12.235a245.35 245.35 0 0 0 7.591-1.988l1.296-.362-.473-1.252c-2.07-5.488-5.168-10.946-9.221-16.264zm26.542 16.991l1.392-2.786-2.934 1.09a198.23 198.23 0 0 1-13.241 4.378l-.003.001-.064.019h-.002l-1.192.349-1.15.322a249.54 249.54 0 0 1-7.902 2.074c-6.942 1.7-13.223 5.716-17.693 11.31-4.604 5.761-7.04 12.711-7.04 20.083V88.22l1.96-1.402c3.867-2.764 10.16-7.564 17.158-14.1 6.708-6.265 12.75-12.883 17.953-19.672 5.064-6.605 9.337-13.388 12.758-20.233zm4.116 2.694l-.647-3.596-1.673 3.253c-3.398 6.608-7.574 13.157-12.477 19.547-5.3 6.906-11.454 13.643-18.293 20.021a178.2 178.2 0 0 1-14.82 12.407l-2.962 2.211h4.828c8.935 0 16.837-1.335 23.461-4.007 6.063-2.446 11.09-6.028 14.914-10.66 7.883-9.55 10.496-23.465 7.669-39.176z" fill="#242629"></path><path fill-rule="evenodd" clip-rule="evenodd" d="M78.587 32.825L80 30l-2.978 1.104a201.44 201.44 0 0 1-13.443 4.44l-.003.001-.065.02h-.003l-1.21.353-1.166.327a250.344 250.344 0 0 1-8.023 2.102 33.239 33.239 0 0 0-17.961 11.467C30.473 55.656 28 62.702 28 70.176V89l1.99-1.42c3.926-2.803 10.315-7.67 17.418-14.296C54.22 66.93 60.352 60.22 65.635 53.339c5.14-6.697 9.48-13.574 12.952-20.514z" fill="#C4C5CC"></path></svg><svg width="18.393" height="23.039" viewBox="0 0 18.393 23.039" id="location" y="6519"><g data-name="Group 3524"><path data-name="Path 10785" d="M9.191 12.245H9.2a3.8 3.8 0 0 0 0-7.6 3.8 3.8 0 0 0-3.8 3.8v.019a3.79 3.79 0 0 0 3.791 3.781zm.009-6a2.2 2.2 0 1 1-2.2 2.2 2.2 2.2 0 0 1 2.2-2.2z"></path><path data-name="Path 10786" d="M8.679 22.855a.821.821 0 0 0 1.035 0c.111-.083 8.679-7.4 8.679-13.909A9.2 9.2 0 0 0 0 8.958c0 6.303 8.3 13.57 8.679 13.897zM3.824 3.574A7.6 7.6 0 0 1 16.8 8.945c0 4.321-4.588 9.353-7.324 11.967a.4.4 0 0 1-.552 0C6.187 18.3 1.6 13.268 1.6 8.945a7.542 7.542 0 0 1 2.224-5.371z"></path></g></svg><svg width="24" height="24" viewBox="0 0 24 24" id="lock" y="6543"><path fill-rule="evenodd" clip-rule="evenodd" d="M18.3 7.833v.834c1.489 0 2.7 1.121 2.7 2.5V19.5c0 1.378-1.211 2.5-2.7 2.5H5.7C4.211 22 3 20.878 3 19.5v-8.333c0-1.379 1.211-2.5 2.7-2.5v-.834C5.7 4.617 8.526 2 12 2c3.474 0 6.3 2.617 6.3 5.833zM12 3.667c-2.481 0-4.5 1.869-4.5 4.166v.834h9v-.834c0-2.297-2.019-4.166-4.5-4.166zm6.3 16.666c.496 0 .9-.373.9-.833v-8.333c0-.46-.404-.834-.9-.834H5.7c-.496 0-.9.374-.9.834V19.5c0 .46.404.833.9.833h12.6zm-9-6.25c0-1.378 1.211-2.5 2.7-2.5s2.7 1.122 2.7 2.5c0 1.085-.755 2.002-1.8 2.347v1.403c0 .461-.403.834-.9.834s-.9-.373-.9-.834V16.43c-1.045-.345-1.8-1.262-1.8-2.347zm1.8 0c0 .46.404.834.9.834s.9-.374.9-.834c0-.46-.404-.833-.9-.833s-.9.373-.9.833z"></path></svg><svg width="19" height="33" viewBox="0 0 19 33" id="login" y="6567"><path class="cls-1" d="M16.71 28.7h-5.16v-1.641h3.3a2.151 2.151 0 1 0 0-4.293h-3.29v-5.7a9.374 9.374 0 0 0 4.25-2.272 8.273 8.273 0 0 0 .01-12.255 9.721 9.721 0 0 0-13.1 0 8.272 8.272 0 0 0-.01 12.255 9.4 9.4 0 0 0 4.26 2.27L6.96 30.85a2.064 2.064 0 0 0 .68 1.518 2.111 2.111 0 0 0 .33.262 2.422 2.422 0 0 0 1.29.366h7.45a2.151 2.151 0 1 0 0-4.296zM5.96 11.76a4.174 4.174 0 0 1 0-6.184 4.905 4.905 0 0 1 6.61 0 4.174 4.174 0 0 1 0 6.184 4.9 4.9 0 0 1-6.61 0z"></path></svg><svg viewBox="0 0 512 512" width="512" height="512" id="mail" y="6600"><path d="M467 61H45C20.218 61 0 81.196 0 106v300c0 24.72 20.128 45 45 45h422c24.72 0 45-20.128 45-45V106c0-24.72-20.128-45-45-45zm-6.214 30L256.954 294.833 51.359 91h409.427zM30 399.788V112.069l144.479 143.24L30 399.788zM51.213 421l144.57-144.57 50.657 50.222c5.864 5.814 15.327 5.795 21.167-.046L317 277.213 460.787 421H51.213zM482 399.787L338.213 256 482 112.212v287.575z"></path></svg><svg width="24" height="24" viewBox="0 0 24 24" id="menu" y="7112"><path d="M1 5c0-.552.547-1 1.222-1h19.556C22.453 4 23 4.448 23 5s-.547 1-1.222 1H2.222C1.547 6 1 5.552 1 5zm0 7c0-.552.547-1 1.222-1h19.556c.675 0 1.222.448 1.222 1s-.547 1-1.222 1H2.222C1.547 13 1 12.552 1 12zm1.222 6C1.547 18 1 18.448 1 19s.547 1 1.222 1h19.556c.675 0 1.222-.448 1.222-1s-.547-1-1.222-1H2.222z"></path></svg><svg height="469" viewBox="0 -192 469.33333 469" width="469" id="minus" y="7136"><path d="M437.332.168H32c-17.664 0-32 14.336-32 32V53.5c0 17.664 14.336 32 32 32h405.332c17.664 0 32-14.336 32-32V32.168c0-17.664-14.336-32-32-32zm0 0"></path></svg><svg width="24" height="24" viewBox="0 0 24 24" id="more" y="7605"><path fill-rule="evenodd" clip-rule="evenodd" d="M6 12a2 2 0 1 1-4 0 2 2 0 0 1 4 0zm8 0a2 2 0 1 1-4 0 2 2 0 0 1 4 0zm6 2a2 2 0 1 0 0-4 2 2 0 0 0 0 4z"></path></svg><svg width="24" height="24" viewBox="0 0 24 24" id="navigation" y="7629"><path d="M20.849 2.064l-18.331 7.5c-.771.315-.653 1.441.166 1.59l8.598 1.564 1.564 8.598c.149.82 1.275.937 1.59.166l7.5-18.331a.833.833 0 0 0-1.087-1.087zM13.975 18.21l-1.156-6.358a.833.833 0 0 0-.671-.67L5.79 10.024 19.641 4.36l-5.666 13.85z"></path></svg><svg width="100" height="100" viewBox="0 0 100 100" fill="none" id="nooil--color" y="7653"><path fill-rule="evenodd" clip-rule="evenodd" d="M50 0c27.615 0 50 22.385 50 50s-22.385 50-50 50S0 77.615 0 50 22.385 0 50 0zm0 2.968c25.975 0 47.032 21.058 47.032 47.032 0 25.975-21.057 47.032-47.032 47.032C24.026 97.032 2.968 75.975 2.968 50 2.968 24.026 24.026 2.968 50 2.968z" fill="#242629"></path><path d="M27.024 39.67c0 3.24 1.243 6.29 3.496 8.584a1.681 1.681 0 0 0 2.409 0 1.754 1.754 0 0 0 0-2.452 8.697 8.697 0 0 1-2.497-6.131c0-2.315.887-4.494 2.497-6.132 2.254-2.293 3.495-5.344 3.495-8.585 0-3.24-1.241-6.29-3.495-8.583a1.68 1.68 0 0 0-2.409 0 1.754 1.754 0 0 0 0 2.452 8.694 8.694 0 0 1 2.497 6.131 8.695 8.695 0 0 1-2.497 6.132c-2.256 2.293-3.496 5.343-3.496 8.585zm12.484 0c0 3.24 1.242 6.29 3.495 8.584a1.682 1.682 0 0 0 2.41 0 1.753 1.753 0 0 0 0-2.452 8.695 8.695 0 0 1-2.498-6.131c0-2.315.887-4.494 2.497-6.132 2.254-2.293 3.496-5.344 3.496-8.585 0-3.24-1.242-6.29-3.496-8.583a1.68 1.68 0 0 0-2.408 0 1.754 1.754 0 0 0 0 2.452 8.697 8.697 0 0 1 2.497 6.131 8.698 8.698 0 0 1-2.497 6.132c-2.254 2.293-3.496 5.343-3.496 8.585z" fill="#242629"></path><path d="M66.569 19.688c-.28-.401-.968-.401-1.246 0-.358.518-8.777 12.712-8.777 17.545 0 5.06 4.219 9.179 9.4 9.179s9.4-4.12 9.4-9.179c0-4.833-8.42-17.028-8.777-17.545z" fill="#C4C5CC"></path><path d="M73.946 37.233c0 4.255-3.56 7.779-8 7.779-4.44 0-8-3.523-8-7.779 0-.896.417-2.335 1.205-4.15.765-1.762 1.8-3.704 2.861-5.54a114.305 114.305 0 0 1 3.934-6.282 114.28 114.28 0 0 1 3.933 6.282c1.062 1.836 2.097 3.778 2.861 5.54.788 1.815 1.206 3.254 1.206 4.15z" stroke="#242629" stroke-width="2.8"></path><path fill-rule="evenodd" clip-rule="evenodd" d="M83.202 58.875h15.96a49.66 49.66 0 0 1-.744 3.358H81.446l-1.392 2.295-.01.02c-.187.31-.343.64-.472.984l-.006.015-.005.013-.005.015-.004.014h17.873a49.612 49.612 0 0 1-1.26 3.357H79.107c-.182 5.582-4.828 10.072-10.527 10.072H27.895c-5.814 0-10.544-4.67-10.544-10.41v-.776c0-1.165-.32-2.308-.926-3.309l-2.787-4.586a2.89 2.89 0 0 1-.032-2.943 2.98 2.98 0 0 1 2.577-1.476h64.113c1.064 0 2.052.565 2.578 1.476.336.578.427 1.241.328 1.88zM68.583 75.66H27.897c-4.12 0-6.246-3.357-6.794-5.036a6.855 6.855 0 0 1-.3-1.678h15.111c.943 0 1.709-.75 1.709-1.678 0-.929-.766-1.68-1.709-1.68H20.486a9.727 9.727 0 0 0-1.127-2.784l-2.386-3.93h62.534l-2.386 3.93a9.55 9.55 0 0 0-.555 1.074c-.085.19-.154.385-.223.581l-.032.09a7.511 7.511 0 0 1-.052.142c-.033.088-.066.176-.093.267-.095.3-.166.605-.23.913l-.013.062c-.01.044-.02.088-.027.132a9.143 9.143 0 0 0-.137 1.05.42.42 0 0 0-.004.035l-.077 1.794c-.184 3.73-3.281 6.716-7.095 6.716z" fill="#242629"></path><path fill-rule="evenodd" clip-rule="evenodd" d="M68.583 75.66H27.896c-4.12 0-6.246-3.357-6.794-5.036a6.855 6.855 0 0 1-.299-1.679h15.11c.944 0 1.71-.75 1.71-1.678 0-.928-.766-1.678-1.71-1.678H20.486a9.725 9.725 0 0 0-1.126-2.785l-2.386-3.93h62.534l-2.387 3.93a9.55 9.55 0 0 0-.555 1.074c-.085.19-.154.385-.223.58l-.031.09a8.573 8.573 0 0 1-.053.143c-.032.088-.065.176-.093.267-.094.3-.166.605-.229.912l-.014.063a9.142 9.142 0 0 0-.164 1.182.425.425 0 0 0-.003.035l-.077 1.794c-.184 3.73-3.282 6.716-7.095 6.716z" fill="#C4C5CC"></path><path fill="#242629" d="M13.444 84.405l70.102-70.102 2.15 2.15-70.103 70.102z"></path></svg><svg width="56" height="24" viewBox="0 0 56 24" id="pay-apple" y="7753"><path fill-rule="evenodd" clip-rule="evenodd" d="M11.831 0c.138 1.109-.322 2.217-.965 3.049-.69.831-1.748 1.432-2.852 1.293-.138-1.062.414-2.217 1.012-2.91C9.716.647 10.866.046 11.831 0zm-2.52 5.175c.698-.273 1.566-.612 2.52-.555.598.046 2.346.23 3.403 1.893-.092.047-2.07 1.202-2.023 3.604 0 2.623 2.082 3.618 2.469 3.803l.06.03c0 .047-.368 1.34-1.288 2.68-.781 1.201-1.61 2.31-2.897 2.356-.64.023-1.064-.16-1.504-.349-.445-.192-.906-.39-1.623-.39-.76 0-1.246.21-1.715.414-.41.177-.808.35-1.366.371-1.241.046-2.207-1.247-2.989-2.402C.703 14.274-.493 9.978 1.162 7.068c.828-1.478 2.3-2.356 3.91-2.402.7 0 1.373.265 1.958.496.45.178.848.335 1.168.335.287 0 .665-.147 1.112-.322zm21.788 1.893c0-3.372-2.345-5.728-5.748-5.728h-6.53V18.8h2.713v-5.959h3.725c3.45 0 5.84-2.356 5.84-5.774zm-6.483 3.51h-3.128V3.65h3.128c2.345 0 3.678 1.248 3.678 3.465 0 2.171-1.333 3.465-3.678 3.465zm11.91.878c-3.035.185-4.737 1.571-4.737 3.788 0 2.264 1.748 3.835 4.323 3.835 1.655 0 3.265-.878 4-2.31h.047v2.079h2.483V10.07c0-2.587-1.978-4.204-5.059-4.204-3.127 0-5.104 1.709-5.242 4.019h2.483c.23-1.109 1.15-1.848 2.668-1.848 1.563 0 2.529.831 2.529 2.264v.97l-3.495.184zm3.495 1.617v1.016c0 1.663-1.426 2.91-3.265 2.91-1.38 0-2.3-.738-2.3-1.847s.874-1.802 2.438-1.894l3.127-.185zm4.92 8.361v2.125c.113.023.326.035.535.046.217.012.43.023.523.047 2.621 0 3.863-.97 4.966-4.065l4.737-13.443h-2.76l-3.218 10.394h-.046l-3.22-10.394h-2.804l4.598 12.75s-.23.739-.23.785c-.414 1.294-1.057 1.802-2.253 1.802-.184 0-.644 0-.828-.047z"></path></svg><svg width="58" height="23" viewBox="0 0 58 23" id="pay-google" y="7777"><path fill-rule="evenodd" clip-rule="evenodd" d="M13.584 5.047a5.074 5.074 0 0 0-3.572-1.387c-2.429 0-4.49 1.626-5.227 3.817a5.504 5.504 0 0 0 0 3.54c.737 2.19 2.798 3.816 5.227 3.816 1.258 0 2.334-.321 3.17-.884v-.001a4.3 4.3 0 0 0 1.218-1.216 4.24 4.24 0 0 0 .64-1.594h-5.028v-3.56h8.78c.108.62.161 1.25.16 1.88 0 2.813-1.012 5.192-2.77 6.801h-.001l.002.002c-1.543 1.412-3.659 2.232-6.171 2.232a9.359 9.359 0 0 1-4.887-1.377 9.27 9.27 0 0 1-3.432-3.718 9.194 9.194 0 0 1 0-8.303 9.27 9.27 0 0 1 3.432-3.718A9.359 9.359 0 0 1 10.012 0a8.98 8.98 0 0 1 6.229 2.407l-2.657 2.64zm13.781 5.815v6.517h-2.082V1.285h5.522a5.023 5.023 0 0 1 3.575 1.393 4.453 4.453 0 0 1 1.494 3.397 4.432 4.432 0 0 1-1.493 3.416c-.966.914-2.158 1.37-3.576 1.37h-3.44v.001zm0-7.596v5.619h3.492a2.769 2.769 0 0 0 2.06-.833 2.743 2.743 0 0 0 .836-1.966 2.727 2.727 0 0 0-.836-1.967 2.716 2.716 0 0 0-2.06-.854h-3.492v.001zm13.306 2.742c1.54 0 2.754.408 3.644 1.225.89.817 1.336 1.937 1.335 3.36v6.786h-1.992v-1.528h-.09c-.862 1.258-2.009 1.888-3.44 1.888-1.221 0-2.243-.36-3.066-1.079a3.423 3.423 0 0 1-1.234-2.697c0-1.14.434-2.045 1.302-2.718.867-.673 2.025-1.01 3.473-1.012 1.236 0 2.254.224 3.054.674v-.473a2.34 2.34 0 0 0-.86-1.83 2.96 2.96 0 0 0-2.01-.753c-1.162 0-2.082.487-2.76 1.461l-1.834-1.147c1.009-1.438 2.502-2.157 4.478-2.157zm-2.693 8a1.64 1.64 0 0 0 .69 1.349c.46.36 1.032.55 1.618.539a3.331 3.331 0 0 0 2.342-.966c.69-.644 1.034-1.4 1.034-2.269-.649-.513-1.554-.77-2.715-.77-.846 0-1.551.202-2.116.607-.57.411-.853.91-.853 1.51zm12.151 8.225l6.952-15.865h-2.267l-3.213 7.91h-.045l-3.304-7.91h-2.263l4.57 10.314-2.579 5.551h2.15z"></path></svg><svg width="39" height="21" viewBox="0 0 39 21" id="pay-master" y="7800"><path d="M27.209.526c-2.699 0-5.177.86-7.107 2.29C18.005 1.072 15.203 0 12.117 0 5.629-.002.369 4.7.369 10.499.369 16.299 5.629 21 12.117 21c3.088 0 5.888-1.073 7.985-2.815 1.93 1.427 4.408 2.287 7.107 2.287 6.152 0 11.16-4.473 11.16-9.973 0-5.5-5.008-9.973-11.16-9.973zm0 17.35c-1.983 0-3.809-.63-5.232-1.682 1.187-1.64 1.888-3.592 1.888-5.695s-.7-4.055-1.888-5.695c1.423-1.048 3.25-1.678 5.232-1.678 4.547 0 8.247 3.308 8.247 7.373s-3.7 7.377-8.247 7.377z"></path></svg><svg width="53" height="15" viewBox="0 0 53 15" id="pay-mir" y="7821"><path d="M20.492 0v14.903h4.277s1.07 0 1.652-1.064c2.916-5.71 3.79-7.452 3.79-7.452h.584v8.516h4.86V0h-4.277s-1.069.097-1.652 1.065c-2.43 4.935-3.79 7.451-3.79 7.451h-.584V0h-4.86zm16.232 0h10.011c2.916 0 5.346 2.42 5.346 5.323 0 .29 0 .774-.097 1.064h-7.97c-3.5 0-6.707-3.097-7.29-6.387zm.875 15V6.968h14.19c-.68 2.129-2.721 3.774-5.054 3.774H42.46V15H37.6zM.081.097V15h4.665V6.968h.584L8.05 15h2.139l2.721-8.032h.583V15h4.86V.097h-4.86s-1.36 0-2.138 2.129c-1.75 5.032-2.138 6.387-2.138 6.387s-.195-.774-2.139-6.387C6.302.096 4.941.096 4.941.096H.08z"></path></svg><svg width="52" height="16" viewBox="0 0 52 16" id="pay-visa" y="7836"><path fill-rule="evenodd" clip-rule="evenodd" d="M36.649 10.514c0 3.154-2.854 5.257-7.285 5.257-1.877 0-3.68-.375-4.656-.826l.6-3.455.527.226c1.351.6 2.253.826 3.905.826 1.201 0 2.478-.45 2.478-1.502 0-.676-.526-1.127-2.178-1.878-1.577-.75-3.68-1.952-3.68-4.13C26.36 2.028 29.29 0 33.42 0c1.577 0 2.929.3 3.755.676l-.601 3.304-.3-.3c-.752-.3-1.728-.6-3.155-.6-1.577.074-2.328.75-2.328 1.35 0 .677.901 1.203 2.328 1.878 2.404 1.127 3.53 2.404 3.53 4.206zM47.914.225h-3.23c-.975 0-1.726.3-2.177 1.277l-6.158 14.044h4.355s.751-1.878.902-2.328h5.332c.15.525.526 2.253.526 2.253h3.905L47.914.225zm-5.107 9.839c.376-.902 1.652-4.281 1.652-4.281 0 .075.376-.901.526-1.427l.3 1.352s.827 3.68.977 4.43h-3.455v-.074zM.075.075L0 .375c5.032 1.202 8.336 4.131 9.763 7.736L8.336 1.352C8.111.376 7.435.075 6.534.075H.075zm18.775.15l-6.534 15.246h-4.43L4.13 2.704c2.703 1.727 4.956 4.43 5.782 6.308l.45 1.577L14.42.15h4.431v.075zM24.708.15h-4.13l-2.629 15.32h4.13L24.71.15z"></path></svg><svg viewBox="0 0 512 512" width="512" height="512" id="pencil" y="7852"><path d="M51.2 353.28L0 512l158.72-51.2zm35.96-36.788L336.96 66.69 445.57 175.3l-249.8 249.802zM504.32 79.36L432.64 7.68c-10.24-10.24-25.6-10.24-35.84 0l-23.04 23.04 107.52 107.52 23.04-23.04c10.24-10.24 10.24-25.6 0-35.84z"></path></svg><svg width="24" height="24" viewBox="0 0 24 24" id="phone" y="8364"><path d="M20.082 18.637l-.54-.836c-.97-1.484-2.309-3.188-4.065-3.188-.325 0-.648.06-.966.184l-.943.375c-.086.033-.17.07-.258.11-.242.11-.515.233-.797.233-.694 0-1.498-.838-2.264-2.36-.752-1.494-.704-2.277-.531-2.67.19-.436.633-.621 1.109-.788l.184-.067.954-.373c2.487-.965 1.562-4.337 1.258-5.442l-.257-.95C12.746 2.08 12.163 0 10.23 0c-.358 0-.74.077-1.135.23-.26.096-3.825 1.446-5.117 3.82-1.544 2.824-1.259 6.61.848 11.253 2.09 4.648 4.8 7.491 8.056 8.45.559.165 1.19.248 1.876.248 2.247 0 4.465-.887 4.645-.96.775-.305 1.275-.768 1.488-1.376.36-1.032-.244-2.162-.81-3.027zm-.855 2.526c-.05.141-.222.27-.511.383l-.016.006c-.02.009-2.027.825-3.942.824-.506 0-.96-.057-1.346-.172-2.743-.807-5.089-3.34-6.973-7.53-1.898-4.184-2.201-7.512-.9-9.892 1.01-1.856 4.174-3.033 4.205-3.044l.018-.007c.18-.07.342-.107.467-.107.386 0 .737.555 1.042 1.642l.256.947c.552 2.013.468 3.272-.24 3.547l-.95.371c-.037.015-.081.03-.13.047-.525.184-1.617.568-2.11 1.695-.449 1.023-.263 2.32.566 3.969 1.117 2.218 2.376 3.297 3.85 3.297.684 0 1.233-.248 1.561-.396.06-.027.115-.052.173-.074l.944-.376a.782.782 0 0 1 .286-.056c.454 0 1.269.418 2.567 2.402l.539.835c.664 1.018.716 1.48.644 1.689z"></path></svg><svg viewBox="0 0 473.806 473.806" width="473.806" height="473.806" id="phone-call" y="8388"><path d="M374.456 293.506c-9.7-10.1-21.4-15.5-33.8-15.5-12.3 0-24.1 5.3-34.2 15.4l-31.6 31.5c-2.6-1.4-5.2-2.7-7.7-4-3.6-1.8-7-3.5-9.9-5.3-29.6-18.8-56.5-43.3-82.3-75-12.5-15.8-20.9-29.1-27-42.6 8.2-7.5 15.8-15.3 23.2-22.8 2.8-2.8 5.6-5.7 8.4-8.5 21-21 21-48.2 0-69.2l-27.3-27.3c-3.1-3.1-6.3-6.3-9.3-9.5-6-6.2-12.3-12.6-18.8-18.6-9.7-9.6-21.3-14.7-33.5-14.7s-24 5.1-34 14.7l-.2.2-34 34.3c-12.8 12.8-20.1 28.4-21.7 46.5-2.4 29.2 6.2 56.4 12.8 74.2 16.2 43.7 40.4 84.2 76.5 127.6 43.8 52.3 96.5 93.6 156.7 122.7 23 10.9 53.7 23.8 88 26 2.1.1 4.3.2 6.3.2 23.1 0 42.5-8.3 57.7-24.8.1-.2.3-.3.4-.5 5.2-6.3 11.2-12 17.5-18.1 4.3-4.1 8.7-8.4 13-12.9 9.9-10.3 15.1-22.3 15.1-34.6 0-12.4-5.3-24.3-15.4-34.3l-54.9-55.1zm35.8 105.3c-.1 0-.1.1 0 0-3.9 4.2-7.9 8-12.2 12.2-6.5 6.2-13.1 12.7-19.3 20-10.1 10.8-22 15.9-37.6 15.9-1.5 0-3.1 0-4.6-.1-29.7-1.9-57.3-13.5-78-23.4-56.6-27.4-106.3-66.3-147.6-115.6-34.1-41.1-56.9-79.1-72-119.9-9.3-24.9-12.7-44.3-11.2-62.6 1-11.7 5.5-21.4 13.8-29.7l34.1-34.1c4.9-4.6 10.1-7.1 15.2-7.1 6.3 0 11.4 3.8 14.6 7l.3.3c6.1 5.7 11.9 11.6 18 17.9 3.1 3.2 6.3 6.4 9.5 9.7l27.3 27.3c10.6 10.6 10.6 20.4 0 31-2.9 2.9-5.7 5.8-8.6 8.6-8.4 8.6-16.4 16.6-25.1 24.4-.2.2-.4.3-.5.5-8.6 8.6-7 17-5.2 22.7l.3.9c7.1 17.2 17.1 33.4 32.3 52.7l.1.1c27.6 34 56.7 60.5 88.8 80.8 4.1 2.6 8.3 4.7 12.3 6.7 3.6 1.8 7 3.5 9.9 5.3.4.2.8.5 1.2.7 3.4 1.7 6.6 2.5 9.9 2.5 8.3 0 13.5-5.2 15.2-6.9l34.2-34.2c3.4-3.4 8.8-7.5 15.1-7.5 6.2 0 11.3 3.9 14.4 7.3l.2.2 55.1 55.1c10.3 10.2 10.3 20.7.1 31.3zm-154.2-286.1c26.2 4.4 50 16.8 69 35.8s31.3 42.8 35.8 69c1.1 6.6 6.8 11.2 13.3 11.2.8 0 1.5-.1 2.3-.2 7.4-1.2 12.3-8.2 11.1-15.6-5.4-31.7-20.4-60.6-43.3-83.5s-51.8-37.9-83.5-43.3c-7.4-1.2-14.3 3.7-15.6 11s3.5 14.4 10.9 15.6zm217.2 96.3c-8.9-52.2-33.5-99.7-71.3-137.5s-85.3-62.4-137.5-71.3c-7.3-1.3-14.2 3.7-15.5 11-1.2 7.4 3.7 14.3 11.1 15.6 46.6 7.9 89.1 30 122.9 63.7 33.8 33.8 55.8 76.3 63.7 122.9 1.1 6.6 6.8 11.2 13.3 11.2.8 0 1.5-.1 2.3-.2 7.3-1.1 12.3-8.1 11-15.4z"></path></svg><svg viewBox="0 0 494.148 494.148" width="494.148" height="494.148" id="play" y="8862"><path d="M405.284 201.188L130.804 13.28C118.128 4.596 105.356 0 94.74 0 74.216 0 61.52 16.472 61.52 44.044v406.124c0 27.54 12.68 43.98 33.156 43.98 10.632 0 23.2-4.6 35.904-13.308l274.608-187.904c17.66-12.104 27.44-28.392 27.44-45.884.004-17.48-9.664-33.764-27.344-45.864z"></path></svg><svg height="448" viewBox="0 0 448 448" width="448" id="plus" y="9357"><path d="M408 184H272a8 8 0 0 1-8-8V40c0-22.09-17.91-40-40-40s-40 17.91-40 40v136a8 8 0 0 1-8 8H40c-22.09 0-40 17.91-40 40s17.91 40 40 40h136a8 8 0 0 1 8 8v136c0 22.09 17.91 40 40 40s40-17.91 40-40V272a8 8 0 0 1 8-8h136c22.09 0 40-17.91 40-40s-17.91-40-40-40zm0 0"></path></svg><svg width="24" height="24" viewBox="0 0 24 24" id="plus-round" y="9805"><path fill-rule="evenodd" clip-rule="evenodd" d="M1 12C1 5.934 5.934 1 12 1s11 4.935 11 11-4.934 11-11 11S1 18.066 1 12zm1.704 0c0 5.126 4.17 9.296 9.296 9.296 5.126 0 9.296-4.17 9.296-9.296 0-5.126-4.17-9.296-9.296-9.296-5.125 0-9.296 4.17-9.296 9.296zm10.148-.929h3.408a.852.852 0 1 1 0 1.704h-3.408v3.409a.852.852 0 1 1-1.704 0v-3.409H7.74a.852.852 0 1 1 0-1.704h3.408V7.663a.852.852 0 1 1 1.704 0v3.408z"></path></svg><svg width="24" height="24" viewBox="0 0 24 24" id="question" y="9829"><path fill-rule="evenodd" clip-rule="evenodd" d="M12 21a9 9 0 1 0 0-18 9 9 0 0 0 0 18zm0 2c6.075 0 11-4.925 11-11S18.075 1 12 1 1 5.925 1 12s4.925 11 11 11zm.952-7.948V12.78c1.842-.443 3.118-2.106 3.045-3.986-.079-2.048-1.767-3.713-3.843-3.79a4.004 4.004 0 0 0-2.948 1.112A3.872 3.872 0 0 0 8 8.934a.95.95 0 0 0 .952.948.95.95 0 0 0 .953-.948c0-.552.22-1.068.623-1.453a2.113 2.113 0 0 1 1.555-.584c1.086.041 1.97.906 2.01 1.969a2.059 2.059 0 0 1-1.633 2.081 1.774 1.774 0 0 0-1.412 1.74v2.365A.95.95 0 0 0 12 16a.95.95 0 0 0 .952-.948zM12 19a1 1 0 1 0 0-2 1 1 0 0 0 0 2z"></path></svg><svg width="24" height="24" viewBox="0 0 24 24" id="reload" y="9853"><path fill-rule="evenodd" clip-rule="evenodd" d="M7.596 16.56a.83.83 0 0 1 .922.723l.38 3.091a.833.833 0 0 1-.722.924l-3.045.38c-.531.04-.874-.303-.927-.724a.835.835 0 0 1 .722-.927l1.013-.126A9.933 9.933 0 0 1 2.486 8.906C3.8 4.81 7.673 1.996 11.947 2c.555 0 .882.392.873.85-.012.457-.347.808-.873.808-3.563.008-6.788 2.349-7.886 5.759a8.281 8.281 0 0 0 2.951 9.218l-.139-1.148a.832.832 0 0 1 .723-.927zM19.073 3.977l-1.012.126a9.925 9.925 0 0 1 3.453 10.987C20.2 19.186 16.326 22 12.05 22c-.555 0-.882-.392-.874-.85.013-.457.347-.808.874-.808 3.563-.008 6.788-2.348 7.886-5.759a8.282 8.282 0 0 0-2.951-9.218l.138 1.148a.83.83 0 0 1-1.645.204l-.375-3.087a.833.833 0 0 1 .723-.923l3.044-.38c.531-.041.874.302.927.723a.835.835 0 0 1-.723.927z"></path></svg><svg width="24" height="22" viewBox="0 0 24 22" id="repeat" y="9877"><defs><path id="a" d="M1515.477 514.514c-1.232 2.532-3.395 4.441-6.088 5.377a10.878 10.878 0 0 1-3.577.604c-2.96 0-5.816-1.219-7.835-3.344a1.247 1.247 0 0 1 .068-1.788 1.287 1.287 0 0 1 1.794.066 8.264 8.264 0 0 0 5.974 2.55 8.29 8.29 0 0 0 2.73-.461c3.245-1.128 5.425-4.153 5.425-7.529 0-.907-.158-1.801-.469-2.66-1.15-3.18-4.24-5.316-7.692-5.316a8.25 8.25 0 0 0-2.72.461c-1.697.589-3.107 1.671-4.07 3.104l2.508-.872a1.276 1.276 0 0 1 1.623.762 1.26 1.26 0 0 1-.778 1.612l-5.358 1.864a1.285 1.285 0 0 1-.97-.05 1.265 1.265 0 0 1-.653-.71l-1.8-4.98a1.238 1.238 0 0 1-.076-.426c0-.533.343-1.01.854-1.186a1.284 1.284 0 0 1 1.621.764l.749 2.073c1.27-2.007 3.19-3.524 5.503-4.328 1.15-.401 2.35-.604 3.567-.604 4.526 0 8.582 2.806 10.095 6.984.412 1.142.62 2.326.62 3.52 0 1.567-.351 3.085-1.045 4.513z"></path></defs><use xlink:href="#a" transform="translate(-1493 -499)"></use></svg><svg width="23" height="23" viewBox="0 0 23 23" id="search" y="9899"><path d="M12.989 17.206a7.369 7.369 0 0 1-5.184-2.153l-.002-.002c-2.86-2.865-2.857-7.523.008-10.384a7.293 7.293 0 0 1 5.19-2.148h.004a7.291 7.291 0 0 1 5.19 2.155c2.862 2.865 2.859 7.524-.005 10.384A7.298 7.298 0 0 1 13 17.206zm-11.86 5.649c.29 0 .58-.111.8-.331L7.052 17.4a9.652 9.652 0 0 0 5.936 2.064H13a9.54 9.54 0 0 0 6.785-2.808c3.747-3.742 3.75-9.834.008-13.58A9.54 9.54 0 0 0 13.006.26H13a9.54 9.54 0 0 0-6.786 2.808c-3.475 3.472-3.73 8.967-.76 12.735L.331 20.926a1.127 1.127 0 0 0 0 1.598c.221.22.51.33.799.33z"></path></svg><svg width="58" height="48" viewBox="0 0 58 48" id="sendMsg" y="9922"><path fill-rule="evenodd" clip-rule="evenodd" d="M49.649 42.84l-.007.029c-.374 1.567-1.18 3.102-2.774 3.793-1.575.683-3.235.242-4.607-.49a2.01 2.01 0 0 1-.207-.126L30.95 38.277l-4.793 4.378-.033.03c-.303.289-.77.734-1.382 1.072-.706.389-1.502.59-2.444.59a2 2 0 0 1-1.994-2.148l.892-12.007a2 2 0 0 1 .692-1.37l10.604-9.098-15.267 9.128a2 2 0 0 1-1.596.2L3.382 25.414c-.825-.244-1.633-.612-2.26-1.173-.656-.586-1.215-1.495-1.11-2.64.1-1.07.74-1.867 1.37-2.395.647-.542 1.483-.976 2.427-1.327l.01-.003L51.722.35l.017-.006c1.549-.552 3.45-.53 4.845.753 1.405 1.292 1.657 3.274 1.213 5.254v.002L49.648 42.84zm6.197-36.925c.723-3.217-1.217-4.476-3.435-3.686L4.505 19.753c-3.267 1.213-3.218 2.953-.554 3.743l12.247 3.64 28.45-17.01a3.066 3.066 0 0 1 .838-.376c.926-.247 1.498.184.716.846L23.19 30.34l-.892 12.007c.995 0 1.551-.319 2.062-.757.145-.125.287-.26.433-.399l5.991-5.471 12.417 8.688c2.278 1.213 3.881.572 4.496-2.004l8.149-36.49z"></path></svg><svg width="24" height="24" viewBox="0 0 24 24" id="soc-fb" y="9970"><path d="M22 5.316C22 3.554 20.446 2 18.684 2H5.316C3.554 2 2 3.554 2 5.316v13.368C2 20.446 3.554 22 5.316 22h6.736v-7.565H9.565V11.12h2.487V9.772c0-2.28 1.658-4.249 3.73-4.249h2.695V8.84h-2.695c-.31 0-.621.311-.621.933v1.347h3.316v3.316H15.16V22h3.523C20.446 22 22 20.446 22 18.684V5.316z"></path></svg><svg width="24" height="24" viewBox="0 0 24 24" id="soc-inst" y="9994"><path d="M19.154 2H4.846C3.231 2 2 3.23 2 4.846v14.308C2 20.769 3.23 22 4.846 22h14.308C20.769 22 22 20.77 22 19.154V4.846C22 3.231 20.77 2 19.154 2zM12 18c3.308 0 6-2.615 6-5.77 0-.538-.077-1.153-.23-1.615h1.692v8.154a.77.77 0 0 1-.77.77H5.308a.77.77 0 0 1-.77-.77v-8.23h1.77a5.855 5.855 0 0 0-.231 1.615C6 15.384 8.692 18 12 18zm0-2.308c-2.154 0-3.846-1.692-3.846-3.769S9.846 8.153 12 8.153s3.846 1.693 3.846 3.77c0 2.154-1.692 3.77-3.846 3.77zm7.385-8.23a.854.854 0 0 1-.847.846h-2.153a.854.854 0 0 1-.847-.846V5.385c0-.462.385-.847.847-.847h2.153c.462 0 .847.385.847.847v2.077z"></path></svg><svg width="24" height="24" viewBox="0 0 24 24" id="soc-inst-light" y="10018"><path fill-rule="evenodd" clip-rule="evenodd" d="M22.94 7.468c-.052-1.169-.24-1.973-.512-2.669a5.368 5.368 0 0 0-1.272-1.951A5.413 5.413 0 0 0 19.21 1.58c-.7-.27-1.5-.46-2.668-.511C15.363 1.013 14.989 1 12.002 1s-3.36.013-4.534.064c-1.169.052-1.973.241-2.669.512-.74.28-1.4.709-1.951 1.272A5.417 5.417 0 0 0 1.58 4.795c-.27.7-.46 1.5-.511 2.669C1.013 8.64 1 9.015 1 12.002s.013 3.361.064 4.534c.052 1.17.241 1.973.512 2.67.28.738.713 1.4 1.272 1.95.55.56 1.216.993 1.947 1.268.7.271 1.5.46 2.669.512 1.173.051 1.547.064 4.534.064s3.36-.013 4.534-.064c1.169-.052 1.973-.241 2.669-.512a5.628 5.628 0 0 0 3.219-3.219c.27-.7.46-1.5.511-2.669.052-1.173.065-1.547.065-4.534s-.005-3.36-.056-4.534zm-1.981 8.982c-.048 1.075-.228 1.655-.378 2.042a3.65 3.65 0 0 1-2.09 2.088c-.386.15-.97.331-2.04.379-1.161.051-1.51.064-4.444.064-2.936 0-3.288-.013-4.444-.064-1.075-.048-1.655-.228-2.042-.378a3.386 3.386 0 0 1-1.263-.821 3.42 3.42 0 0 1-.821-1.264c-.15-.387-.331-.971-.378-2.041-.052-1.16-.065-1.509-.065-4.444 0-2.936.013-3.288.065-4.444.047-1.074.227-1.655.378-2.041.176-.478.455-.912.825-1.264a3.415 3.415 0 0 1 1.264-.82c.386-.151.97-.332 2.041-.38 1.16-.05 1.509-.064 4.444-.064 2.94 0 3.288.013 4.444.065 1.074.047 1.654.228 2.041.378.477.176.911.456 1.264.82.365.358.644.787.82 1.265.15.386.331.97.379 2.041.051 1.16.064 1.508.064 4.444 0 2.935-.013 3.279-.064 4.44zm-8.957-10.1a5.653 5.653 0 0 0-5.651 5.652 5.653 5.653 0 0 0 5.651 5.652 5.653 5.653 0 0 0 5.652-5.652 5.653 5.653 0 0 0-5.652-5.651zm0 9.318a3.667 3.667 0 1 1 .001-7.333 3.667 3.667 0 0 1 0 7.333zm5.875-8.221a1.32 1.32 0 1 0 0-2.64 1.32 1.32 0 0 0 0 2.64z"></path></svg><svg width="24" height="24" viewBox="0 0 24 24" id="soc-telegram" y="10042"><path d="M1.386 11.6l5.058 1.965 1.971 6.612c.086.446.6.536.943.268l2.83-2.413c.256-.268.685-.268 1.028 0l5.058 3.842c.343.268.857.09.943-.357l3.772-18.762c.086-.447-.343-.893-.772-.715L1.386 10.438c-.515.18-.515.983 0 1.162zm6.772.983l9.944-6.344c.172-.089.343.18.172.268L10.13 14.46c-.257.268-.514.625-.514 1.072l-.258 2.144c0 .268-.428.357-.514 0l-1.029-3.931c-.257-.447-.085-.983.343-1.161z"></path></svg><svg width="24" height="24" viewBox="0 0 24 24" id="soc-telegram-light" y="10066"><path d="M18.71 22a.861.861 0 0 1-.488-.153l-5.532-3.813-2.967 2.17a.86.86 0 0 1-.803.114.88.88 0 0 1-.548-.607l-1.49-5.738-5.322-2.068a.885.885 0 0 1-.56-.821.885.885 0 0 1 .549-.829l20.24-8.185a.86.86 0 0 1 .996.232.89.89 0 0 1 .197.76l-3.416 18.219a.882.882 0 0 1-.522.651.858.858 0 0 1-.333.068zm-5.534-5.77l4.927 3.397L20.761 5.45l-9.6 9.39 1.992 1.373.023.016zm-4.102-.756l.66 2.541 1.421-1.04-1.861-1.283a.875.875 0 0 1-.22-.218zm-4.807-4.413l3.655 1.42a.88.88 0 0 1 .53.601l.464 1.786a.891.891 0 0 1 .263-.546l9.148-8.947-14.06 5.686z"></path></svg><svg width="22" height="18" viewBox="0 0 22 18" id="soc-twitter" y="10090"><path d="M22 2.13a9.321 9.321 0 0 1-2.599.718 4.51 4.51 0 0 0 1.984-2.51 8.976 8.976 0 0 1-2.86 1.1A4.505 4.505 0 0 0 15.231 0c-2.497 0-4.507 2.04-4.507 4.543 0 .36.03.706.104 1.036-3.75-.185-7.067-1.994-9.296-4.751a4.597 4.597 0 0 0-.618 2.296c0 1.573.805 2.967 2.004 3.774a4.43 4.43 0 0 1-2.038-.56v.05a4.555 4.555 0 0 0 3.614 4.463c-.368.101-.768.15-1.183.15-.289 0-.58-.017-.854-.078.585 1.799 2.243 3.121 4.215 3.164a9.023 9.023 0 0 1-5.593 1.937c-.37 0-.724-.017-1.079-.062A12.633 12.633 0 0 0 6.919 18c8.3 0 12.837-6.923 12.837-12.924 0-.2-.007-.395-.017-.587A9.034 9.034 0 0 0 22 2.13z"></path></svg><svg width="24" height="24" viewBox="0 0 24 24" id="soc-viber" y="10108"><path d="M17.48 1.522c-3.63-.696-7.4-.696-11.03 0-1.605.348-3.63 2.298-3.979 3.83a21.968 21.968 0 0 0 0 9.05c.419 1.532 2.443 3.482 3.98 3.83.07 0 .139.07.139.14v4.385c0 .21.28.348.419.14l2.094-2.159s1.675-1.74 1.955-2.019c0 0 .07-.07.14-.07 2.093.07 4.258-.139 6.352-.487 1.605-.348 3.63-2.297 3.979-3.829a21.967 21.967 0 0 0 0-9.051c-.42-1.462-2.444-3.412-4.05-3.76zm.07 13.09c-.35.696-.768 1.253-1.466 1.6l-.628.21a8.85 8.85 0 0 1-.699-.21c-2.233-.904-4.328-2.157-6.003-3.968A16.747 16.747 0 0 1 6.45 8.763c-.279-.627-.558-1.184-.768-1.81-.21-.557.14-1.114.489-1.532.35-.418.768-.696 1.257-.905.349-.209.698-.07.977.209.558.696 1.117 1.392 1.536 2.158.279.488.21 1.045-.28 1.393-.14.07-.209.139-.349.278-.07.07-.209.14-.279.279-.14.209-.14.417-.07.626.559 1.602 1.606 2.855 3.212 3.551.279.14.488.209.837.209.489-.07.698-.627 1.047-.905.35-.279.768-.279 1.187-.07.35.21.698.488 1.117.766.349.279.698.488 1.047.766.21.14.28.487.14.835zM14.618 9.39c-.14 0-.07 0 0 0-.28 0-.35-.14-.419-.348 0-.14 0-.349-.07-.488a1.323 1.323 0 0 0-.489-.766l-.418-.209c-.21-.07-.35-.07-.559-.07-.21-.069-.28-.208-.28-.417 0-.14.21-.278.35-.278 1.117.07 1.955.696 2.094 2.019v.278c0 .14-.07.279-.21.279zm-.698-3.064c-.35-.139-.698-.278-1.117-.348-.14 0-.35-.07-.489-.07-.21 0-.349-.139-.28-.348 0-.209.14-.348.35-.278.698.07 1.326.209 1.955.487 1.256.627 1.954 1.671 2.164 3.064v.905c-.07.278-.559.348-.629 0 0-.07-.07-.21-.07-.279a4.07 4.07 0 0 0-.418-1.81c-.42-.627-.908-1.044-1.466-1.323zm3.77 4.178c-.21 0-.35-.21-.35-.418 0-.418-.07-.836-.14-1.253-.278-2.228-2.093-4.038-4.258-4.387-.349-.07-.698-.07-.977-.139-.21 0-.489 0-.558-.278-.07-.21.14-.418.349-.418h.14c2.861.07.139 0 0 0 2.931.07 5.374 2.019 5.863 4.943.07.488.14.975.14 1.532.14.209 0 .418-.21.418z"></path></svg><svg width="24" height="24" viewBox="0 0 24 24" id="soc-vk" y="10132"><path d="M23.777 17.562c0-.096-.095-.096-.095-.192-.382-.767-1.242-1.726-2.388-2.781-.573-.48-.86-.863-1.05-1.055-.287-.383-.287-.671-.191-1.055.095-.287.477-.767 1.146-1.63.382-.48.573-.767.86-1.054 1.432-1.918 2.1-3.165 1.909-3.74l-.095-.096c-.096-.096-.191-.192-.382-.192-.191-.096-.478-.096-.764 0H18.43l-.096.096c-.095.096-.095.096-.095.192-.382 1.055-.86 1.918-1.337 2.877-.287.479-.573.958-.86 1.342-.286.384-.477.671-.668.863-.191.192-.382.288-.478.48-.095.095-.286.191-.286.095-.095 0-.191 0-.191-.096l-.286-.287c-.096-.096-.096-.288-.191-.48V6.055c0-.096-.096-.288-.096-.384l-.286-.287c-.096-.096-.287-.096-.382-.192A8.531 8.531 0 0 0 11.458 5c-1.527 0-2.577.096-2.96.288-.19.096-.381.191-.477.383-.19.192-.19.288-.095.288.477.096.86.288 1.05.575l.096.192c.095.096.095.288.19.575.096.288.096.576.096.96v1.534c0 .479-.095.767-.095 1.054 0 .288-.096.48-.191.576-.096.191-.096.287-.191.287 0 0 0 .096-.096.096-.095 0-.19.096-.382.096-.095 0-.286-.096-.382-.192a1.153 1.153 0 0 1-.477-.48c-.191-.19-.382-.479-.573-.862-.191-.384-.478-.767-.669-1.343l-.19-.383a13.594 13.594 0 0 1-.478-1.055c-.191-.48-.382-.863-.573-1.342a1.323 1.323 0 0 0-.286-.384h-.096s-.095-.096-.191-.096c-.095 0-.19-.096-.286-.096H.764c-.382 0-.573.096-.669.192L0 5.959v.192c0 .096 0 .191.095.383.478 1.15 1.05 2.302 1.624 3.452.573 1.055 1.146 2.014 1.528 2.685.477.671.86 1.343 1.337 1.918s.763.959.859 1.15l.382.384.286.288c.191.192.478.48.86.767.382.288.86.575 1.337.863.477.288 1.05.48 1.623.671.668.192 1.241.288 1.814.192h1.433c.286 0 .477-.096.668-.288l.096-.096c0-.095.095-.095.095-.191v-.384c0-.383 0-.671.096-.959.095-.287.095-.48.19-.67.096-.193.191-.289.287-.384l.191-.192h.095c.191-.096.478 0 .669.191.286.192.573.48.764.768.19.287.477.575.86.958.381.384.668.672.859.768l.286.191c.191.096.382.192.669.288.286.096.477.096.668.096l3.247-.096c.286 0 .573-.096.764-.192.19-.096.286-.192.286-.383v-.384c-.19-.192-.19-.288-.19-.383z"></path></svg><svg width="24" height="24" viewBox="0 0 24 24" id="soc-wp" y="10156"><path d="M19.073 4.917A9.932 9.932 0 0 0 12.035 2C6.53 2 2.07 6.444 2.07 11.93c0 1.737.487 3.473 1.324 4.931L2 22l5.296-1.389a10.189 10.189 0 0 0 4.739 1.18c5.505 0 9.965-4.444 9.965-9.93-.07-2.57-1.045-5.07-2.927-6.944zm-2.23 10.555c-.209.556-1.184 1.111-1.672 1.18-.418.07-.976.07-1.533-.069-.349-.139-.837-.277-1.394-.555-2.509-1.042-4.112-3.542-4.251-3.75-.14-.14-1.045-1.32-1.045-2.57 0-1.25.627-1.805.836-2.083.209-.278.488-.278.697-.278h.488c.139 0 .348-.07.557.417.21.486.697 1.736.767 1.805a.44.44 0 0 1 0 .417c-.07.139-.14.278-.28.417-.138.139-.278.347-.348.416-.139.14-.278.278-.139.487.14.277.627 1.041 1.394 1.736.976.833 1.742 1.11 2.02 1.25.28.139.419.07.558-.07.14-.139.627-.694.767-.972s.348-.208.557-.139c.21.07 1.464.695 1.673.833.278.14.418.209.488.278.07.209.07.695-.14 1.25z"></path></svg><svg width="24" height="24" viewBox="0 0 24 24" id="soc-wp-light" y="10180"><path fill-rule="evenodd" clip-rule="evenodd" d="M19.795 4.197A10.91 10.91 0 0 0 12.046 1C6.008 1 1.094 5.89 1.092 11.9c0 1.922.503 3.798 1.462 5.451L1 23l5.807-1.516c1.6.869 3.401 1.326 5.235 1.327h.004c6.037 0 10.952-4.89 10.954-10.902a10.808 10.808 0 0 0-3.205-7.712zM12.046 20.97h-.004a9.126 9.126 0 0 1-4.634-1.263l-.332-.197-3.446.9.92-3.344-.217-.342A9.007 9.007 0 0 1 2.941 11.9c.002-4.995 4.087-9.06 9.109-9.06a9.068 9.068 0 0 1 6.436 2.657 8.986 8.986 0 0 1 2.665 6.41c-.003 4.997-4.087 9.062-9.105 9.062zm4.994-6.786c-.274-.137-1.62-.796-1.87-.887-.25-.09-.434-.136-.616.137-.183.272-.707.886-.867 1.068-.16.181-.319.204-.593.068-.273-.136-1.155-.424-2.2-1.352-.814-.722-1.364-1.614-1.523-1.887-.16-.273-.002-.406.12-.556.296-.366.593-.75.684-.932.091-.181.045-.34-.023-.477-.068-.136-.616-1.477-.844-2.022-.222-.531-.448-.46-.616-.468-.16-.008-.342-.01-.524-.01-.183 0-.48.069-.73.341-.251.273-.958.932-.958 2.273 0 1.34.98 2.636 1.118 2.818.136.181 1.93 2.933 4.675 4.112a15.61 15.61 0 0 0 1.56.574c.656.208 1.253.178 1.724.108.526-.078 1.62-.659 1.848-1.295.228-.636.228-1.181.16-1.295-.069-.114-.251-.182-.525-.318z"></path></svg><svg height="511" viewBox="0 -10 511.99143 511" width="511" id="star" y="10204"><path d="M510.652 185.883a27.177 27.177 0 0 0-23.402-18.688l-147.797-13.418-58.41-136.75C276.73 6.98 266.918.497 255.996.497s-20.738 6.483-25.023 16.53l-58.41 136.75-147.82 13.418c-10.837 1-20.013 8.34-23.403 18.688a27.25 27.25 0 0 0 7.937 28.926L121 312.773 88.059 457.86c-2.41 10.668 1.73 21.7 10.582 28.098a27.087 27.087 0 0 0 15.957 5.184 27.14 27.14 0 0 0 13.953-3.86l127.445-76.203 127.422 76.203a27.197 27.197 0 0 0 29.934-1.324c8.851-6.398 12.992-17.43 10.582-28.098l-32.942-145.086 111.723-97.964a27.246 27.246 0 0 0 7.937-28.926zM258.45 409.605"></path></svg><svg viewBox="0 0 477.899 477.899" width="477.899" height="477.899" id="star-empty" y="10715"><path d="M469.11 170.122a34.592 34.592 0 0 0-21.058-11.249v-.017l-127.01-17.545-50.261-120.098c-7.339-17.579-27.539-25.88-45.117-18.541a34.492 34.492 0 0 0-18.541 18.541l-50.261 120.098-127.01 17.545C10.929 161.49-2.276 178.967.358 197.89a34.592 34.592 0 0 0 11.249 21.058l95.693 85.333-19.662 133.904a34.133 34.133 0 0 0 15.838 34.355 34.013 34.013 0 0 0 37.7-.7l97.775-66.492 97.775 66.56c15.777 10.708 37.248 6.599 47.957-9.178a34.527 34.527 0 0 0 5.582-24.477l-19.661-133.956 95.693-85.333c14.264-12.71 15.524-34.578 2.813-48.842zm-128.1 114.89a17.07 17.07 0 0 0-5.513 15.224l20.48 143.36-107.383-73.011a17.065 17.065 0 0 0-19.183 0l-108.015 72.567 21.009-142.984a17.065 17.065 0 0 0-5.513-15.155l-102.4-92.297 136.67-18.859a17.064 17.064 0 0 0 13.414-10.325l54.579-129.399a.764.764 0 0 1 .137.256l54.016 129.075a17.066 17.066 0 0 0 13.414 10.325l136.841 19.695-102.553 91.528z"></path></svg><svg width="100" height="100" viewBox="0 0 100 100" fill="none" id="step--color" y="11193"><path d="M82.473 39.545h-64.82V60.98h64.82V39.545z" fill="#C4C5CC"></path><path fill-rule="evenodd" clip-rule="evenodd" d="M30.177 11h39.767c8.347 0 15.177 6.83 15.177 15.177v48.468c0 8.347-6.83 15.177-15.177 15.177H30.177C21.829 89.822 15 82.992 15 74.645V26.177C15 17.829 21.83 11 30.177 11zM17.659 36.892h64.814V26.17c0-6.887-5.637-12.524-12.523-12.524H30.182c-6.886 0-12.523 5.637-12.523 12.524v10.72zm64.814 2.653h-64.82V60.98h64.82V39.545zm-.005 24.083H17.653v11.011c0 6.887 5.637 12.524 12.524 12.524h39.767c6.887 0 12.524-5.637 12.524-12.524V63.628zm-53.77-38.86h42.724c.73 0 1.323.598 1.323 1.323 0 .73-.599 1.324-1.323 1.324H28.699c-.73 0-1.324-.6-1.324-1.324 0-.73.6-1.324 1.324-1.324zm30.851 23.21a1.33 1.33 0 0 0-1.871 0h-.006a1.33 1.33 0 0 0 0 1.87l4.918 4.919.023.023.023.023.023.022.028.023.029.023.028.023.029.017.028.017.029.017.029.017.028.017.029.018.028.017.029.011.028.012.029.01.028.012.029.012.028.011.029.011.028.012.029.006.028.005.029.006.028.006.035.006.034.005.034.006h.274l.034-.006.034-.005.035-.006.034-.006.029-.006.028-.005.029-.006.028-.012.029-.01.028-.012.029-.012.028-.011.029-.011.028-.012.029-.011.028-.017.029-.018.028-.017.029-.017.028-.017.029-.017.028-.017.029-.023.029-.023.028-.023.023-.023.023-.022.023-.023 7.89-7.89a1.33 1.33 0 0 0 0-1.872 1.33 1.33 0 0 0-1.871 0l-6.955 6.955-3.983-3.983zM28.7 74.285h42.723c.73 0 1.323.599 1.323 1.323 0 .73-.599 1.324-1.323 1.324H28.699c-.73 0-1.324-.6-1.324-1.324 0-.73.6-1.323 1.324-1.323zM48.736 49.22H28.7c-.725 0-1.324.594-1.324 1.324 0 .724.593 1.323 1.324 1.323h20.037c.725 0 1.324-.593 1.324-1.323 0-.725-.593-1.324-1.324-1.324z" fill="#242629"></path></svg><svg width="48" height="48" viewBox="0 0 48 48" id="strong" y="11293"><path d="M43.979 28.043c-1.645-2.15-4.133-3.24-7.397-3.24a12.39 12.39 0 0 0-9.639 4.567 10.747 10.747 0 0 0-5.188-1.321 10.86 10.86 0 0 0-5.845 1.712c.193-3.555.05-9.206-2.052-14.278.598-.64 1.82-1.595 3.507-1.144a3.826 3.826 0 0 0 3.796-1.102c1.94-2.087 2.512-4.529 1.614-6.877-1.424-3.723-3.977-4.329-5.372-4.359-1.836-.038-3.915.817-5.856 2.41-1.718 1.41-3.144 3.237-3.912 5.011-1.184 2.732-2.83 9.948-3.937 15.888-.87 4.666-2.22 12.848-1.489 15.232.152.495.58.857 1.096.927.043.006 4.353.609 9.823 3.035C15.238 45.44 19.404 46 23.941 46c.77 0 1.551-.016 2.334-.05 3.78-.16 10.805-.87 15.394-3.828C44.502 40.297 46 37.824 46 34.972c0-2.805-.7-5.202-2.021-6.93zm-3.763 11.855c-7.017 4.522-22.225 3.86-26 2.185-4.283-1.9-7.878-2.745-9.55-3.07-.078-1.852.375-6.349 1.656-13.22 1.257-6.746 2.84-13.19 3.764-15.323 1.175-2.713 4.554-5.82 7.188-5.82l.071.002c.48.01 1.938.042 2.936 2.65.534 1.398.17 2.79-1.08 4.137a1.17 1.17 0 0 1-1.144.339c-3.46-.924-6.007 1.432-6.87 2.806a1.319 1.319 0 0 0-.083 1.252c3.054 6.654 2.092 15.062 1.86 16.734a10.653 10.653 0 0 0-1.726 3.863 1.326 1.326 0 0 0 1.015 1.58 1.334 1.334 0 0 0 1.59-1.008c.812-3.654 4.14-6.305 7.912-6.305 1.719 0 3.361.528 4.748 1.528l.021.013.02.015c.926.616 2.123 2.123 2.506 2.651a1.337 1.337 0 0 0 1.862.303 1.32 1.32 0 0 0 .305-1.85c-.127-.176-1.032-1.409-2.11-2.429a9.726 9.726 0 0 1 7.475-3.476c5.578 0 6.75 4.088 6.75 7.517 0 1.964-1.02 3.575-3.116 4.926z"></path></svg><svg height="512" viewBox="0 0 512 512.00051" width="512" id="tick--color" y="11341"><path d="M504.34 187.367v269.344c0 13.816-5.88 26.254-15.266 34.965-8.515 7.894-19.91 12.719-32.43 12.719H55.294c-12.52 0-23.914-4.825-32.418-12.711-9.39-8.72-15.27-21.157-15.27-34.973V187.367zm0 0" fill="#fec970"></path><path d="M258 504.395H55.293c-26.336 0-47.688-21.348-47.688-47.684V185.766l52.97 45.71 3.304 2.747v135.933c0 46.246 18.66 90.078 61.207 108.223C164.34 495.12 234.18 504.395 258 504.395zm0 0" fill="#fba028"></path><path d="M504.34 187.367L313.406 28.387C280.13.68 231.812.68 198.536 28.387L7.601 187.367h.003l56.274 46.856 134.656 112.12c33.281 27.716 81.598 27.716 114.867 0l134.668-112.12z" fill="#fba028"></path><path d="M448.07 88.152v146.07L313.402 346.345c-33.27 27.715-81.586 27.715-114.867 0L63.88 234.223V88.153c0-30.454 24.695-55.15 55.16-55.15h273.883c30.46 0 55.148 24.696 55.148 55.15zm0 0" fill="#bfdadd"></path><path d="M448.07 88.152V200.77L313.402 312.89c-33.27 27.715-81.586 27.715-114.867 0L63.88 200.77V88.152c0-30.453 24.695-55.148 55.16-55.148h273.883c30.46 0 55.148 24.695 55.148 55.148zm0 0" fill="#e4f5f7"></path><path d="M494.203 114.055c0 58.507-47.43 105.937-105.937 105.937s-105.938-47.43-105.938-105.937c0-58.512 47.43-105.942 105.938-105.942s105.937 47.43 105.937 105.942zm0 0" fill="#26bf64"></path><path d="M494.2 114.05c0 51.485-36.716 94.388-85.395 103.95-48.684-9.55-85.41-52.465-85.41-103.95 0-51.48 36.726-94.39 85.41-103.94 48.68 9.558 85.394 52.46 85.394 103.94zm0 0" fill="#49d685"></path><path d="M453.18 471.688a7.57 7.57 0 0 0 4.86 1.761 7.583 7.583 0 0 0 5.847-2.742 7.599 7.599 0 0 0-.98-10.707L341.675 359.062a7.604 7.604 0 1 0-9.73 11.688zm-399.274 1.757a7.575 7.575 0 0 0 4.864-1.757l121.234-100.942a7.601 7.601 0 0 0 .976-10.707 7.602 7.602 0 0 0-10.707-.977L49.043 460a7.599 7.599 0 0 0-.98 10.707 7.572 7.572 0 0 0 5.843 2.738zm90.559-247.613h160.172a7.603 7.603 0 0 0 7.601-7.605 7.6 7.6 0 0 0-7.601-7.602H144.465a7.604 7.604 0 1 0 0 15.207zm223.019 28.949h-223.02a7.603 7.603 0 1 0 0 15.207h223.02c4.204 0 7.606-3.402 7.606-7.601s-3.406-7.606-7.606-7.606zM144.465 137.516h111.512a7.604 7.604 0 0 0 0-15.207H144.465a7.606 7.606 0 0 0-7.606 7.601c0 4.2 3.407 7.606 7.606 7.606zm67.152 36.554c0 4.2 3.406 7.602 7.606 7.602h55a7.6 7.6 0 0 0 7.601-7.602 7.603 7.603 0 0 0-7.601-7.605h-55a7.607 7.607 0 0 0-7.606 7.605zm-67.152 7.602h49.41a7.604 7.604 0 1 0 0-15.207h-49.41a7.604 7.604 0 0 0 0 15.207zM426.39 62.188l-40.75 95.085-36.148-43.046a7.603 7.603 0 1 0-11.64 9.78l44.09 52.505a7.603 7.603 0 0 0 6.933 2.633 7.6 7.6 0 0 0 5.875-4.528l45.617-106.441a7.603 7.603 0 1 0-13.976-5.989zm0 0"></path><path d="M505.402 178.355l-15.816-13.167c7.828-15.477 12.219-32.891 12.219-51.137 0-20.633-5.594-40.84-16.168-58.43a7.606 7.606 0 0 0-13.035 7.836c9.156 15.223 13.996 32.719 13.996 50.59 0 46.89-33.332 87.473-79.262 96.488a98.905 98.905 0 0 1-19.07 1.856c-54.223 0-98.336-44.118-98.336-98.344 0-54.219 44.113-98.332 98.336-98.332 6.406 0 12.82.625 19.07 1.855 17.8 3.496 34.285 11.887 47.676 24.274a7.61 7.61 0 0 0 10.746-.422c2.851-3.082 2.66-7.895-.422-10.746-15.461-14.297-34.504-23.988-55.063-28.028a114.37 114.37 0 0 0-22.007-2.14c-25.778 0-49.567 8.64-68.649 23.168l-1.347-1.125c-36.094-30.067-88.497-30.067-124.602 0l-3.418 2.851h-71.21c-34.606 0-62.763 28.149-62.763 62.75v49.305L4.836 180.285c-.152.063-.305.125-.457.2a7.596 7.596 0 0 0-4.375 6.882V396.48c0 4.2 3.402 7.602 7.601 7.602s7.606-3.402 7.606-7.602V203.594l178.46 148.593c18.052 15.032 40.177 22.551 62.302 22.547 22.125 0 44.25-7.515 62.293-22.546l178.468-148.594v253.113c0 22.106-17.98 40.086-40.086 40.086H55.293c-22.106 0-40.086-17.98-40.086-40.086v-29.812a7.604 7.604 0 0 0-15.207 0v29.812C0 487.195 24.805 512 55.293 512h401.355c30.489 0 55.293-24.805 55.293-55.293V187.563c.094-3.684-1.046-4.633-6.539-9.208zM295.582 25.402h-79.223c24.621-13.574 54.61-13.574 79.223 0zM56.277 157.242V218l-36.484-30.379zm252.258 183.262c-30.453 25.367-74.668 25.367-105.133-.004L71.484 230.66V88.152c0-26.218 21.332-47.547 47.555-47.547H301.75c-16.844 19.813-27.023 45.461-27.023 73.446 0 62.61 50.933 113.547 113.539 113.547 7.39 0 14.796-.72 22.004-2.141a112.384 112.384 0 0 0 30.195-10.578v15.777zm147.137-122.508v-12.601a114.146 114.146 0 0 0 26.062-26.957c3.325 2.765 7.348 6.117 10.727 8.93zm0 0"></path></svg><svg width="24" height="24" viewBox="0 0 24 24" id="transport" y="11853"><path fill-rule="evenodd" clip-rule="evenodd" d="M23.841 11.935l-1.41-1.966h.001l-2.269-4.882a.753.753 0 0 0-.676-.45h-3.226v-.819c0-.452-.339-.818-.757-.818H2.9c-.418 0-.756.366-.756.818 0 .452.338.818.756.818h11.849v5.728c0 .452.338.818.756.818h5.882l1.101 1.535v4.22h-1.425c-.328-1.424-1.52-2.482-2.936-2.482s-2.608 1.058-2.936 2.481h-4.464c-.328-1.423-1.52-2.481-2.936-2.481s-2.608 1.058-2.936 2.481H2.899c-.418 0-.756.367-.756.819 0 .451.338.818.756.818h1.968C5.212 19.969 6.392 21 7.79 21c1.398 0 2.577-1.031 2.923-2.427h4.49C15.55 19.969 16.728 21 18.126 21c1.398 0 2.578-1.031 2.923-2.427h2.195c.417 0 .756-.367.756-.818v-5.319a.864.864 0 0 0-.159-.501zm-4.82-5.662l1.521 3.272H16.26V6.273h2.761zM7.79 19.363c-.834 0-1.513-.733-1.513-1.636 0-.902.679-1.636 1.513-1.636.834 0 1.513.734 1.513 1.636 0 .903-.679 1.637-1.513 1.637zm10.336 0c-.834 0-1.513-.733-1.513-1.636 0-.902.679-1.636 1.513-1.636.834 0 1.513.734 1.513 1.636 0 .903-.679 1.637-1.513 1.637zM1.992 12.792H5.47c.417 0 .756.366.756.818 0 .452-.339.818-.756.818H1.99c-.417 0-.756-.366-.756-.818 0-.452.339-.818.757-.818zM7.21 9.573H.756c-.417 0-.756.366-.756.818 0 .452.339.818.756.818H7.21c.418 0 .756-.366.756-.818 0-.452-.338-.818-.756-.818zM1.992 6.355h6.453c.418 0 .757.366.757.818 0 .452-.339.818-.757.818H1.992c-.418 0-.757-.366-.757-.818 0-.452.339-.818.757-.818z"></path></svg><svg height="512" viewBox="0 0 512 512" width="512" id="upload" y="11877"><path d="M182.461 155.48L232 105.941V368a24 24 0 0 0 48 0V105.941l49.539 49.539a24 24 0 1 0 33.941-33.941l-90.509-90.51a24 24 0 0 0-33.942 0l-90.509 90.51a24 24 0 1 0 33.941 33.941z"></path><path d="M464 232a24 24 0 0 0-24 24v184H72V256a24 24 0 0 0-48 0v192a40 40 0 0 0 40 40h384a40 40 0 0 0 40-40V256a24 24 0 0 0-24-24z"></path></svg><svg viewBox="0 0 19.738 19.738" width="19.738" height="19.738" id="user" y="12389"><path d="M18.18 19.738h-2c0-3.374-2.83-6.118-6.311-6.118s-6.31 2.745-6.31 6.118h-2c0-4.478 3.729-8.118 8.311-8.118 4.581 0 8.31 3.64 8.31 8.118zM9.87 10.97a5.492 5.492 0 0 1-5.484-5.485A5.49 5.49 0 0 1 9.87 0c3.025 0 5.486 2.46 5.486 5.485S12.895 10.97 9.87 10.97zm0-8.97C7.948 2 6.385 3.563 6.385 5.485S7.948 8.97 9.87 8.97c1.923 0 3.486-1.563 3.486-3.485S11.791 2 9.87 2z"></path></svg><svg width="24" height="24" viewBox="0 0 24 24" id="view" y="12409"><path fill-rule="evenodd" clip-rule="evenodd" d="M22.87 11.862l.007.013a.917.917 0 0 1 0 .917l-.008.013c-.251.422-4.09 6.862-10.869 6.862-6.78 0-10.618-6.44-10.87-6.863l-.007-.012a.917.917 0 0 1 .007-.93C1.382 11.44 5.22 5 12 5c6.78 0 10.618 6.44 10.87 6.862zm-19.86.471c.944 1.394 4.152 5.5 8.99 5.5 4.857 0 8.046-4.106 8.99-5.5-.944-1.393-4.142-5.5-8.99-5.5-4.847 0-8.073 4.107-8.99 5.5zm4.408 0A4.583 4.583 0 1 1 12 16.917a4.583 4.583 0 0 1-4.582-4.584zm1.833 0a2.75 2.75 0 1 0 5.499.001 2.75 2.75 0 0 0-5.5 0z"></path></svg><svg width="100" height="100" viewBox="0 0 100 100" fill="none" id="winner--color" y="12433"><path fill-rule="evenodd" clip-rule="evenodd" d="M50.139 63.43a27.475 27.475 0 0 1-2.645-.126v12.587h5.292V63.307a28.359 28.359 0 0 0 2.645-.386v12.97h.941c7.144 0 13.322 5.124 14.667 12.124l.604 3.147H28.626l.605-3.147c1.345-7.003 7.523-12.124 14.666-12.124h.952V62.918a27.576 27.576 0 0 1-13.804-7.211c-5.897-.162-11.652-1.662-15.86-6.086-3.719-3.916-5.376-9.24-6.233-14.46-1.022-6.24-1.057-10.257-1.057-16.575V15.94h14.67v2.645H10.543c0 20.064 1.12 32.46 17.945 34.3-3.706-4.696-5.923-10.615-5.923-17.03V7.895h55.147v8.046h14.642v2.645c0 6.318-.035 10.334-1.057 16.575-.853 5.22-2.511 10.544-6.234 14.46-4.2 4.42-9.943 5.92-15.83 6.086-4.964 4.777-11.7 7.723-19.095 7.723zm27.573-27.574v-17.27H89.71c0 20.056-1.12 32.444-17.918 34.297 3.704-4.696 5.92-10.614 5.92-17.027zm-27.574 24.93c13.712 0 24.926-11.218 24.926-24.926V10.543H25.21V35.86c0 13.711 11.218 24.926 24.926 24.926h.004zm6.234 17.75H43.897c-5.97 0-10.979 4.313-12.067 9.978h36.61c-1.089-5.665-6.097-9.978-12.068-9.978z" fill="#242629"></path><path fill-rule="evenodd" clip-rule="evenodd" d="M50.697 19.622l3.793 7.422a.61.61 0 0 0 .442.333l7.923 1.514a.616.616 0 0 1 .478.421.627.627 0 0 1-.13.626l-5.602 6.167a.607.607 0 0 0-.158.506l1.086 8.422a.622.622 0 0 1-.26.597.614.614 0 0 1-.647.045l-7.196-3.649a.605.605 0 0 0-.569 0l-7.196 3.653a.606.606 0 0 1-.647-.05.612.612 0 0 1-.26-.596l1.086-8.422a.623.623 0 0 0-.158-.506l-5.602-6.167a.609.609 0 0 1-.13-.626.622.622 0 0 1 .478-.421l7.923-1.514a.616.616 0 0 0 .443-.333l3.793-7.422a.615.615 0 0 1 .562-.344.62.62 0 0 1 .562.344h-.014zm-.563 4.72l-1.994 3.906a3.255 3.255 0 0 1-2.304 1.728l-4.394.84 3.185 3.508c.647.713.949 1.669.826 2.624l-.597 4.643 3.796-1.928a3.267 3.267 0 0 1 2.965 0l3.796 1.924-.597-4.643c-.123-.952.18-1.91.825-2.623l3.186-3.509-4.394-.84a3.255 3.255 0 0 1-2.304-1.727l-1.994-3.906v.004z" fill="#242629"></path><path fill-rule="evenodd" clip-rule="evenodd" d="M50.138 24.34l-1.995 3.905a3.255 3.255 0 0 1-2.304 1.728l-4.394.84 3.186 3.508c.646.713.948 1.668.825 2.623l-.597 4.643 3.797-1.928a3.266 3.266 0 0 1 2.964 0l3.797 1.925-.598-4.643c-.122-.952.18-1.91.826-2.624l3.185-3.508-4.393-.84a3.255 3.255 0 0 1-2.304-1.728l-1.995-3.905v.003z" fill="#C4C5CC"></path></svg><svg width="100" height="100" viewBox="0 0 100 100" fill="none" id="winner-step--color" y="12533"><path fill-rule="evenodd" clip-rule="evenodd" d="M50.139 63.43a27.475 27.475 0 0 1-2.645-.126V75.89h5.292V63.307a28.359 28.359 0 0 0 2.645-.386v12.97h.941c7.144 0 13.322 5.124 14.667 12.124l.604 3.147H28.626l.604-3.147c1.346-7.003 7.524-12.124 14.667-12.124h.952V62.918a27.575 27.575 0 0 1-13.804-7.21c-5.897-.163-11.652-1.663-15.86-6.087-3.719-3.916-5.376-9.24-6.233-14.46-1.022-6.24-1.057-10.257-1.057-16.575V15.94h14.67v2.645H10.543c0 20.064 1.12 32.46 17.945 34.3-3.706-4.695-5.923-10.615-5.923-17.03V7.896h55.147v8.046h14.642v2.645c0 6.318-.035 10.334-1.057 16.575-.853 5.22-2.511 10.544-6.234 14.46-4.2 4.42-9.943 5.92-15.83 6.086-4.964 4.777-11.7 7.723-19.095 7.723zm27.573-27.573V18.586H89.71c0 20.056-1.12 32.444-17.918 34.297 3.704-4.696 5.92-10.614 5.92-17.026zM50.138 60.786c13.712 0 24.926-11.218 24.926-24.926V10.543H25.21V35.86c0 13.711 11.217 24.926 24.925 24.926h.004zm6.234 17.75H43.897c-5.97 0-10.979 4.313-12.067 9.978h36.61c-1.089-5.665-6.097-9.978-12.068-9.978z" fill="#242629"></path><path fill-rule="evenodd" clip-rule="evenodd" d="M50.697 19.622l3.793 7.422a.613.613 0 0 0 .443.333l7.923 1.514a.616.616 0 0 1 .478.422.627.627 0 0 1-.13.625l-5.602 6.167a.608.608 0 0 0-.158.506l1.085 8.422a.622.622 0 0 1-.26.597.614.614 0 0 1-.646.045l-7.197-3.649a.604.604 0 0 0-.569 0l-7.196 3.653a.606.606 0 0 1-.646-.05.612.612 0 0 1-.26-.596l1.085-8.422a.623.623 0 0 0-.158-.506l-5.602-6.167a.609.609 0 0 1-.13-.625.622.622 0 0 1 .478-.422l7.924-1.514a.616.616 0 0 0 .442-.333l3.793-7.422a.615.615 0 0 1 .562-.344c.242 0 .45.127.562.345h-.014zm-.562 4.72l-1.995 3.906a3.255 3.255 0 0 1-2.304 1.728l-4.393.84 3.185 3.508a3.28 3.28 0 0 1 .825 2.624l-.597 4.643 3.797-1.928a3.267 3.267 0 0 1 2.964 0l3.797 1.924-.597-4.643a3.28 3.28 0 0 1 .825-2.623l3.185-3.509-4.393-.84a3.253 3.253 0 0 1-2.304-1.727l-1.995-3.906v.004z" fill="#242629"></path><path fill-rule="evenodd" clip-rule="evenodd" d="M50.139 24.34l-1.995 3.905a3.255 3.255 0 0 1-2.304 1.728l-4.394.84 3.186 3.508c.646.713.948 1.668.825 2.624l-.597 4.643 3.797-1.928a3.267 3.267 0 0 1 2.964 0l3.796 1.924-.596-4.643a3.28 3.28 0 0 1 .825-2.623l3.185-3.509-4.393-.84a3.255 3.255 0 0 1-2.304-1.727l-1.995-3.906v.004z" fill="#C4C5CC"></path><path fill-rule="evenodd" clip-rule="evenodd" d="M28.897 55.53c10.796 0 19.545 8.752 19.545 19.545 0 10.796-8.752 19.545-19.545 19.545-10.796 0-19.545-8.752-19.545-19.545 0-10.796 8.752-19.545 19.545-19.545z" fill="#242629"></path><path fill-rule="evenodd" clip-rule="evenodd" d="M28.897 58.178c9.332 0 16.9 7.565 16.9 16.9 0 9.332-7.564 16.9-16.9 16.9-9.331 0-16.9-7.564-16.9-16.9 0-9.331 7.565-16.9 16.9-16.9z" fill="#C4C5CC"></path><path d="M30.811 74.021l2.164-2.753v-2.325h-8.043v2.68h4.576l-2.269 2.876 1.09 1.626h.59c1.18 0 1.696.625 1.696 1.394 0 .77-.52 1.395-1.697 1.395-1.089 0-1.626-.502-1.914-1.324l-2.465 1.43c.769 1.84 2.483 2.679 4.38 2.679 2.412 0 4.558-1.43 4.558-4.183 0-1.735-1.127-2.968-2.662-3.505l-.004.01z" fill="#242629"></path></svg></svg>