<svg width="100" height="100" viewBox="0 0 100 100" fill="none" xmlns="http://www.w3.org/2000/svg">
<path d="M82.4727 39.5447H17.6523V60.9803H82.4727V39.5447Z" fill="#C4C5CC"/>
<path fill-rule="evenodd" clip-rule="evenodd" d="M30.1767 11H69.9441C78.2913 11 85.1208 17.8295 85.1208 26.1767V74.645C85.1208 82.9922 78.2913 89.8217 69.9441 89.8217H30.1767C21.8295 89.8217 15 82.9922 15 74.645V62.304V26.1767C15 17.8295 21.8295 11 30.1767 11ZM17.6588 36.8916H82.4734V26.171C82.4734 19.2844 76.8364 13.6474 69.9498 13.6474H30.1824C23.2958 13.6474 17.6588 19.2844 17.6588 26.171V36.8916ZM82.4734 39.5447H17.6531V60.9803H82.4734V39.5447ZM82.4677 63.6277H17.6531V74.6393C17.6531 81.5259 23.2901 87.1629 30.1767 87.1629H69.9441C76.8307 87.1629 82.4677 81.5259 82.4677 74.6393V63.6277ZM28.6987 24.7673H71.4216C72.1519 24.7673 72.7453 25.3664 72.7453 26.091C72.7453 26.8213 72.1462 27.4147 71.4216 27.4147H28.6987C27.9684 27.4147 27.375 26.8156 27.375 26.091C27.375 25.3607 27.9741 24.7673 28.6987 24.7673ZM59.5493 47.9773C59.0359 47.4638 58.1914 47.4638 57.6779 47.9773H57.6722C57.1587 48.4908 57.1587 49.3352 57.6722 49.8487L62.5904 54.7669L62.6132 54.7897L62.636 54.8125L62.6588 54.8354L62.6874 54.8582L62.7159 54.881L62.7444 54.9038L62.773 54.9209L62.8015 54.9381L62.83 54.9552L62.8585 54.9723L62.8871 54.9894L62.9156 55.0065L62.9441 55.0236L62.9727 55.035L63.0012 55.0465L63.0297 55.0579L63.0582 55.0693L63.0868 55.0807L63.1153 55.0921L63.1438 55.1035L63.1723 55.1149L63.2009 55.1206L63.2294 55.1263L63.2579 55.132L63.2865 55.1377L63.3207 55.1435L63.3549 55.1492L63.3892 55.1549H63.4234H63.4576H63.4919H63.5261H63.5603H63.5946H63.6288H63.663L63.6973 55.1492L63.7315 55.1435L63.7657 55.1377L63.7999 55.132L63.8285 55.1263L63.857 55.1206L63.8855 55.1149L63.9141 55.1035L63.9426 55.0921L63.9711 55.0807L63.9996 55.0693L64.0282 55.0579L64.0567 55.0465L64.0852 55.035L64.1138 55.0236L64.1423 55.0065L64.1708 54.9894L64.1993 54.9723L64.2279 54.9552L64.2564 54.9381L64.2849 54.9209L64.3134 54.9038L64.342 54.881L64.3705 54.8582L64.399 54.8354L64.4219 54.8125L64.4447 54.7897L64.4675 54.7669L72.3582 46.8762C72.8717 46.3627 72.8717 45.5182 72.3582 45.0048C71.8447 44.4913 71.0003 44.4913 70.4868 45.0048L63.5318 51.9598L59.5493 47.9773ZM28.6987 74.2856H71.4216C72.1519 74.2856 72.7453 74.8847 72.7453 75.6093C72.7453 76.3396 72.1462 76.933 71.4216 76.933H28.6987C27.9684 76.933 27.375 76.3339 27.375 75.6093C27.375 74.879 27.9741 74.2856 28.6987 74.2856ZM48.7365 49.2212H28.6987C27.9741 49.2212 27.375 49.8146 27.375 50.5449C27.375 51.2695 27.9684 51.8685 28.6987 51.8685H48.7365C49.4611 51.8685 50.0601 51.2752 50.0601 50.5449C50.0601 49.8203 49.4668 49.2212 48.7365 49.2212Z" fill="#242629"/>
</svg>
