<svg width="48" height="48" viewBox="0 0 48 48" xmlns="http://www.w3.org/2000/svg">
<path d="M43.9787 28.0427C42.3342 25.8933 39.8457 24.8036 36.5823 24.8036C32.8037 24.8036 29.2883 26.4891 26.9433 29.37C25.3606 28.5023 23.5907 28.0488 21.7547 28.0488C19.6786 28.0488 17.6422 28.6507 15.9102 29.7611C16.1034 26.2061 15.9598 20.5554 13.8585 15.4827C14.4565 14.8429 15.6784 13.8885 17.3648 14.3387C18.7353 14.7046 20.1899 14.2823 21.161 13.2369C23.1001 11.1502 23.6735 8.70807 22.7754 6.36022C21.3512 2.63737 18.7981 2.03111 17.403 2.00123C15.5672 1.96296 13.4882 2.81764 11.547 4.41118C9.82913 5.82177 8.4029 7.64794 7.63453 9.42209C6.45124 12.1536 4.8047 19.3701 3.69777 25.3102C2.82838 29.9756 1.47884 38.1585 2.20902 40.5416C2.36074 41.0368 2.78884 41.3993 3.30548 41.4691C3.34805 41.4748 7.65785 42.0778 13.1283 44.5041C15.2371 45.4394 19.4039 46 23.9408 46C24.7109 46 25.4921 45.9839 26.275 45.9507C30.0543 45.7905 37.0797 45.0799 41.6686 42.1224C44.5021 40.2966 46 37.8238 46 34.9724C46 32.1667 45.3009 29.7705 43.9787 28.0427ZM40.2163 39.8981C33.1993 44.4202 17.9912 43.7576 14.2163 42.0831C9.93253 40.1831 6.33838 39.3375 4.66583 39.0139C4.58845 37.1615 5.04122 32.6642 6.32183 25.7929C7.57878 19.0471 9.1618 12.6031 10.0856 10.4701C11.2611 7.75738 14.64 4.65087 17.2742 4.65087C17.2979 4.65087 17.3219 4.6512 17.3452 4.65187C17.8246 4.66194 19.283 4.6935 20.2808 7.30218C20.8153 8.69967 20.4517 10.0915 19.2002 11.4386C18.9086 11.7521 18.4602 11.8857 18.0571 11.778C14.5971 10.8542 12.0501 13.2097 11.1864 14.5841C10.9496 14.9614 10.9188 15.4313 11.1043 15.8359C14.1579 22.4897 13.1959 30.8985 12.9634 32.5699C12.139 33.727 11.5466 35.0423 11.2375 36.4331C11.0787 37.1481 11.5331 37.8557 12.2528 38.0135C12.9725 38.1709 13.6845 37.7198 13.8433 37.0047C14.6552 33.3514 17.9824 30.7001 21.7547 30.7001C23.4738 30.7001 25.116 31.2284 26.5034 32.2278C26.5101 32.2325 26.5172 32.2362 26.524 32.2409C26.5307 32.2456 26.5372 32.2513 26.5443 32.256C27.4701 32.8717 28.6672 34.3789 29.05 34.9073C29.3106 35.2679 29.7197 35.4595 30.1347 35.4595C30.4043 35.4595 30.6763 35.379 30.9122 35.2108C31.5106 34.7835 31.6474 33.9553 31.2173 33.3604C31.0896 33.1835 30.1854 31.9512 29.1068 30.931C30.9473 28.7359 33.6646 27.4549 36.5823 27.4549C42.1602 27.4549 43.3313 31.543 43.3313 34.9724C43.3313 36.9363 42.3123 38.5473 40.2163 39.8981Z"/>
</svg>
