<svg width="100" height="100" viewBox="0 0 100 100" fill="none" xmlns="http://www.w3.org/2000/svg">
<path fill-rule="evenodd" clip-rule="evenodd" d="M50.1385 63.4302C48.4039 63.4302 46.7053 63.268 45.0574 62.9581C45.8581 63.1102 46.6729 63.2264 47.4937 63.304V75.8911H52.7864V63.3075C53.682 63.2197 54.5636 63.0897 55.4311 62.9211V75.8911H56.3723C63.516 75.8911 69.6938 81.0154 71.039 88.015L71.6431 91.1619H28.6265L29.2306 88.015C30.5758 81.0118 36.7536 75.8911 43.8972 75.8911H43.9008H44.849V62.9181C39.5566 61.8799 34.7947 59.316 31.0446 55.707C25.1484 55.5452 19.3928 54.0454 15.1857 49.6206C11.4664 45.7046 9.80864 40.3802 8.95168 35.1611C7.92965 28.9201 7.89453 24.904 7.89453 18.5857V15.9411H22.5647V18.5857H10.5427C10.5427 38.6499 11.663 51.0458 28.4882 52.8867C24.7821 48.1905 22.5648 42.2711 22.5648 35.8565V7.89471H77.7122V15.9411H92.3542V18.5857C92.3542 24.904 92.3191 28.9201 91.297 35.1611C90.4436 40.3802 88.7859 45.7046 85.063 49.6206C80.8639 54.0409 75.1204 55.541 69.2326 55.7069C64.2693 60.4838 57.533 63.4302 50.1385 63.4302ZM77.7122 35.8565V18.5857H89.7095C89.7095 38.6416 88.5894 51.0302 71.7918 52.8828C75.4963 48.1867 77.7122 42.2686 77.7122 35.8565ZM50.1385 60.7856C63.8499 60.7856 75.0641 49.5678 75.0641 35.86V10.5429H25.2094V35.86C25.2094 49.5714 36.4272 60.7856 50.135 60.7856H50.1385ZM56.3723 78.5358H43.9008H43.8972C37.9266 78.5358 32.9183 82.8487 31.8296 88.5137H68.44C67.3512 82.8487 62.3429 78.5358 56.3723 78.5358Z" fill="#242629"/>
<path fill-rule="evenodd" clip-rule="evenodd" d="M50.6965 19.6224L54.4896 27.0436C54.5809 27.2227 54.7354 27.3386 54.9321 27.3772L62.8554 28.8909C63.0837 28.9366 63.2593 29.0876 63.3331 29.3124C63.4068 29.5337 63.3577 29.762 63.2031 29.9376L57.6013 36.1049C57.4713 36.2453 57.4187 36.4209 57.4433 36.6106L58.5285 45.0327C58.5601 45.2715 58.4618 45.4893 58.2686 45.6297C58.0719 45.7667 57.8331 45.7843 57.6224 45.6754L50.426 42.0263C50.2399 41.9315 50.0432 41.9315 49.8571 42.0263L42.6607 45.6789C42.4465 45.7878 42.2076 45.7702 42.0145 45.6297C41.8178 45.4928 41.723 45.2715 41.7546 45.0327L42.8398 36.6106C42.8644 36.4209 42.8082 36.2488 42.6818 36.1049L37.0799 29.9376C36.9219 29.7655 36.8727 29.5372 36.95 29.3124C37.0237 29.0911 37.1994 28.9366 37.4276 28.8909L45.351 27.3772C45.5477 27.3386 45.7022 27.2227 45.7935 27.0436L49.5866 19.6224C49.6955 19.4047 49.9062 19.2783 50.1486 19.2783C50.3909 19.2783 50.5981 19.4047 50.7105 19.6224H50.6965ZM50.1345 24.3427L48.1396 28.2482C47.676 29.1544 46.8366 29.7865 45.8357 29.9762L41.442 30.8156L44.6275 34.3242C45.2737 35.0372 45.5758 35.9925 45.4529 36.9478L44.8558 41.5908L48.6524 39.6626C49.5901 39.1885 50.6789 39.1885 51.6166 39.6626L55.4132 41.5873L54.8162 36.9443C54.6933 35.9925 54.9953 35.0337 55.6415 34.3207L58.827 30.8121L54.4334 29.9727C53.4324 29.783 52.593 29.1508 52.1294 28.2447L50.1345 24.3392V24.3427Z" fill="#242629"/>
<path fill-rule="evenodd" clip-rule="evenodd" d="M50.1378 24.3394L48.1429 28.2449C47.6793 29.1511 46.8399 29.7832 45.839 29.9729L41.4453 30.8123L44.6308 34.3209C45.277 35.0339 45.5791 35.9892 45.4562 36.9445L44.8591 41.5875L48.6557 39.6594C49.5934 39.1852 50.6822 39.1852 51.6199 39.6594L55.4166 41.584L54.8195 36.941C54.6966 35.9892 54.9986 35.0304 55.6448 34.3174L58.8303 30.8088L54.4367 29.9694C53.4357 29.7797 52.5963 29.1476 52.1327 28.2414L50.1378 24.3359V24.3394Z" fill="#C4C5CC"/>
</svg>
