<svg width="100" height="100" viewBox="0 0 100 100" fill="none" xmlns="http://www.w3.org/2000/svg">
<path fill-rule="evenodd" clip-rule="evenodd" d="M50.1385 63.4303C48.4253 63.4303 46.7473 63.2721 45.1185 62.9696C45.8995 63.116 46.6938 63.2283 47.4937 63.3039V75.8911H52.7864V63.3074C53.682 63.2196 54.5636 63.0897 55.4311 62.9211V75.8911H56.3723C63.5159 75.8911 69.6938 81.0153 71.0389 88.015L71.643 91.1618H28.6265L29.2305 88.015C30.5757 81.0118 36.7535 75.8911 43.8972 75.8911H43.9007H44.849V62.9181C39.5566 61.88 34.7947 59.3161 31.0447 55.7072C25.1485 55.5454 19.3928 54.0455 15.1857 49.6207C11.4664 45.7047 9.80864 40.3803 8.95168 35.1613C7.92965 28.9202 7.89453 24.9041 7.89453 18.5858V15.9412H22.5647V18.5858H10.5427C10.5427 38.6501 11.663 51.0459 28.4883 52.8868C24.7822 48.1906 22.5648 42.2712 22.5648 35.8566V7.89478H77.7123V15.9412H92.3541V18.5858C92.3541 24.9041 92.319 28.9202 91.297 35.1613C90.4435 40.3803 88.7858 45.7047 85.063 49.6207C80.8638 54.041 75.1203 55.5412 69.2325 55.7071C64.2692 60.4839 57.533 63.4303 50.1385 63.4303ZM77.7123 35.8566V18.5858H89.7095C89.7095 38.6417 88.5893 51.0303 71.7918 52.883C75.4963 48.1869 77.7123 42.2687 77.7123 35.8566ZM50.1385 60.7856C63.8499 60.7856 75.0641 49.5679 75.0641 35.8601V10.5429H25.2095V35.8601C25.2095 49.5714 36.4272 60.7856 50.135 60.7856H50.1385ZM56.3723 78.5357H43.9007H43.8972C37.9266 78.5357 32.9183 82.8486 31.8295 88.5137H68.4399C67.3512 82.8486 62.3429 78.5357 56.3723 78.5357Z" fill="#242629"/>
<path fill-rule="evenodd" clip-rule="evenodd" d="M50.6969 19.6225L54.49 27.0436C54.5814 27.2228 54.7359 27.3387 54.9326 27.3773L62.8559 28.891C63.0842 28.9367 63.2598 29.0877 63.3336 29.3125C63.4073 29.5337 63.3582 29.762 63.2036 29.9376L57.6018 36.1049C57.4718 36.2454 57.4192 36.421 57.4437 36.6107L58.529 45.0327C58.5606 45.2716 58.4623 45.4893 58.2691 45.6298C58.0724 45.7668 57.8336 45.7843 57.6229 45.6755L50.4265 42.0264C50.2404 41.9315 50.0437 41.9315 49.8575 42.0264L42.6612 45.679C42.447 45.7879 42.2081 45.7703 42.015 45.6298C41.8183 45.4928 41.7235 45.2716 41.7551 45.0327L42.8403 36.6107C42.8649 36.421 42.8087 36.2489 42.6823 36.1049L37.0804 29.9376C36.9224 29.7655 36.8732 29.5372 36.9505 29.3125C37.0242 29.0912 37.1998 28.9367 37.4281 28.891L45.3515 27.3773C45.5482 27.3387 45.7027 27.2228 45.794 27.0436L49.5871 19.6225C49.696 19.4048 49.9067 19.2783 50.1491 19.2783C50.3914 19.2783 50.5986 19.4048 50.711 19.6225H50.6969ZM50.135 24.3428L48.1401 28.2483C47.6765 29.1544 46.8371 29.7866 45.8362 29.9763L41.4425 30.8157L44.628 34.3243C45.2742 35.0372 45.5763 35.9925 45.4533 36.9478L44.8563 41.5909L48.6529 39.6627C49.5906 39.1886 50.6794 39.1886 51.6171 39.6627L55.4137 41.5873L54.8167 36.9443C54.6937 35.9925 54.9958 35.0337 55.642 34.3208L58.8275 30.8121L54.4338 29.9727C53.4329 29.7831 52.5935 29.1509 52.1299 28.2448L50.135 24.3393V24.3428Z" fill="#242629"/>
<path fill-rule="evenodd" clip-rule="evenodd" d="M50.1388 24.3397L48.1439 28.2452C47.6803 29.1513 46.8409 29.7835 45.84 29.9731L41.4463 30.8125L44.6318 34.3212C45.278 35.0341 45.5801 35.9894 45.4571 36.9447L44.8601 41.5878L48.6567 39.6596C49.5944 39.1855 50.6832 39.1855 51.6209 39.6596L55.4175 41.5842L54.8205 36.9412C54.6975 35.9894 54.9996 35.0306 55.6458 34.3176L58.8313 30.809L54.4377 29.9696C53.4367 29.78 52.5973 29.1478 52.1337 28.2417L50.1388 24.3362V24.3397Z" fill="#C4C5CC"/>
<path fill-rule="evenodd" clip-rule="evenodd" d="M28.897 55.53C39.6933 55.53 48.442 64.2823 48.442 75.075C48.442 85.8713 39.6898 94.62 28.897 94.62C18.1008 94.62 9.35205 85.8678 9.35205 75.075C9.35205 64.2787 18.1043 55.53 28.897 55.53Z" fill="#242629"/>
<path fill-rule="evenodd" clip-rule="evenodd" d="M28.8974 58.178C38.2292 58.178 45.7978 65.7431 45.7978 75.0783C45.7978 84.4101 38.2327 91.9787 28.8974 91.9787C19.5657 91.9787 11.9971 84.4136 11.9971 75.0783C11.9971 65.7466 19.5622 58.178 28.8974 58.178Z" fill="#C4C5CC"/>
<path d="M30.8112 74.0214L32.9747 71.2679V68.9429H24.9319V71.6226H29.5082L27.2394 74.4991L28.3282 76.1252H28.9182C30.0983 76.1252 30.6146 76.7503 30.6146 77.5195C30.6146 78.2886 30.0948 78.9138 28.9182 78.9138C27.8294 78.9138 27.2921 78.4116 27.0041 77.5897L24.5386 79.0192C25.3077 80.8595 27.0217 81.6989 28.9182 81.6989C31.331 81.6989 33.4769 80.2695 33.4769 77.516C33.4769 75.781 32.3496 74.5482 30.8148 74.0109L30.8112 74.0214Z" fill="#242629"/>
</svg>
