<svg width="235" height="44" viewBox="0 0 235 44" fill="none" xmlns="http://www.w3.org/2000/svg">
<path d="M45.4831 10.1725C40.006 3.03989 31.2456 7.95519 31.2456 7.95519C29.4199 4.32686 23.8199 -0.0147329 16.4403 0.0162785C10.7791 0.0317841 1.65045 3.66012 0.1776 14.0024C-1.38731 25.0424 7.74131 35.5243 15.9034 39.7573C15.9034 37.7261 15.9034 37.0128 15.9034 36.9973C15.9034 35.3227 15.9034 32.7488 15.9034 28.9189C14.2311 28.3141 13.0497 26.9186 13.0037 25.2595C13.0037 24.8874 13.0037 24.5618 13.0037 24.2672C13.0037 24.2517 13.0037 23.7245 13.0037 22.2049C13.0037 20.8404 13.0037 18.6851 13.0037 15.3824C13.0037 14.9793 13.3259 14.6691 13.7094 14.6691C14.1083 14.6691 14.4152 14.9948 14.4152 15.3824V23.5539C14.4152 24.0191 15.4584 24.0811 15.4584 23.5539V15.3824C15.4584 14.9793 15.7806 14.6691 16.1642 14.6691C16.5477 14.6691 16.8699 14.9948 16.8699 15.3824V23.5539C16.8699 24.0811 18.2047 24.0966 18.2047 23.5539V15.3824C18.2047 14.9793 18.5269 14.6691 18.9104 14.6691C19.3093 14.6691 19.6162 14.9948 19.6162 15.3824V23.5539C19.6162 24.2517 20.9203 24.2051 20.9203 23.5539V15.3824C20.9203 14.9793 21.2425 14.6691 21.626 14.6691C22.0249 14.6691 22.3318 14.9948 22.3318 15.3824C22.3318 43.3236 22.3318 -2.54216 22.3318 25.2595C22.2857 26.9031 21.1044 28.3141 19.4474 28.9189C19.4474 31.5858 19.4474 32.5007 19.4474 32.7798C19.4474 32.8573 19.4474 32.8883 19.4474 32.8883C19.4474 33.2295 19.4474 36.5167 19.4474 41.494C22.1323 42.7034 23.958 43.3236 23.958 43.3236C25.4002 42.7034 26.781 42.0522 28.1311 41.3699C28.1311 34.656 28.1311 30.3299 28.1311 30.3144C28.1311 30.2524 28.1311 30.1903 28.1311 30.1283C26.1826 29.2755 24.8018 27.0117 24.8018 23.6314C24.8018 19.2743 27.0878 14.7312 29.9261 14.7312C32.7491 14.7312 35.0504 19.2743 35.0504 23.6314C35.0504 27.0117 33.6696 29.291 31.7212 30.1283C31.7212 31.0897 31.7212 31.6789 31.7212 32.051C31.7212 32.4387 31.7212 32.5782 31.7212 32.5627C31.7212 33.2139 31.7212 35.9274 31.7212 39.3852C46.8486 30.4849 51.4206 17.8943 45.4831 10.1725Z" fill="#7ECA1D"/>
<path d="M25.323 3.2098C25.8754 3.2098 26.4277 3.24081 26.9646 3.27183C24.2798 1.38013 20.659 -0.0153777 16.4399 0.000127946C10.7786 0.0311393 1.64999 3.65947 0.177142 14.0018C-0.94284 21.8941 3.39901 29.4919 8.93755 34.7329C6.72827 31.4922 5.42418 27.5537 5.42418 23.3207C5.42418 12.2031 14.338 3.2098 25.323 3.2098Z" fill="#65A217"/>
<path d="M45.2214 23.3205C45.2214 24.7626 45.068 26.1891 44.7765 27.5381C48.8268 21.2273 49.0569 14.8079 45.4822 10.1717C42.6746 6.51238 39.0078 6.0162 36.0928 6.41935C41.5853 9.98566 45.2214 16.2189 45.2214 23.3205Z" fill="#A9D96B"/>
<path d="M68.3828 27.4027C69.0829 27.4027 69.6557 27.3484 70.1013 27.2398C70.568 27.1095 70.9392 26.9466 71.215 26.7511C71.4908 26.534 71.6818 26.2842 71.7878 26.0019C71.8939 25.7196 71.947 25.4046 71.947 25.0572C71.947 24.3188 71.6075 23.7107 70.9286 23.2329C70.2498 22.7334 69.0829 22.2013 67.4282 21.6366C66.7068 21.376 65.9855 21.0828 65.2642 20.7571C64.5429 20.4096 63.8959 19.9861 63.323 19.4866C62.7502 18.9654 62.2835 18.3464 61.9229 17.6298C61.5622 16.8914 61.3819 16.0009 61.3819 14.9585C61.3819 13.9161 61.5728 12.9822 61.9547 12.1569C62.3365 11.3099 62.8775 10.5933 63.5776 10.0069C64.2777 9.42052 65.1263 8.97531 66.1234 8.67126C67.1205 8.3455 68.2449 8.18261 69.4966 8.18261C70.9817 8.18261 72.2652 8.3455 73.3472 8.67126C74.4291 8.99702 75.3201 9.35536 76.0202 9.74628L74.5882 13.7532C73.973 13.4274 73.2835 13.1451 72.5198 12.9062C71.7772 12.6456 70.8756 12.5153 69.8148 12.5153C68.6268 12.5153 67.7676 12.689 67.2372 13.0365C66.7281 13.3623 66.4735 13.8726 66.4735 14.5676C66.4735 14.9802 66.5689 15.3277 66.7599 15.61C66.9508 15.8924 67.216 16.153 67.5554 16.3919C67.9161 16.609 68.3192 16.8153 68.7647 17.0108C69.2314 17.1845 69.7406 17.3691 70.2922 17.5646C71.4378 17.999 72.4349 18.4333 73.2835 18.8677C74.1321 19.2803 74.8322 19.7689 75.3838 20.3336C75.9566 20.8983 76.3809 21.5606 76.6567 22.3208C76.9325 23.0809 77.0704 24.0039 77.0704 25.0897C77.0704 27.1963 76.3491 28.836 74.9065 30.0088C73.4638 31.1598 71.2893 31.7353 68.3828 31.7353C67.4069 31.7353 66.5265 31.6702 65.7416 31.5399C64.9566 31.4313 64.2565 31.2901 63.6413 31.1164C63.0473 30.9426 62.5275 30.758 62.082 30.5626C61.6577 30.3671 61.297 30.1825 61 30.0088L62.4002 25.9693C63.0579 26.3385 63.864 26.6751 64.8187 26.9792C65.7946 27.2615 66.9826 27.4027 68.3828 27.4027Z" fill="#7ECA1D"/>
<path d="M85.3134 31.2792H80.5719V14.1441H85.3134V31.2792ZM85.7589 9.19248C85.7589 10.0829 85.4725 10.7887 84.8997 11.3099C84.3481 11.8094 83.6905 12.0592 82.9267 12.0592C82.163 12.0592 81.4947 11.8094 80.9219 11.3099C80.3703 10.7887 80.0945 10.0829 80.0945 9.19248C80.0945 8.30206 80.3703 7.6071 80.9219 7.1076C81.4947 6.58637 82.163 6.32576 82.9267 6.32576C83.6905 6.32576 84.3481 6.58637 84.8997 7.1076C85.4725 7.6071 85.7589 8.30206 85.7589 9.19248Z" fill="#7ECA1D"/>
<path d="M98.9673 22.1904C98.9673 20.6268 98.7658 19.5192 98.3627 18.8677C97.9808 18.2161 97.3125 17.8904 96.3578 17.8904C96.0608 17.8904 95.7532 17.9121 95.435 17.9555C95.1168 17.9772 94.8091 18.0098 94.5121 18.0532V31.2792H89.7706V14.7305C90.1737 14.6219 90.6404 14.5133 91.1708 14.4047C91.7224 14.2744 92.2952 14.1658 92.8892 14.0789C93.5044 13.9703 94.1303 13.8943 94.7667 13.8509C95.4032 13.7857 96.029 13.7532 96.6442 13.7532C97.8535 13.7532 98.8294 13.9161 99.5719 14.2418C100.336 14.5459 100.962 14.9151 101.449 15.3494C102.128 14.8499 102.903 14.459 103.772 14.1767C104.664 13.8943 105.48 13.7532 106.223 13.7532C107.559 13.7532 108.652 13.9486 109.501 14.3395C110.37 14.7087 111.06 15.2408 111.569 15.9358C112.078 16.6307 112.428 17.456 112.619 18.4116C112.81 19.3672 112.906 20.4313 112.906 21.6041V31.2792H108.164V22.1904C108.164 20.6268 107.962 19.5192 107.559 18.8677C107.178 18.2161 106.509 17.8904 105.555 17.8904C105.3 17.8904 104.939 17.9555 104.473 18.0858C104.027 18.2161 103.656 18.379 103.359 18.5745C103.507 19.074 103.603 19.6061 103.645 20.1707C103.688 20.7137 103.709 21.3 103.709 21.9298V31.2792H98.9673V22.1904Z" fill="#7ECA1D"/>
<path d="M127.936 22.842C127.936 21.3435 127.607 20.149 126.949 19.2586C126.291 18.3464 125.315 17.8904 124.021 17.8904C123.597 17.8904 123.205 17.9121 122.844 17.9555C122.483 17.9772 122.186 18.0098 121.953 18.0532V26.8163C122.25 27.0117 122.632 27.1746 123.098 27.3049C123.586 27.4352 124.074 27.5004 124.562 27.5004C126.811 27.5004 127.936 25.9476 127.936 22.842ZM132.773 22.7117C132.773 24.0364 132.613 25.2418 132.295 26.3276C131.977 27.4135 131.51 28.3474 130.895 29.1292C130.28 29.911 129.516 30.5191 128.604 30.9535C127.692 31.3878 126.641 31.605 125.453 31.605C124.796 31.605 124.18 31.5399 123.608 31.4096C123.035 31.2792 122.483 31.0946 121.953 30.8558V37.3059H117.211V14.7305C117.636 14.6002 118.124 14.4807 118.675 14.3721C119.227 14.2418 119.8 14.1332 120.394 14.0464C121.009 13.9595 121.624 13.8943 122.239 13.8509C122.876 13.7857 123.48 13.7532 124.053 13.7532C125.432 13.7532 126.663 13.9703 127.745 14.4047C128.827 14.8173 129.739 15.4146 130.481 16.1964C131.224 16.9565 131.786 17.8904 132.168 18.998C132.571 20.1056 132.773 21.3435 132.773 22.7117Z" fill="#7ECA1D"/>
<path d="M143.099 31.605C141.72 31.5833 140.596 31.4313 139.726 31.1489C138.878 30.8666 138.199 30.4757 137.69 29.9762C137.202 29.455 136.862 28.836 136.671 28.1193C136.502 27.3809 136.417 26.5557 136.417 25.6435V6.78183L141.158 6V24.6662C141.158 25.1006 141.19 25.4915 141.254 25.839C141.317 26.1865 141.434 26.4797 141.604 26.7186C141.795 26.9575 142.06 27.1529 142.399 27.3049C142.739 27.457 143.195 27.5547 143.768 27.5981L143.099 31.605Z" fill="#7ECA1D"/>
<path d="M161.005 14.1441C160.05 17.4452 159.053 20.5399 158.014 23.4283C156.974 26.3168 155.839 29.1183 154.609 31.833C154.163 32.8103 153.717 33.6356 153.272 34.3088C152.826 35.0038 152.339 35.5685 151.808 36.0028C151.278 36.4589 150.673 36.7847 149.994 36.9801C149.337 37.1973 148.562 37.3059 147.671 37.3059C146.929 37.3059 146.239 37.2299 145.603 37.0778C144.988 36.9475 144.478 36.7955 144.075 36.6218L144.903 32.7452C145.391 32.9189 145.826 33.0384 146.207 33.1035C146.589 33.1687 146.992 33.2013 147.417 33.2013C148.265 33.2013 148.912 32.9624 149.358 32.4846C149.825 32.0285 150.217 31.3878 150.535 30.5626C149.453 28.3908 148.371 25.9584 147.289 23.2655C146.207 20.5508 145.189 17.5103 144.234 14.1441H149.262C149.474 14.9911 149.718 15.9141 149.994 16.9131C150.291 17.8904 150.599 18.8894 150.917 19.9101C151.235 20.9091 151.554 21.8864 151.872 22.842C152.211 23.7975 152.529 24.6662 152.826 25.4481C153.102 24.6662 153.389 23.7975 153.686 22.842C153.983 21.8864 154.269 20.9091 154.545 19.9101C154.842 18.8894 155.118 17.8904 155.372 16.9131C155.648 15.9141 155.892 14.9911 156.104 14.1441H161.005Z" fill="#7ECA1D"/>
<path d="M163.613 31.6259V8.74091H178.429V13.0669H168.594V17.8553H177.343V22.1813H168.594V31.6259H163.613Z" fill="black"/>
<path d="M197.026 22.9078C197.026 24.2728 196.834 25.5276 196.451 26.6724C196.068 27.7952 195.515 28.7639 194.791 29.5785C194.067 30.371 193.194 30.9875 192.173 31.4278C191.172 31.8681 190.044 32.0882 188.788 32.0882C187.554 32.0882 186.425 31.8681 185.404 31.4278C184.403 30.9875 183.541 30.371 182.817 29.5785C182.094 28.7639 181.53 27.7952 181.125 26.6724C180.721 25.5276 180.518 24.2728 180.518 22.9078C180.518 21.5429 180.721 20.299 181.125 19.1762C181.551 18.0534 182.126 17.0958 182.849 16.3032C183.594 15.5106 184.467 14.8942 185.467 14.4539C186.489 14.0136 187.596 13.7934 188.788 13.7934C190.001 13.7934 191.108 14.0136 192.109 14.4539C193.131 14.8942 194.003 15.5106 194.727 16.3032C195.451 17.0958 196.015 18.0534 196.419 19.1762C196.824 20.299 197.026 21.5429 197.026 22.9078ZM192.173 22.9078C192.173 21.3887 191.875 20.1999 191.279 19.3413C190.704 18.4607 189.874 18.0204 188.788 18.0204C187.703 18.0204 186.862 18.4607 186.266 19.3413C185.67 20.1999 185.372 21.3887 185.372 22.9078C185.372 24.4269 185.67 25.6377 186.266 26.5403C186.862 27.421 187.703 27.8613 188.788 27.8613C189.874 27.8613 190.704 27.421 191.279 26.5403C191.875 25.6377 192.173 24.4269 192.173 22.9078Z" fill="black"/>
<path d="M216.421 22.9078C216.421 24.2728 216.229 25.5276 215.846 26.6724C215.463 27.7952 214.909 28.7639 214.185 29.5785C213.462 30.371 212.589 30.9875 211.567 31.4278C210.567 31.8681 209.439 32.0882 208.183 32.0882C206.948 32.0882 205.82 31.8681 204.798 31.4278C203.798 30.9875 202.936 30.371 202.212 29.5785C201.488 28.7639 200.924 27.7952 200.52 26.6724C200.115 25.5276 199.913 24.2728 199.913 22.9078C199.913 21.5429 200.115 20.299 200.52 19.1762C200.945 18.0534 201.52 17.0958 202.244 16.3032C202.989 15.5106 203.862 14.8942 204.862 14.4539C205.884 14.0136 206.991 13.7934 208.183 13.7934C209.396 13.7934 210.503 14.0136 211.503 14.4539C212.525 14.8942 213.398 15.5106 214.122 16.3032C214.845 17.0958 215.409 18.0534 215.814 19.1762C216.218 20.299 216.421 21.5429 216.421 22.9078ZM211.567 22.9078C211.567 21.3887 211.269 20.1999 210.673 19.3413C210.098 18.4607 209.268 18.0204 208.183 18.0204C207.097 18.0204 206.256 18.4607 205.66 19.3413C205.064 20.1999 204.766 21.3887 204.766 22.9078C204.766 24.4269 205.064 25.6377 205.66 26.5403C206.256 27.421 207.097 27.8613 208.183 27.8613C209.268 27.8613 210.098 27.421 210.673 26.5403C211.269 25.6377 211.567 24.4269 211.567 22.9078Z" fill="black"/>
<path d="M224.161 22.8087C224.161 24.3278 224.491 25.5497 225.151 26.4743C225.811 27.3989 226.79 27.8613 228.088 27.8613C228.514 27.8613 228.908 27.8503 229.27 27.8282C229.631 27.7842 229.929 27.7402 230.164 27.6962V18.7469C229.866 18.5488 229.472 18.3836 228.982 18.2516C228.514 18.1195 228.035 18.0534 227.545 18.0534C225.289 18.0534 224.161 19.6385 224.161 22.8087ZM234.921 31.0645C234.495 31.1966 234.006 31.3287 233.452 31.4608C232.899 31.5709 232.314 31.6699 231.696 31.758C231.1 31.8461 230.483 31.9121 229.844 31.9561C229.227 32.0222 228.631 32.0552 228.056 32.0552C226.673 32.0552 225.438 31.8461 224.352 31.4278C223.267 31.0095 222.352 30.4151 221.607 29.6445C220.862 28.852 220.287 27.9053 219.882 26.8045C219.499 25.6817 219.308 24.4269 219.308 23.0399C219.308 21.6309 219.478 20.365 219.819 19.2422C220.159 18.0975 220.649 17.1288 221.287 16.3362C221.926 15.5437 222.703 14.9382 223.618 14.52C224.555 14.1017 225.619 13.8925 226.811 13.8925C227.471 13.8925 228.056 13.9586 228.567 14.0907C229.099 14.2227 229.631 14.4099 230.164 14.652V6.79255L234.921 6V31.0645Z" fill="black"/>
</svg>
