<svg width="272" height="51" viewBox="0 0 272 51" fill="none" xmlns="http://www.w3.org/2000/svg">
<path d="M52.6614 11.7788C46.3197 3.52038 36.1766 9.2115 36.1766 9.2115C34.0627 5.01049 27.579 -0.0163667 19.0346 0.0195394C12.4798 0.0374924 1.91031 4.23851 0.204989 16.2132C-1.60692 28.9958 8.96253 41.132 18.4129 46.0332C18.4129 43.6813 18.4129 42.8555 18.4129 42.8375C18.4129 40.8986 18.4129 37.9184 18.4129 33.484C16.4766 32.7838 15.1088 31.1681 15.0555 29.2471C15.0555 28.8162 15.0555 28.4392 15.0555 28.0981C15.0555 28.0801 15.0555 27.4697 15.0555 25.7103C15.0555 24.1305 15.0555 21.635 15.0555 17.811C15.0555 17.3442 15.4285 16.9852 15.8726 16.9852C16.3345 16.9852 16.6898 17.3622 16.6898 17.811V27.2723C16.6898 27.8108 17.8977 27.8827 17.8977 27.2723V17.811C17.8977 17.3442 18.2707 16.9852 18.7148 16.9852C19.1589 16.9852 19.532 17.3622 19.532 17.811V27.2723C19.532 27.8827 21.0774 27.9006 21.0774 27.2723V17.811C21.0774 17.3442 21.4505 16.9852 21.8946 16.9852C22.3564 16.9852 22.7117 17.3622 22.7117 17.811V27.2723C22.7117 28.0801 24.2216 28.0263 24.2216 27.2723V17.811C24.2216 17.3442 24.5946 16.9852 25.0387 16.9852C25.5006 16.9852 25.8559 17.3622 25.8559 17.811C25.8559 50.1624 25.8559 -2.94271 25.8559 29.2471C25.8026 31.1501 24.4348 32.7838 22.5163 33.484C22.5163 36.5719 22.5163 37.6312 22.5163 37.9543C22.5163 38.0441 22.5163 38.08 22.5163 38.08C22.5163 38.475 22.5163 42.281 22.5163 48.0439C25.6249 49.4443 27.7388 50.1624 27.7388 50.1624C29.4086 49.4443 31.0074 48.6902 32.5706 47.9003C32.5706 40.1266 32.5706 35.1177 32.5706 35.0998C32.5706 35.028 32.5706 34.9562 32.5706 34.8843C30.3146 33.8969 28.7158 31.2758 28.7158 27.362C28.7158 22.3172 31.3626 17.057 34.6489 17.057C37.9175 17.057 40.582 22.3172 40.582 27.362C40.582 31.2758 38.9833 33.9149 36.7273 34.8843C36.7273 35.9974 36.7273 36.6797 36.7273 37.1105C36.7273 37.5594 36.7273 37.7209 36.7273 37.703C36.7273 38.457 36.7273 41.5988 36.7273 45.6023C54.2424 35.2973 59.536 20.7194 52.6614 11.7788Z" fill="#7ECA1D"/>
<path d="M29.3199 3.71643C29.9594 3.71643 30.5989 3.75233 31.2207 3.78824C28.112 1.59797 23.9197 -0.0178049 19.0347 0.000148141C12.4799 0.0360542 1.91042 4.23707 0.205101 16.2117C-1.09165 25.3498 3.93549 34.1468 10.3482 40.215C7.79023 36.4628 6.28031 31.9027 6.28031 27.0015C6.28031 14.1292 16.6011 3.71643 29.3199 3.71643Z" fill="#65A217"/>
<path d="M52.3595 27.0013C52.3595 28.671 52.1818 30.3227 51.8443 31.8846C56.534 24.5777 56.8004 17.1451 52.6615 11.7772C49.4107 7.54024 45.1652 6.96574 41.79 7.43252C48.1495 11.5617 52.3595 18.7788 52.3595 27.0013Z" fill="#A9D96B"/>
<path d="M79.1765 31.7277C79.9871 31.7277 80.6503 31.6649 81.1662 31.5392C81.7066 31.3883 82.1364 31.1997 82.4558 30.9734C82.7751 30.7219 82.9962 30.4328 83.119 30.1059C83.2418 29.779 83.3032 29.4144 83.3032 29.012C83.3032 28.1571 82.9102 27.453 82.1242 26.8998C81.3381 26.3215 79.9871 25.7054 78.0712 25.0516C77.236 24.7499 76.4009 24.4104 75.5657 24.0333C74.7305 23.6309 73.9813 23.1406 73.3181 22.5622C72.6549 21.9588 72.1145 21.2421 71.6969 20.4123C71.2794 19.5574 71.0706 18.5264 71.0706 17.3194C71.0706 16.1125 71.2916 15.0312 71.7338 14.0757C72.1759 13.095 72.8023 12.2652 73.6129 11.5863C74.4235 10.9074 75.406 10.3919 76.5605 10.0398C77.715 9.66266 79.0169 9.47407 80.4661 9.47407C82.1856 9.47407 83.6717 9.66266 84.9244 10.0398C86.1771 10.417 87.2088 10.8319 88.0194 11.2845L86.3614 15.9239C85.649 15.5467 84.8507 15.2198 83.9664 14.9432C83.1067 14.6414 82.0627 14.4906 80.8346 14.4906C79.459 14.4906 78.4642 14.6917 77.8501 15.0941C77.2606 15.4712 76.9658 16.0622 76.9658 16.8668C76.9658 17.3446 77.0763 17.7469 77.2974 18.0738C77.5185 18.4007 77.8255 18.7024 78.2186 18.979C78.6361 19.2305 79.1028 19.4694 79.6187 19.6957C80.1591 19.8968 80.7486 20.1106 81.3872 20.3369C82.7137 20.8398 83.8682 21.3427 84.8507 21.8456C85.8333 22.3234 86.6438 22.8891 87.2825 23.5429C87.9457 24.1967 88.437 24.9636 88.7563 25.8437C89.0756 26.7238 89.2353 27.7925 89.2353 29.0498C89.2353 31.4889 88.4001 33.3873 86.7298 34.7452C85.0595 36.0779 82.5417 36.7443 79.1765 36.7443C78.0466 36.7443 77.0272 36.6688 76.1184 36.5179C75.2095 36.3922 74.3989 36.2288 73.6866 36.0276C72.9988 35.8264 72.397 35.6127 71.8812 35.3864C71.3899 35.1601 70.9723 34.9464 70.6284 34.7452L72.2496 30.0681C73.0111 30.4956 73.9445 30.8854 75.0499 31.2374C76.1798 31.5643 77.5553 31.7277 79.1765 31.7277Z" fill="#7ECA1D"/>
<path d="M98.7794 36.2162H93.2894V16.3765H98.7794V36.2162ZM99.2952 10.6433C99.2952 11.6743 98.9636 12.4915 98.3004 13.095C97.6617 13.6734 96.9003 13.9625 96.016 13.9625C95.1317 13.9625 94.3579 13.6734 93.6947 13.095C93.0561 12.4915 92.7368 11.6743 92.7368 10.6433C92.7368 9.61237 93.0561 8.80772 93.6947 8.22937C94.3579 7.62589 95.1317 7.32414 96.016 7.32414C96.9003 7.32414 97.6617 7.62589 98.3004 8.22937C98.9636 8.80772 99.2952 9.61237 99.2952 10.6433Z" fill="#7ECA1D"/>
<path d="M114.588 25.6928C114.588 23.8824 114.355 22.6 113.888 21.8456C113.446 21.0912 112.672 20.7141 111.567 20.7141C111.223 20.7141 110.867 20.7392 110.498 20.7895C110.13 20.8146 109.774 20.8524 109.43 20.9027V36.2162H103.94V17.0554C104.407 16.9297 104.947 16.804 105.561 16.6782C106.2 16.5274 106.863 16.4016 107.551 16.301C108.263 16.1753 108.988 16.0873 109.725 16.037C110.462 15.9616 111.186 15.9239 111.899 15.9239C113.299 15.9239 114.429 16.1125 115.288 16.4896C116.173 16.8417 116.897 17.2691 117.462 17.7721C118.248 17.1937 119.145 16.7411 120.152 16.4142C121.184 16.0873 122.129 15.9239 122.989 15.9239C124.537 15.9239 125.802 16.1502 126.784 16.6028C127.791 17.0303 128.59 17.6463 129.179 18.451C129.769 19.2556 130.174 20.2112 130.395 21.3176C130.616 22.4239 130.727 23.6561 130.727 25.0139V36.2162H125.237V25.6928C125.237 23.8824 125.003 22.6 124.537 21.8456C124.094 21.0912 123.321 20.7141 122.215 20.7141C121.921 20.7141 121.503 20.7895 120.963 20.9404C120.447 21.0912 120.017 21.2798 119.673 21.5061C119.845 22.0845 119.955 22.7005 120.005 23.3543C120.054 23.983 120.078 24.6619 120.078 25.3911V36.2162H114.588V25.6928Z" fill="#7ECA1D"/>
<path d="M148.129 26.4472C148.129 24.7122 147.748 23.3292 146.987 22.2982C146.225 21.2421 145.095 20.7141 143.597 20.7141C143.106 20.7141 142.651 20.7392 142.234 20.7895C141.816 20.8146 141.472 20.8524 141.202 20.9027V31.0488C141.546 31.2751 141.988 31.4637 142.528 31.6146C143.093 31.7655 143.658 31.8409 144.223 31.8409C146.827 31.8409 148.129 30.043 148.129 26.4472ZM153.729 26.2963C153.729 27.8302 153.545 29.2258 153.177 30.483C152.808 31.7403 152.268 32.8216 151.555 33.7268C150.843 34.632 149.959 35.3361 148.903 35.839C147.846 36.3419 146.63 36.5934 145.255 36.5934C144.493 36.5934 143.781 36.5179 143.118 36.3671C142.455 36.2162 141.816 36.0025 141.202 35.7259V43.194H135.712V17.0554C136.203 16.9045 136.768 16.7662 137.407 16.6405C138.045 16.4896 138.709 16.3639 139.396 16.2633C140.109 16.1627 140.821 16.0873 141.533 16.037C142.27 15.9616 142.97 15.9239 143.634 15.9239C145.23 15.9239 146.655 16.1753 147.908 16.6782C149.16 17.156 150.217 17.8475 151.076 18.7527C151.936 19.6328 152.587 20.7141 153.029 21.9965C153.496 23.2789 153.729 24.7122 153.729 26.2963Z" fill="#7ECA1D"/>
<path d="M165.686 36.5934C164.09 36.5682 162.788 36.3922 161.781 36.0653C160.798 35.7384 160.012 35.2858 159.422 34.7075C158.857 34.104 158.464 33.3873 158.243 32.5575C158.047 31.7026 157.949 30.7471 157.949 29.691V7.85219L163.439 6.94696V28.5594C163.439 29.0623 163.475 29.5149 163.549 29.9173C163.623 30.3196 163.758 30.6591 163.954 30.9357C164.175 31.2123 164.483 31.4386 164.876 31.6146C165.269 31.7906 165.797 31.9038 166.46 31.9541L165.686 36.5934Z" fill="#7ECA1D"/>
<path d="M186.418 16.3765C185.312 20.1986 184.158 23.7818 182.954 27.1261C181.751 30.4705 180.436 33.7142 179.012 36.8574C178.496 37.9889 177.98 38.9445 177.464 39.724C176.948 40.5286 176.383 41.1824 175.769 41.6853C175.155 42.2134 174.455 42.5905 173.669 42.8169C172.908 43.0683 172.011 43.194 170.979 43.194C170.12 43.194 169.321 43.106 168.585 42.93C167.872 42.7791 167.283 42.6031 166.816 42.402L167.774 37.9135C168.339 38.1147 168.842 38.253 169.285 38.3284C169.727 38.4038 170.193 38.4416 170.685 38.4416C171.667 38.4416 172.416 38.165 172.932 37.6118C173.473 37.0837 173.927 36.3419 174.296 35.3864C173.043 32.8719 171.79 30.0556 170.537 26.9375C169.285 23.7944 168.106 20.274 167 16.3765H172.822C173.067 17.3572 173.35 18.4258 173.669 19.5825C174.013 20.7141 174.369 21.8707 174.738 23.0526C175.106 24.2093 175.475 25.3408 175.843 26.4472C176.236 27.5536 176.605 28.5594 176.948 29.4647C177.268 28.5594 177.599 27.5536 177.943 26.4472C178.287 25.3408 178.619 24.2093 178.938 23.0526C179.282 21.8707 179.601 20.7141 179.896 19.5825C180.215 18.4258 180.498 17.3572 180.744 16.3765H186.418Z" fill="#7ECA1D"/>
<path d="M189.438 36.6172V10.1201H206.591V15.1289H195.205V20.6731H205.334V25.6819H195.205V36.6172H189.438Z" fill="white"/>
<path d="M228.124 26.5231C228.124 28.1035 227.902 29.5564 227.458 30.8819C227.015 32.1819 226.374 33.3035 225.536 34.2466C224.698 35.1643 223.688 35.878 222.505 36.3878C221.346 36.8976 220.04 37.1525 218.586 37.1525C217.156 37.1525 215.85 36.8976 214.667 36.3878C213.509 35.878 212.511 35.1643 211.673 34.2466C210.835 33.3035 210.182 32.1819 209.713 30.8819C209.245 29.5564 209.011 28.1035 209.011 26.5231C209.011 24.9427 209.245 23.5025 209.713 22.2025C210.206 20.9025 210.872 19.7937 211.71 18.876C212.572 17.9584 213.583 17.2446 214.741 16.7348C215.924 16.225 217.206 15.9701 218.586 15.9701C219.991 15.9701 221.272 16.225 222.431 16.7348C223.614 17.2446 224.624 17.9584 225.462 18.876C226.3 19.7937 226.953 20.9025 227.421 22.2025C227.89 23.5025 228.124 24.9427 228.124 26.5231ZM222.505 26.5231C222.505 24.7642 222.16 23.3878 221.469 22.3937C220.804 21.3741 219.843 20.8642 218.586 20.8642C217.329 20.8642 216.355 21.3741 215.665 22.3937C214.975 23.3878 214.63 24.7642 214.63 26.5231C214.63 28.2819 214.975 29.6839 215.665 30.729C216.355 31.7486 217.329 32.2584 218.586 32.2584C219.843 32.2584 220.804 31.7486 221.469 30.729C222.16 29.6839 222.505 28.2819 222.505 26.5231Z" fill="white"/>
<path d="M250.58 26.5231C250.58 28.1035 250.358 29.5564 249.914 30.8819C249.471 32.1819 248.83 33.3035 247.992 34.2466C247.154 35.1643 246.143 35.878 244.96 36.3878C243.802 36.8976 242.496 37.1525 241.042 37.1525C239.612 37.1525 238.306 36.8976 237.123 36.3878C235.965 35.878 234.966 35.1643 234.128 34.2466C233.29 33.3035 232.637 32.1819 232.169 30.8819C231.701 29.5564 231.467 28.1035 231.467 26.5231C231.467 24.9427 231.701 23.5025 232.169 22.2025C232.662 20.9025 233.327 19.7937 234.165 18.876C235.028 17.9584 236.038 17.2446 237.197 16.7348C238.38 16.225 239.661 15.9701 241.042 15.9701C242.446 15.9701 243.728 16.225 244.886 16.7348C246.069 17.2446 247.08 17.9584 247.918 18.876C248.756 19.7937 249.409 20.9025 249.877 22.2025C250.346 23.5025 250.58 24.9427 250.58 26.5231ZM244.96 26.5231C244.96 24.7642 244.615 23.3878 243.925 22.3937C243.26 21.3741 242.299 20.8642 241.042 20.8642C239.785 20.8642 238.811 21.3741 238.121 22.3937C237.431 23.3878 237.086 24.7642 237.086 26.5231C237.086 28.2819 237.431 29.6839 238.121 30.729C238.811 31.7486 239.785 32.2584 241.042 32.2584C242.299 32.2584 243.26 31.7486 243.925 30.729C244.615 29.6839 244.96 28.2819 244.96 26.5231Z" fill="white"/>
<path d="M259.542 26.4084C259.542 28.1672 259.924 29.5819 260.688 30.6525C261.452 31.7231 262.586 32.2584 264.089 32.2584C264.582 32.2584 265.038 32.2456 265.457 32.2201C265.876 32.1692 266.221 32.1182 266.492 32.0672V21.7054C266.147 21.476 265.691 21.2848 265.124 21.1319C264.582 20.979 264.027 20.9025 263.46 20.9025C260.848 20.9025 259.542 22.7378 259.542 26.4084ZM272 35.9672C271.507 36.1201 270.94 36.2731 270.3 36.426C269.659 36.5535 268.981 36.6682 268.266 36.7701C267.576 36.8721 266.862 36.9486 266.122 36.9995C265.407 37.076 264.717 37.1143 264.052 37.1143C262.45 37.1143 261.02 36.8721 259.764 36.3878C258.507 35.9035 257.447 35.2152 256.584 34.3231C255.722 33.4054 255.056 32.3093 254.588 31.0348C254.144 29.7348 253.922 28.2819 253.922 26.676C253.922 25.0446 254.12 23.579 254.514 22.279C254.908 20.9535 255.475 19.8319 256.215 18.9142C256.954 17.9966 257.853 17.2956 258.913 16.8113C259.998 16.327 261.23 16.0848 262.61 16.0848C263.374 16.0848 264.052 16.1613 264.643 16.3142C265.26 16.4672 265.876 16.6839 266.492 16.9642V7.86424L272 6.94659V35.9672Z" fill="white"/>
</svg>
