<svg width="246" height="51" viewBox="0 0 246 51" fill="none" xmlns="http://www.w3.org/2000/svg">
<path d="M233.871 37.5399C232.431 37.5399 231.003 37.3839 229.587 37.0719C228.171 36.7599 227.007 36.3279 226.095 35.7759V30.1959C227.175 30.8919 228.387 31.4439 229.731 31.8519C231.099 32.2359 232.383 32.4279 233.583 32.4279C235.263 32.4279 236.511 32.1039 237.327 31.4559C238.143 30.8079 238.551 29.9199 238.551 28.7919C238.551 27.7119 238.131 26.8719 237.291 26.2719C236.475 25.6719 235.323 25.3719 233.835 25.3719C232.995 25.3719 232.107 25.4559 231.171 25.6239C230.259 25.7679 229.467 25.9839 228.795 26.2719L226.347 24.8679L227.355 11.8359H243.483V17.0559H233.511L233.187 21.0159C234.291 20.7279 235.467 20.5839 236.715 20.5839C239.331 20.5839 241.371 21.2799 242.835 22.6719C244.323 24.0399 245.067 26.0199 245.067 28.6119C245.067 31.4199 244.119 33.6159 242.223 35.1999C240.327 36.7599 237.543 37.5399 233.871 37.5399Z" fill="#7ECA1D"/>
<path d="M83.8879 37.54C80.0959 37.54 77.2399 36.532 75.3199 34.516C73.3999 32.476 72.4399 29.788 72.4399 26.452V11.836H78.8119V26.524C78.8119 28.204 79.2559 29.476 80.1439 30.34C81.0559 31.204 82.3039 31.636 83.8879 31.636C85.4719 31.636 86.7079 31.204 87.5959 30.34C88.4839 29.476 88.9279 28.204 88.9279 26.524V11.836H95.2999V26.452C95.2999 29.812 94.3399 32.5 92.4199 34.516C90.5239 36.532 87.6799 37.54 83.8879 37.54Z" fill="black"/>
<path d="M98.3543 19.72H104.474V21.628C105.218 20.812 106.118 20.2 107.174 19.792C108.23 19.384 109.334 19.18 110.486 19.18C112.91 19.18 114.698 19.816 115.85 21.088C117.026 22.336 117.614 24.04 117.614 26.2V37H111.278V27.028C111.278 25.084 110.39 24.112 108.614 24.112C107.798 24.112 107.054 24.304 106.382 24.688C105.71 25.048 105.146 25.612 104.69 26.38V37H98.3543V19.72Z" fill="black"/>
<path d="M124.063 17.416C123.103 17.416 122.299 17.104 121.651 16.48C121.003 15.856 120.679 15.064 120.679 14.104C120.679 13.168 121.003 12.388 121.651 11.764C122.299 11.116 123.103 10.792 124.063 10.792C124.999 10.792 125.791 11.116 126.439 11.764C127.111 12.388 127.447 13.168 127.447 14.104C127.447 15.04 127.111 15.832 126.439 16.48C125.791 17.104 124.999 17.416 124.063 17.416ZM120.895 19.72H127.231V37H120.895V19.72Z" fill="black"/>
<path d="M129.978 19.72H136.314L140.238 29.764L144.126 19.72H150.462L143.226 37H137.214L129.978 19.72Z" fill="black"/>
<path d="M161.17 37.54C157.786 37.54 155.122 36.748 153.178 35.164C151.258 33.58 150.298 31.336 150.298 28.432C150.298 25.576 151.15 23.32 152.854 21.664C154.582 20.008 157.066 19.18 160.306 19.18C162.37 19.18 164.134 19.576 165.598 20.368C167.086 21.136 168.202 22.204 168.946 23.572C169.714 24.916 170.098 26.44 170.098 28.144V30.484H156.31C156.55 31.444 157.15 32.14 158.11 32.572C159.07 33.004 160.378 33.22 162.034 33.22C163.162 33.22 164.314 33.124 165.49 32.932C166.69 32.74 167.722 32.476 168.586 32.14V36.316C167.698 36.676 166.582 36.964 165.238 37.18C163.918 37.42 162.562 37.54 161.17 37.54ZM164.122 26.524C164.026 25.588 163.642 24.856 162.97 24.328C162.298 23.8 161.374 23.536 160.198 23.536C159.046 23.536 158.134 23.812 157.462 24.364C156.79 24.892 156.406 25.612 156.31 26.524H164.122Z" fill="black"/>
<path d="M172.604 19.72H178.724V21.88C179.396 21.112 180.344 20.524 181.568 20.116C182.792 19.684 184.148 19.468 185.636 19.468V24.328C184.052 24.328 182.648 24.556 181.424 25.012C180.224 25.468 179.396 26.152 178.94 27.064V37H172.604V19.72Z" fill="black"/>
<path d="M194.365 37.54C192.973 37.54 191.521 37.396 190.009 37.108C188.497 36.844 187.297 36.46 186.409 35.956V31.312C187.393 31.888 188.569 32.368 189.937 32.752C191.329 33.112 192.601 33.292 193.753 33.292C194.593 33.292 195.205 33.232 195.589 33.112C195.973 32.992 196.165 32.752 196.165 32.392C196.165 32.104 196.033 31.876 195.769 31.708C195.529 31.516 195.073 31.324 194.401 31.132C193.753 30.916 192.997 30.688 192.133 30.448C190.669 30.016 189.517 29.572 188.677 29.116C187.837 28.66 187.213 28.084 186.805 27.388C186.397 26.692 186.193 25.816 186.193 24.76C186.193 22.888 186.925 21.496 188.389 20.584C189.877 19.648 191.905 19.18 194.473 19.18C195.721 19.18 197.029 19.312 198.397 19.576C199.789 19.84 200.833 20.188 201.529 20.62V25.192C200.809 24.712 199.849 24.316 198.649 24.004C197.473 23.692 196.369 23.536 195.337 23.536C194.521 23.536 193.885 23.62 193.429 23.788C192.973 23.932 192.745 24.196 192.745 24.58C192.745 24.94 192.973 25.216 193.429 25.408C193.885 25.6 194.701 25.84 195.877 26.128C196.645 26.32 196.969 26.404 196.849 26.38C198.385 26.788 199.573 27.244 200.413 27.748C201.253 28.252 201.841 28.852 202.177 29.548C202.537 30.22 202.717 31.084 202.717 32.14C202.717 33.796 201.997 35.116 200.557 36.1C199.141 37.06 197.077 37.54 194.365 37.54Z" fill="black"/>
<path d="M215.381 37.54C211.997 37.54 209.333 36.748 207.389 35.164C205.469 33.58 204.509 31.336 204.509 28.432C204.509 25.576 205.361 23.32 207.065 21.664C208.793 20.008 211.277 19.18 214.517 19.18C216.581 19.18 218.345 19.576 219.809 20.368C221.297 21.136 222.413 22.204 223.157 23.572C223.925 24.916 224.309 26.44 224.309 28.144V30.484H210.521C210.761 31.444 211.361 32.14 212.321 32.572C213.281 33.004 214.589 33.22 216.245 33.22C217.373 33.22 218.525 33.124 219.701 32.932C220.901 32.74 221.933 32.476 222.797 32.14V36.316C221.909 36.676 220.793 36.964 219.449 37.18C218.129 37.42 216.773 37.54 215.381 37.54ZM218.333 26.524C218.237 25.588 217.853 24.856 217.181 24.328C216.509 23.8 215.585 23.536 214.409 23.536C213.257 23.536 212.345 23.812 211.673 24.364C211.001 24.892 210.617 25.612 210.521 26.524H218.333Z" fill="black"/>
<path d="M52.6615 11.779C46.3199 3.52057 36.1767 9.21168 36.1767 9.21168C34.0629 5.01067 27.5791 -0.0161836 19.0347 0.0197225C12.4799 0.0376755 1.91043 4.23869 0.205111 16.2134C-1.60679 28.9959 8.96265 41.1322 18.413 46.0334C18.413 43.6815 18.413 42.8557 18.413 42.8377C18.413 40.8988 18.413 37.9186 18.413 33.4842C16.4767 32.784 15.1089 31.1682 15.0556 29.2473C15.0556 28.8164 15.0556 28.4394 15.0556 28.0983C15.0556 28.0803 15.0556 27.4699 15.0556 25.7105C15.0556 24.1307 15.0556 21.6352 15.0556 17.8112C15.0556 17.3444 15.4287 16.9853 15.8728 16.9853C16.3346 16.9853 16.6899 17.3624 16.6899 17.8112V27.2724C16.6899 27.811 17.8978 27.8828 17.8978 27.2724V17.8112C17.8978 17.3444 18.2709 16.9853 18.715 16.9853C19.1591 16.9853 19.5321 17.3624 19.5321 17.8112V27.2724C19.5321 27.8828 21.0775 27.9008 21.0775 27.2724V17.8112C21.0775 17.3444 21.4506 16.9853 21.8947 16.9853C22.3565 16.9853 22.7118 17.3624 22.7118 17.8112V27.2724C22.7118 28.0803 24.2217 28.0265 24.2217 27.2724V17.8112C24.2217 17.3444 24.5948 16.9853 25.0389 16.9853C25.5007 16.9853 25.856 17.3624 25.856 17.8112C25.856 50.1626 25.856 -2.94253 25.856 29.2473C25.8027 31.1503 24.4349 32.784 22.5164 33.4842C22.5164 36.5721 22.5164 37.6313 22.5164 37.9545C22.5164 38.0443 22.5164 38.0802 22.5164 38.0802C22.5164 38.4751 22.5164 42.2812 22.5164 48.0441C25.6251 49.4445 27.739 50.1626 27.739 50.1626C29.4087 49.4444 31.0075 48.6904 32.5707 47.9005C32.5707 40.1268 32.5707 35.1179 32.5707 35.1C32.5707 35.0282 32.5707 34.9563 32.5707 34.8845C30.3147 33.8971 28.716 31.276 28.716 27.3622C28.716 22.3174 31.3628 17.0572 34.6491 17.0572C37.9176 17.0572 40.5822 22.3174 40.5822 27.3622C40.5822 31.276 38.9834 33.9151 36.7274 34.8845C36.7274 35.9976 36.7274 36.6798 36.7274 37.1107C36.7274 37.5595 36.7274 37.7211 36.7274 37.7032C36.7274 38.4572 36.7274 41.599 36.7274 45.6025C54.2425 35.2975 59.5361 20.7196 52.6615 11.779Z" fill="#7ECA1D"/>
<path d="M29.3199 3.71643C29.9594 3.71643 30.5989 3.75233 31.2207 3.78824C28.112 1.59797 23.9197 -0.0178049 19.0347 0.000148141C12.4799 0.0360542 1.91042 4.23707 0.205101 16.2117C-1.09165 25.3498 3.93549 34.1468 10.3482 40.215C7.79023 36.4628 6.28031 31.9027 6.28031 27.0015C6.28031 14.1292 16.6011 3.71643 29.3199 3.71643Z" fill="#65A217"/>
<path d="M52.3597 27.0013C52.3597 28.6709 52.1821 30.3226 51.8446 31.8845C56.5342 24.5776 56.8007 17.1451 52.6617 11.7771C49.4109 7.54018 45.1654 6.96568 41.7903 7.43246C48.1497 11.5617 52.3597 18.7788 52.3597 27.0013Z" fill="#A9D96B"/>
</svg>
